<?xml version="1.0" standalone="no"?>
<!DOCTYPE svg PUBLIC "-//W3C//DTD SVG 1.1//EN" "http://www.w3.org/Graphics/SVG/1.1/DTD/svg11.dtd" >
<svg xmlns="http://www.w3.org/2000/svg">
<metadata></metadata>
<defs>
<font id="ClarendonFSMediumBold" horiz-adv-x="1024" >
<font-face units-per-em="2048" ascent="1591" descent="-457" />
<missing-glyph horiz-adv-x="512" />
<glyph unicode="&#xfb01;" horiz-adv-x="1396" d="M72 0v178h65q65 0 80 15q11 11 13.5 35t2.5 139v389h-161v178h161v41q0 128 23 199q38 104 167 161.5t327 57.5q232 0 355.5 -57.5t123.5 -164.5q0 -72 -50.5 -119.5t-127.5 -47.5q-78 0 -128.5 45.5t-50.5 115.5q0 43 19 82q-64 17 -113 17q-127 0 -168 -72 q-26 -48 -26 -182v-76h647v-567q0 -122 2.5 -144.5t15.5 -32.5q15 -12 76 -12h64v-178h-1317zM584 367q0 -122 2.5 -144.5t15.5 -32.5q15 -12 80 -12h102q43 0 58 3.5t24 15.5q6 8 8 12t4 21t2.5 47.5t0.5 89.5v200q0 115 -3 140t-16 36q-16 13 -78 13h-200v-389z" />
<glyph unicode="&#xfb02;" horiz-adv-x="1411" d="M72 0v178h65q65 0 80 15q11 11 13.5 35t2.5 139v389h-161v178h161v82q0 90 21 147t72 107q59 54 158 88.5t200 34.5q160 0 293 -86l254 59v-999q0 -117 2.5 -141.5t15.5 -35.5q12 -12 78 -12h64v-178h-1319zM584 367q0 -122 2.5 -144.5t15.5 -32.5q15 -12 80 -12h102 q65 0 80 15q11 11 14 36t3 138v389h-297v-389zM584 934h297v121q0 110 -35.5 159.5t-114.5 49.5q-78 0 -112.5 -49.5t-34.5 -159.5v-121z" />
<glyph unicode="&#xfb03;" horiz-adv-x="2041" d="M72 0v178h65q65 0 80 15q11 11 13.5 35t2.5 139v389h-161v178h161v82q0 90 21 147t72 107q59 54 158 88.5t200 34.5q177 0 311 -101q137 101 402 101q230 0 353.5 -57.5t123.5 -164.5q0 -72 -50.5 -119.5t-127.5 -47.5q-78 0 -128 45t-50 116q0 45 18 82q-64 17 -113 17 q-125 0 -166 -72q-26 -48 -26 -182v-76h645v-567q0 -122 2.5 -144.5t15.5 -32.5q15 -12 76 -12h64v-178h-1962zM584 367q0 -122 2.5 -144.5t15.5 -32.5q15 -12 80 -12h102q65 0 80 15q11 11 14 36t3 138v389h-297v-389zM584 934h297v121q0 110 -35.5 159.5t-114.5 49.5 q-78 0 -112.5 -49.5t-34.5 -159.5v-121zM1231 367q0 -122 2.5 -144.5t15.5 -32.5q15 -12 80 -12h101q43 0 57.5 3.5t23.5 15.5q6 8 8 12t4 21t2.5 47.5t0.5 89.5v200q0 115 -3 140t-16 36q-16 13 -77 13h-199v-389z" />
<glyph unicode="&#xfb04;" horiz-adv-x="2058" d="M72 0v178h65q65 0 80 15q11 11 13.5 35t2.5 139v389h-161v178h161v82q0 90 21 147t72 107q59 54 158 88.5t200 34.5q179 0 313 -103q144 103 334 103q158 0 291 -86l254 59v-999q0 -117 2.5 -141.5t15.5 -35.5q12 -12 78 -12h64v-178h-1964zM584 367q0 -122 2.5 -144.5 t15.5 -32.5q15 -12 80 -12h102q65 0 80 15q11 11 14 36t3 138v389h-297v-389zM584 934h297v121q0 110 -35.5 159.5t-114.5 49.5q-78 0 -112.5 -49.5t-34.5 -159.5v-121zM1231 367q0 -122 2.5 -144.5t15.5 -32.5q15 -12 80 -12h101q64 0 79 15q11 11 14 36t3 138v389h-295 v-389zM1231 934h295v121q0 110 -35 159.5t-113 49.5t-112.5 -49.5t-34.5 -159.5v-121z" />
<glyph horiz-adv-x="0" />
<glyph horiz-adv-x="2048" />
<glyph unicode=" "  horiz-adv-x="512" />
<glyph unicode="&#x09;" horiz-adv-x="512" />
<glyph unicode="&#xa0;" horiz-adv-x="512" />
<glyph unicode="!" horiz-adv-x="636" d="M123 1139q0 114 54 180.5t145 66.5t141.5 -65t50.5 -182q0 -55 -6.5 -96t-46.5 -232q-45 -222 -62 -397h-190q-21 211 -25 245t-49 328q-12 77 -12 152zM137 150q0 69 49.5 117t120.5 48q66 0 115 -49t49 -116q0 -69 -49 -118.5t-117 -49.5q-70 0 -119 49.5t-49 118.5z " />
<glyph unicode="&#x22;" horiz-adv-x="772" d="M84 1366h238l-50 -549h-139zM451 1366h237l-49 -549h-139z" />
<glyph unicode="#" horiz-adv-x="1228" d="M111 432l28 178h207l29 174h-207l29 177h204l66 405h176l-63 -405h176l63 405h180l-63 -405h205l-29 -177h-205l-26 -174h209l-29 -178h-209l-68 -432h-180l68 432h-176l-68 -432h-178l69 432h-208zM524 610h176l27 174h-176z" />
<glyph unicode="$" horiz-adv-x="1284" d="M74 311q0 71 48 118.5t120 47.5q66 0 110.5 -39t44.5 -96q0 -54 -36 -84.5t-101 -32.5q131 -102 389 -102q139 0 209 37q43 23 68.5 63.5t25.5 83.5q0 66 -61 96.5t-236 53.5q-154 21 -224 36t-138 44q-215 87 -215 323q0 92 42.5 171t119.5 132q72 47 144.5 69.5 t199.5 35.5v110h151v-110q131 -9 202 -28t134 -62q56 -38 87.5 -93.5t31.5 -115.5q0 -79 -46 -128.5t-120 -49.5q-67 0 -109.5 37t-42.5 96q0 49 28 79.5t73 30.5q21 0 55 -10q-32 32 -58.5 46.5t-68.5 25.5q-102 26 -217 26q-138 0 -217.5 -48t-79.5 -132q0 -92 129 -121 q50 -12 260 -41q247 -34 360 -129t113 -268q0 -107 -43 -184.5t-135 -135.5q-75 -47 -148 -67.5t-188 -24.5v-207h-151v207q-122 12 -192 30t-140 56q-82 43 -130 111.5t-48 142.5z" />
<glyph unicode="%" horiz-adv-x="1806" d="M76 940q0 143 90.5 229t241.5 86q147 0 238 -88t91 -229q0 -75 -35 -144t-94 -110q-73 -51 -200 -51q-154 0 -243 82.5t-89 224.5zM252 82l1014 1159l92 -84l-1016 -1157zM307 924q0 -187 101 -187q47 0 72.5 52t25.5 151q0 107 -22.5 155t-73.5 48q-103 0 -103 -219z M868 293q0 143 90.5 229t241.5 86q148 0 239 -88t91 -229q0 -75 -35 -144t-94 -110q-73 -51 -201 -51q-154 0 -243 82.5t-89 224.5zM1100 274q0 -186 100 -186t100 205q0 109 -23 156t-75 47q-102 0 -102 -222z" />
<glyph unicode="&#x26;" horiz-adv-x="1624" d="M45 399q0 82 35 158t98 133q54 48 180 103q-34 72 -46.5 118.5t-12.5 98.5q0 138 100.5 235.5t243.5 97.5q132 0 221.5 -84.5t89.5 -207.5q0 -86 -44 -155.5t-156 -160.5q80 -137 237 -323q76 103 91.5 128.5t15.5 49.5q0 23 -18 33t-58 10h-90v180h569v-180h-65 q-68 0 -99 -21q-19 -11 -32.5 -30.5t-92.5 -147.5q-13 -22 -106 -153q94 -103 176 -103q58 0 89.5 53t31.5 150q0 28 -6 96h180q2 -41 2 -92q0 -148 -47 -242q-38 -75 -119.5 -118t-187.5 -43q-180 0 -330 106q-160 -106 -369 -106q-208 0 -344.5 118t-136.5 299zM350 426 q0 -109 76.5 -185.5t185.5 -76.5q41 0 74 11t80 42q-102 116 -143 170.5t-138 202.5q-2 2 -6 8.5t-10.5 17t-11.5 17.5q-63 -65 -85 -107t-22 -100zM580 1067q0 -36 15 -71.5t60 -108.5q7 7 21 14q96 69 96 158q0 44 -27.5 73t-70.5 29q-41 0 -67.5 -26.5t-26.5 -67.5z" />
<glyph unicode="'" horiz-adv-x="405" d="M84 1366h238l-50 -549h-139z" />
<glyph unicode="(" horiz-adv-x="858" d="M72 471q0 417 186 647q211 263 565 275v-193q-126 -3 -200 -80q-83 -83 -116.5 -234t-33.5 -446q0 -244 33 -382t108 -212q43 -42 85.5 -60.5t103.5 -21.5v-192q-125 6 -220.5 38t-187.5 97q-167 120 -245 304t-78 460z" />
<glyph unicode=")" horiz-adv-x="858" d="M33 -236q67 1 114.5 20t88.5 60q83 83 116 234t33 448q0 243 -33 380.5t-108 211.5q-42 42 -84.5 60.5t-104.5 23.5v191q124 -6 220 -38.5t188 -97.5q168 -120 245.5 -303.5t77.5 -459.5q0 -418 -186 -648q-208 -262 -567 -274v192z" />
<glyph unicode="*" d="M129 1085q0 60 44.5 109t98.5 49q60 0 97 -72q21 -43 31.5 -56t27.5 -13q9 0 20 11t11 20q0 25 -43 65t-43 78q0 54 45.5 89.5t111.5 35.5q57 0 96.5 -31.5t39.5 -75.5q0 -55 -43 -98q-45 -48 -45 -66q0 -9 11.5 -19.5t20.5 -10.5q15 0 25.5 11.5t30.5 51.5 q15 32 43.5 52t58.5 20q50 0 87.5 -52.5t37.5 -121.5q0 -49 -33 -83t-80 -34q-14 0 -24.5 4.5t-55.5 28.5q-11 8 -24 8t-26 -12.5t-13 -24.5q0 -11 15.5 -22.5t35.5 -14.5q53 -7 66.5 -11.5t27.5 -16.5q37 -29 37 -76q0 -61 -51.5 -110.5t-114.5 -49.5q-56 0 -86 47 q-20 35 -20 45l6 95q0 7 -12.5 18.5t-20.5 11.5q-13 0 -26 -15t-13 -30l2 -8l6 -39q3 -18 3 -29q0 -37 -35 -67.5t-78 -30.5q-65 0 -116.5 47t-51.5 105q0 50 45 86q17 14 74 26q24 6 40.5 18.5t16.5 24.5t-12.5 23.5t-24.5 11.5q-10 0 -61 -26q-27 -15 -51 -15 q-41 0 -75 43t-34 96z" />
<glyph unicode="+" d="M14 575v242h375v357h248v-357h375v-242h-375v-356h-248v356h-375z" />
<glyph unicode="," horiz-adv-x="505" d="M63 133q0 75 53.5 125.5t131.5 50.5q91 0 149 -62t58 -157q0 -85 -41 -162.5t-113 -130.5q-47 -35 -93 -49.5t-122 -19.5v116q160 30 184 156q-42 -18 -71 -18q-58 0 -97 43t-39 108z" />
<glyph unicode="-" horiz-adv-x="532" d="M0 369v243h532v-243h-532z" />
<glyph unicode="." horiz-adv-x="489" d="M78 150q0 69 49.5 117t120.5 48q66 0 115 -49t49 -116q0 -69 -49 -118.5t-117 -49.5q-69 0 -118.5 49.5t-49.5 118.5z" />
<glyph unicode="/" horiz-adv-x="800" d="M-43 -422l545 1788h213l-541 -1788h-217z" />
<glyph unicode="0" horiz-adv-x="1284" d="M39 618q0 292 168.5 471t443.5 179q175 0 310 -83.5t209.5 -235t74.5 -347.5q0 -133 -46 -250.5t-125.5 -201.5t-191.5 -132.5t-239 -48.5q-267 0 -435.5 181t-168.5 468zM432 582q0 -228 51 -335.5t158 -107.5q104 0 158 111q23 48 38 159t15 242q0 229 -49.5 338 t-153.5 109q-112 0 -164.5 -124.5t-52.5 -391.5z" />
<glyph unicode="1" horiz-adv-x="1284" d="M307 0v186h101q69 0 88 25q13 18 15.5 40.5t2.5 127.5v520h-207v180q244 6 289 160h289v-860q0 -104 2.5 -127t13.5 -41q19 -25 90 -25h80v-186h-764z" />
<glyph unicode="2" horiz-adv-x="1284" d="M76 0q-3 212 80.5 337t312.5 251q112 61 156.5 89t68.5 54q60 60 60 152t-62 143t-174 51q-89 0 -151 -39.5t-88 -113.5q55 32 96 32q55 0 88 -35.5t33 -95.5q0 -82 -55 -135t-138 -53q-89 0 -147 66t-58 169q0 173 149 284.5t382 111.5q235 0 383.5 -111.5t148.5 -288.5 q0 -170 -135 -284q-87 -74 -291 -129q-160 -42 -225 -65.5t-103 -52t-85 -91.5q63 41 112.5 57t116.5 16q76 0 252 -40q60 -13 98 -13q59 0 85.5 39.5t27.5 130.5h182q-2 -120 -8.5 -174.5t-26.5 -101.5q-37 -92 -118 -141.5t-195 -49.5q-65 0 -128.5 16t-168.5 60 q-124 51 -184 51q-46 0 -67 -22t-21 -74h-203z" />
<glyph unicode="3" horiz-adv-x="1284" d="M84 319q0 91 57.5 151t143.5 60q80 0 131 -49t51 -125q0 -63 -37 -105t-94 -42q-19 0 -31 2q72 -72 211 -72q123 0 199 61.5t76 161.5q0 56 -28 102.5t-77 72.5q-39 21 -66 25.5t-112 4.5h-14v172q18 -2 41 -2q101 0 159 49t58 134q0 81 -65 129.5t-173 48.5 q-74 0 -122.5 -20.5t-86.5 -67.5q41 8 57 8q50 0 83.5 -36.5t33.5 -90.5q0 -71 -51.5 -120.5t-124.5 -49.5q-80 0 -134 58.5t-54 144.5q0 71 36.5 136t100.5 109q147 99 389 99q243 0 380.5 -88t137.5 -242q0 -103 -63.5 -166.5t-204.5 -103.5q155 -34 236 -114.5t81 -201.5 q0 -169 -154 -276t-397 -107q-132 0 -256 35.5t-202 95.5q-115 90 -115 219z" />
<glyph unicode="4" horiz-adv-x="1284" d="M57 354v189l639 696h326v-696h205v-189h-205l2 -61q2 -68 20.5 -87.5t83.5 -19.5h99v-186h-791v186h111q65 0 83.5 19.5t20.5 87.5l2 61h-596zM305 543h348v366z" />
<glyph unicode="5" horiz-adv-x="1284" d="M127 344q0 85 52 138t138 53q79 0 132 -47t53 -119q0 -132 -152 -150q71 -63 176 -63q115 0 185.5 80.5t70.5 212.5q0 118 -59 187t-160 69q-110 0 -176 -84h-182l39 634q204 -47 483 -47q197 0 416 29q2 -8 2 -18q0 -69 -70.5 -127t-193 -91.5t-269.5 -33.5 q-92 0 -200 18l-9 -184q78 52 133 69t146 17q221 0 369.5 -130t148.5 -323q0 -100 -47.5 -193.5t-130.5 -156.5q-71 -54 -174 -84.5t-217 -30.5q-216 0 -360 107t-144 268z" />
<glyph unicode="6" horiz-adv-x="1284" d="M96 614q0 153 42 277.5t120 204.5q79 81 204 126.5t267 45.5q186 0 306 -76.5t120 -196.5q0 -78 -55 -133t-133 -55q-72 0 -120 44.5t-48 111.5q0 106 106 124q-37 19 -62 25t-63 6q-201 0 -270 -194q-28 -82 -35 -275q63 65 131 92t166 27q190 0 316 -112t126 -281 q0 -182 -143.5 -294t-376.5 -112q-287 0 -442.5 167.5t-155.5 477.5zM500 365q0 -104 46.5 -165t125.5 -61q85 0 132.5 61t47.5 169t-45 168.5t-125 60.5q-85 0 -133.5 -62t-48.5 -171z" />
<glyph unicode="7" horiz-adv-x="1284" d="M164 647v572l192 2v-142q54 88 120.5 127t160.5 39q53 0 86 -8.5t176 -60.5q77 -25 109 -25q34 0 51.5 19.5t27.5 68.5h166q-7 -87 -30.5 -157t-72 -155.5t-159.5 -258.5q-88 -136 -120.5 -272.5t-43.5 -395.5h-383q4 99 11.5 170.5t23.5 138.5t37.5 117t58.5 105t82 105 t111 114q12 11 32.5 31.5l27.5 27.5t21.5 21t20 20t16 17t16.5 18t15 18t17.5 22t19 24t23.5 30q-56 -30 -93.5 -41.5t-76.5 -11.5q-38 0 -153.5 16t-129.5 16q-88 0 -128 -52.5t-40 -166.5v-92h-192z" />
<glyph unicode="8" horiz-adv-x="1284" d="M57 328q0 134 121 213q52 34 154 61q-110 65 -160.5 136t-50.5 163q0 79 43 150.5t121 122.5q64 43 170 68.5t215 25.5q222 0 358.5 -86t136.5 -226q0 -100 -61 -157t-172 -90q156 -57 221 -131q72 -87 72 -203q0 -92 -41.5 -170.5t-118.5 -132.5q-68 -47 -183.5 -75 t-244.5 -28q-261 0 -420.5 99t-159.5 260zM319 340q0 -89 93 -149t231 -60q114 0 186 43t72 109q0 52 -41 87.5t-141 69.5l-256 88q-90 -64 -117 -98.5t-27 -89.5zM442 963q0 -40 33.5 -66t132.5 -61l176 -62q68 39 98.5 78.5t30.5 91.5q0 71 -66.5 112.5t-180.5 41.5 q-104 0 -164 -36t-60 -99z" />
<glyph unicode="9" horiz-adv-x="1284" d="M94 864q0 180 143 292t373 112q289 0 443.5 -168.5t154.5 -483.5q0 -301 -165.5 -474t-462.5 -173q-196 0 -314.5 76t-118.5 201q0 83 51.5 135.5t133.5 52.5q76 0 123 -41.5t47 -109.5q0 -51 -24 -80.5t-79 -42.5q35 -20 60.5 -27.5t62.5 -7.5q98 0 170.5 54.5 t104.5 154.5q27 86 30 262q-53 -63 -120 -91t-168 -28q-191 0 -318 110.5t-127 276.5zM455 868q0 -103 46 -162t126 -59q89 0 135.5 58t46.5 169q0 232 -168 232q-87 0 -136.5 -63.5t-49.5 -174.5z" />
<glyph unicode=":" horiz-adv-x="489" d="M78 150q0 69 49.5 117t120.5 48q66 0 115 -49t49 -116q0 -69 -49 -118.5t-117 -49.5q-69 0 -118.5 49.5t-49.5 118.5zM78 764q0 69 49.5 117.5t120.5 48.5q66 0 115 -49.5t49 -116.5q0 -69 -49 -118.5t-117 -49.5q-69 0 -118.5 49.5t-49.5 118.5z" />
<glyph unicode=";" horiz-adv-x="505" d="M63 133q0 75 53.5 125.5t131.5 50.5q91 0 149 -62t58 -157q0 -85 -41 -162.5t-113 -130.5q-47 -35 -93 -49.5t-122 -19.5v116q160 30 184 156q-42 -18 -71 -18q-58 0 -97 43t-39 108zM66 764q0 69 49.5 117.5t120.5 48.5q66 0 114.5 -49.5t48.5 -116.5q0 -69 -49 -118.5 t-117 -49.5q-69 0 -118 49.5t-49 118.5z" />
<glyph unicode="&#x3c;" d="M53 600v197l914 460v-223l-654 -338l654 -331v-222z" />
<glyph unicode="=" d="M14 406v227h998v-227h-998zM14 760v227h998v-227h-998z" />
<glyph unicode="&#x3e;" d="M59 143v222l646 331l-646 338v223l904 -460v-197z" />
<glyph unicode="?" horiz-adv-x="1073" d="M53 985q0 74 33.5 148t93.5 129q61 57 158.5 89.5t206.5 32.5q211 0 344 -105t133 -271q0 -105 -49.5 -186.5t-161.5 -157.5q-134 -93 -175.5 -143.5t-47.5 -129.5h-199q2 106 26.5 168.5t112.5 177.5q66 88 94.5 146.5t28.5 107.5q0 83 -63 142t-154 59 q-157 0 -215 -164q60 25 96 25q65 0 107.5 -45t42.5 -115q0 -75 -54 -125.5t-135 -50.5q-97 0 -160 75.5t-63 192.5zM324 150q0 69 49.5 117t120.5 48q66 0 114.5 -49t48.5 -116q0 -69 -48.5 -118.5t-116.5 -49.5q-70 0 -119 49.5t-49 118.5z" />
<glyph unicode="@" horiz-adv-x="1503" d="M68 487q0 197 95.5 362t261 260t363.5 95q183 0 331 -78t231.5 -215.5t83.5 -308.5q0 -122 -47 -231t-125 -174.5t-164 -65.5q-59 0 -103 31t-57 82q-41 -61 -109 -96t-145 -35q-123 0 -206 92t-83 229q0 108 49 202.5t132 151t178 56.5q62 0 116 -27t82 -72l17 78 l178 -2l-76 -389q-12 -71 -12 -88q0 -31 12.5 -48t34.5 -17q62 0 116 103t54 222q0 193 -134 315.5t-345 122.5q-154 0 -281.5 -73.5t-200.5 -202t-73 -283.5q0 -229 147 -378.5t371 -149.5q176 0 319 100l97 -133q-172 -129 -408 -129q-147 0 -277 53t-223 144.5 t-146.5 220.5t-53.5 276zM600 444q0 -66 36.5 -106.5t96.5 -40.5q69 0 121.5 64.5t52.5 150.5q0 64 -36 104.5t-93 40.5q-71 0 -124.5 -64t-53.5 -149z" />
<glyph unicode="A" horiz-adv-x="1505" d="M-39 0v186h66q64 0 92.5 28t60.5 124l348 1028h476l317 -1028q13 -44 31.5 -82t31.5 -49q28 -21 93 -21h67v-186h-778v186h80q60 0 79 9t19 38q0 28 -26 105l-35 106h-420l-35 -106q-29 -86 -29 -100q0 -28 22.5 -40t74.5 -12h88v-186h-623zM518 621h309l-149 460z" />
<glyph unicode="B" horiz-adv-x="1574" d="M68 0v186h114q69 0 88 25q13 16 16 39.5t3 128.5v608q0 105 -3 128.5t-16 39.5q-19 25 -88 25h-114v186h985q80 0 132 -11t101 -38q156 -87 156 -275q0 -126 -71.5 -204.5t-227.5 -122.5q85 -12 134 -27.5t95 -44.5q148 -94 148 -268q0 -100 -44.5 -180.5t-125.5 -126.5 q-72 -41 -159.5 -54.5t-285.5 -13.5h-837zM688 186h125q89 0 130.5 9.5t72.5 35.5q32 28 50.5 75t18.5 100q0 58 -25.5 108.5t-66.5 75.5q-30 18 -64 23t-124 5h-117v-432zM688 799h117q129 0 183 43.5t54 146.5q0 101 -55 146t-178 45h-121v-381z" />
<glyph unicode="C" horiz-adv-x="1452" d="M66 676q0 382 245 575q183 146 451 146q90 0 152 -13.5t111.5 -44t100.5 -86.5l29 113h209v-530h-209q-3 172 -79 269t-228 97q-158 0 -245 -132.5t-87 -375.5q0 -256 87 -393t249 -137q97 0 166 47t104 137q27 67 33 201h209q0 -86 -10.5 -143t-36.5 -119 q-69 -161 -206.5 -239.5t-352.5 -78.5q-137 0 -240 29.5t-192 93.5q-126 92 -193 242.5t-67 341.5z" />
<glyph unicode="D" horiz-adv-x="1708" d="M68 0v186h114q69 0 88 25q13 16 16 39.5t3 128.5v608q0 105 -3 128.5t-16 39.5q-19 25 -88 25h-114v186h847q173 0 280.5 -29.5t203.5 -101.5q241 -184 241 -539q0 -214 -88 -373t-252 -241q-165 -82 -438 -82h-794zM688 186h135q103 0 169 26.5t112 86.5q48 62 67 147.5 t19 239.5q0 177 -27 277.5t-90 154.5q-41 35 -96 48.5t-156 13.5h-133v-994z" />
<glyph unicode="E" horiz-adv-x="1576" d="M68 0v186h114q69 0 88 25q13 16 16 39.5t3 128.5v608q0 105 -3 128.5t-16 39.5q-19 25 -88 25h-114v186h1407v-526h-215q0 288 -183 331q-37 9 -119 9h-270v-387h70q107 0 141 86q14 38 14 127h181v-615h-181v41q0 95 -37.5 136.5t-123.5 41.5h-64v-424h225q109 0 130 1 t49 10q49 13 89.5 58.5t55.5 102.5q18 67 23 201h215v-559h-1407z" />
<glyph unicode="F" horiz-adv-x="1464" d="M68 0v186h114q69 0 88 25q13 16 16 39.5t3 128.5v608q0 105 -3 128.5t-16 39.5q-19 25 -88 25h-114v186h1400v-532h-213v26q0 132 -45 217q-31 59 -81.5 81t-153.5 22h-287v-389h76q158 0 158 190v23h180v-621h-180q0 89 -5.5 119t-25.5 55q-23 29 -51 40t-74 11h-78 v-229q0 -105 3 -128.5t16 -39.5q19 -25 88 -25h114v-186h-841z" />
<glyph unicode="G" horiz-adv-x="1611" d="M68 680q0 323 190.5 520t503.5 197q141 0 224 -32t140 -108l33 109h213v-520h-213q-9 93 -23 142.5t-44 94.5q-37 57 -99 88t-137 31q-164 0 -251 -137.5t-87 -396.5q0 -149 32 -249t103 -171q84 -84 201 -84q85 0 125.5 38t40.5 117v19q0 105 -3 128.5t-16 39.5 q-18 24 -88 24h-86v187h746v-187h-62q-70 0 -88 -24q-13 -16 -15.5 -39t-2.5 -129v-338h-180l-41 113q-118 -144 -389 -144q-291 0 -471 137q-122 94 -189 243.5t-67 330.5z" />
<glyph unicode="H" horiz-adv-x="1828" d="M68 0v186h114q69 0 88 25q13 16 16 39.5t3 128.5v608q0 105 -3 128.5t-16 39.5q-19 25 -88 25h-114v186h796v-186h-69q-69 0 -88 -25q-13 -16 -16 -39.5t-3 -128.5v-186h451v186q0 105 -3 128.5t-16 39.5q-19 25 -88 25h-69v186h796v-186h-114q-70 0 -89 -25 q-13 -16 -15.5 -39t-2.5 -129v-608q0 -106 2.5 -129t15.5 -39q19 -25 89 -25h114v-186h-796v186h69q69 0 88 25q13 19 16 42t3 126v235h-451v-235q0 -103 3 -126t16 -42q19 -25 88 -25h69v-186h-796z" />
<glyph unicode="I" horiz-adv-x="970" d="M68 0v186h114q69 0 88 25q13 16 16 39.5t3 128.5v608q0 105 -3 128.5t-16 39.5q-19 25 -88 25h-114v186h833v-186h-115q-69 0 -88 -25q-13 -16 -15.5 -39t-2.5 -129v-608q0 -106 2.5 -129t15.5 -39q19 -25 88 -25h115v-186h-833z" />
<glyph unicode="J" horiz-adv-x="1255" d="M-14 344q0 110 63.5 182t161.5 72q81 0 135.5 -54t54.5 -134q0 -72 -44 -119t-111 -47q-35 0 -86 26q32 -57 79 -81.5t123 -24.5q146 0 197 82q35 52 35 223v518q0 105 -3 128.5t-16 39.5q-19 25 -88 25h-114v186h850v-186h-123q-69 0 -88 -25q-13 -16 -16 -39.5 t-3 -128.5v-569q0 -118 -23.5 -190.5t-80.5 -129.5q-126 -129 -375 -129q-246 0 -387 100.5t-141 274.5z" />
<glyph unicode="K" horiz-adv-x="1742" d="M68 0v186h114q69 0 88 25q13 19 16 42t3 126v608q0 105 -3 128.5t-16 39.5q-19 25 -88 25h-114v186h796v-186h-69q-69 0 -88 -25q-13 -16 -16 -39.5t-3 -128.5v-260l410 365q45 40 45 59q0 29 -51 29h-125v186h737v-188h-72q-64 0 -104 -21t-135 -104l-215 -189l335 -559 q53 -87 75 -103t89 -16h72v-186h-782v186h77q40 0 55 7.5t15 27.5q0 18 -29 66l-200 323l-197 -180v-51q0 -102 3 -125.5t14 -42.5q22 -25 90 -25h71v-186h-798z" />
<glyph unicode="L" horiz-adv-x="1380" d="M68 0v186h114q69 0 88 25q13 16 16 39.5t3 128.5v608q0 105 -3 128.5t-16 39.5q-19 25 -88 25h-114v186h841v-186h-114q-69 0 -88 -25q-13 -16 -16 -39.5t-3 -128.5v-801h244q83 0 128.5 22t80.5 79q28 46 40 106t15 166h205v-559h-1333z" />
<glyph unicode="M" horiz-adv-x="2160" d="M68 0v186h114q69 0 88 25q13 19 16 42t3 126v608q0 105 -3 128.5t-16 39.5q-19 25 -88 25h-114v186h796l215 -829l217 829h797v-186h-115q-69 0 -88 -25q-13 -16 -15.5 -39t-2.5 -129v-608q0 -105 2.5 -127.5t15.5 -40.5q19 -25 88 -25h115v-186h-797v186h70q69 0 88 25 q13 16 16 39.5t3 128.5v766l-314 -1145h-321l-318 1145v-766q0 -105 3 -128.5t16 -39.5q19 -25 88 -25h69v-186h-628z" />
<glyph unicode="N" horiz-adv-x="1767" d="M68 0v186h114q69 0 88 25q13 19 16 42t3 126v608q0 105 -3 128.5t-16 39.5q-19 25 -88 25h-114v186h686l520 -944v565q0 105 -3 128.5t-16 39.5q-19 25 -88 25h-125v186h684v-186h-114q-69 0 -88 -25q-13 -16 -16 -39.5t-3 -128.5v-987h-442l-543 995v-616q0 -103 3 -126 t16 -42q19 -25 88 -25h127v-186h-686z" />
<glyph unicode="O" horiz-adv-x="1607" d="M68 680q0 181 64 329t183 242q190 146 488 146q352 0 543.5 -187.5t191.5 -533.5q0 -322 -197.5 -514.5t-529.5 -192.5q-343 0 -543 191.5t-200 519.5zM518 674q0 -271 60 -385q72 -137 225 -137q83 0 144 42t93 121q47 118 47 363q0 275 -65.5 399.5t-210.5 124.5 q-151 0 -222 -128t-71 -400z" />
<glyph unicode="P" horiz-adv-x="1476" d="M68 0v186h114q69 0 88 25q13 16 16 39.5t3 128.5v608q0 105 -3 128.5t-16 39.5q-19 25 -88 25h-114v186h905q135 0 199.5 -10.5t132.5 -42.5q93 -44 142.5 -126.5t49.5 -193.5q0 -104 -44.5 -188.5t-127.5 -136.5q-70 -43 -142.5 -57.5t-224.5 -14.5h-270v-217 q0 -105 3 -128.5t16 -39.5q19 -25 88 -25h114v-186h-841zM688 782h146q130 0 190.5 49.5t60.5 155.5q0 101 -60.5 147t-195.5 46h-141v-398z" />
<glyph unicode="Q" horiz-adv-x="1712" d="M68 678q0 332 199 525.5t540 193.5q318 0 502 -158q106 -92 166.5 -242t60.5 -321q0 -128 -29.5 -232.5t-93.5 -205.5q51 -39 103 -39q37 0 60 32t23 84q0 1 -4 47h117q4 -90 4 -102q0 -177 -53 -254q-26 -41 -76 -64.5t-110 -23.5q-74 0 -138 30t-145 103 q-125 -47 -210.5 -64.5t-197.5 -17.5q-277 0 -454 129q-127 91 -195.5 241.5t-68.5 338.5zM518 684q0 -141 29 -311q11 91 28 131q26 62 85.5 98.5t132.5 36.5q74 0 140.5 -29.5t141.5 -95.5q10 110 10 188q0 263 -68 387.5t-212 124.5q-287 0 -287 -530zM625 305 q0 -66 50.5 -109.5t125.5 -43.5q52 0 94.5 19.5t95.5 66.5q-46 50 -73 73q-69 63 -108 84t-81 21q-46 0 -75 -31t-29 -80z" />
<glyph unicode="R" horiz-adv-x="1652" d="M68 0v186h114q69 0 88 25q13 16 16 39.5t3 128.5v608q0 105 -3 128.5t-16 39.5q-19 25 -88 25h-114v186h913q164 0 234 -14t135 -60q133 -94 133 -256q0 -83 -39.5 -154.5t-108.5 -111.5q-58 -36 -188 -57q155 -23 208.5 -80.5t53.5 -198.5v-141q0 -68 12.5 -94.5 t44.5 -26.5q36 0 47 31t11 131v49h133q1 -20 2 -43.5t1.5 -37t0.5 -23.5q0 -148 -81.5 -229t-231.5 -81q-348 0 -342 406l2 133q0 75 -47 98q-24 12 -103 12h-170v-239q0 -103 3 -126t16 -42q19 -25 88 -25h114v-186h-841zM688 797l139 -2q81 -1 117.5 5t63.5 25 q31 22 49 66t18 98q0 103 -51 147t-170 44h-166v-383z" />
<glyph unicode="S" horiz-adv-x="1413" d="M82 0v528h207q17 -94 48 -147.5t97 -106.5q141 -110 328 -110q101 0 161 41t60 110q0 72 -56.5 110.5t-199.5 66.5q-171 32 -272.5 63t-184.5 76q-188 101 -188 332q0 201 151.5 317.5t415.5 116.5q144 0 243 -32.5t189 -107.5l39 109h183v-510h-201q-11 84 -36.5 138 t-76.5 98q-53 46 -129.5 72t-159.5 26q-114 0 -181.5 -41t-67.5 -109q0 -61 55.5 -93.5t212.5 -61.5q200 -37 289.5 -65.5t171.5 -80.5q86 -54 132 -141t46 -195q0 -204 -150 -323q-75 -58 -170.5 -84.5t-230.5 -26.5q-156 0 -264 29.5t-232 105.5l-39 -104h-190z" />
<glyph unicode="T" horiz-adv-x="1355" d="M-12 834v532h1380v-532h-219v49q0 297 -229 297h-43v-801q0 -106 2.5 -129t15.5 -39q19 -25 88 -25h115v-186h-850v186h114q70 0 89 25q13 16 15.5 39t2.5 129v801q-137 3 -203 -82t-65 -264h-213z" />
<glyph unicode="U" horiz-adv-x="1652" d="M35 1180v186h833v-186h-106q-69 0 -88 -25q-13 -16 -16 -39.5t-3 -128.5v-477q0 -122 5.5 -164.5t27.5 -79.5q28 -47 87.5 -74.5t137.5 -27.5q149 0 205 80q26 37 36.5 95t10.5 171v477q0 106 -2.5 129t-15.5 39q-19 25 -88 25h-98v186h657v-186h-115q-69 0 -88 -25 q-13 -16 -15.5 -39t-2.5 -129v-547q0 -124 -25 -198.5t-88 -137.5q-69 -70 -173.5 -102.5t-262.5 -32.5q-363 0 -502 164q-51 58 -70.5 126t-19.5 181v547q0 106 -2.5 129t-15.5 39q-19 25 -88 25h-115z" />
<glyph unicode="V" horiz-adv-x="1443" d="M-31 1180v186h793v-186h-98q-55 0 -73 -10t-18 -40q0 -14 17 -73l215 -748l223 764q14 54 14 66q1 25 -19 33t-81 8h-86v186h619v-186h-62q-37 0 -57.5 -5.5t-40 -29t-34 -60.5t-36.5 -108l-303 -977h-434l-299 977q-16 52 -25.5 81t-22 55t-22 36.5t-26.5 19t-34 10 t-46 1.5h-64z" />
<glyph unicode="W" horiz-adv-x="2097" d="M-45 1180v186h707v-186h-56q-35 0 -49 -8.5t-14 -30.5q0 -9 10 -51l217 -781l197 645l-15 62q-19 77 -27.5 98.5t-25.5 36.5q-26 29 -84 29h-51v186h704v-186h-84q-37 0 -53 -10t-16 -35q0 -18 6 -45l197 -781l198 754q8 27 8 59q0 34 -16.5 46t-62.5 12h-82v186h581 v-186h-59q-62 0 -91 -32.5t-57 -131.5l-278 -1016h-430l-156 559l-164 -559h-432l-297 1016q-31 105 -58 134.5t-93 29.5h-74z" />
<glyph unicode="X" horiz-adv-x="1521" d="M-14 0v186h82q63 0 108 32.5t129 135.5l236 291l-275 385q-18 24 -34 46.5t-22 31.5t-12.5 17.5t-10.5 12t-11 9.5q-41 33 -90 33h-74v186h760v-186h-65q-29 0 -41.5 -7t-12.5 -24t27 -59l133 -197l154 197q28 36 28 57q0 14 -16 23.5t-43 9.5h-70v186h600v-186h-59 q-62 0 -102 -31q-37 -32 -105 -115l-231 -280l295 -404q63 -86 76 -103t28 -30q34 -31 98 -31h70v-186h-807v186h84q41 0 57.5 7t16.5 26q0 13 -21 47l-159 244l-185 -244q-26 -33 -26 -51q0 -29 45 -29h96v-186h-651z" />
<glyph unicode="Y" horiz-adv-x="1447" d="M-29 1180v186h811v-186h-86q-71 0 -71 -35q0 -12 22 -55l174 -318l180 318q25 43 25 59q0 14 -17 22.5t-46 8.5h-89v186h605v-186h-78q-63 0 -98 -47q-16 -16 -82 -119l-308 -479v-156q0 -105 3 -128.5t16 -39.5q19 -25 88 -25h133v-186h-858v186h133q69 0 88 25 q13 19 16 42t3 126v156l-302 479q-22 35 -40.5 65t-24 39t-11 16t-14.5 15q-34 31 -94 31h-78z" />
<glyph unicode="Z" horiz-adv-x="1400" d="M74 0v233l774 932h-289q-91 0 -136 -28t-79 -105q-35 -80 -35 -201h-205v535h1227v-201l-805 -979h281q110 0 167.5 25t92.5 88q25 41 35.5 95t13.5 153h215v-547h-1257z" />
<glyph unicode="[" horiz-adv-x="741" d="M117 -401v1767h571v-170h-211v-1429h211v-168h-571z" />
<glyph unicode="\" horiz-adv-x="800" d="M84 1366h213l545 -1788h-217z" />
<glyph unicode="]" horiz-adv-x="741" d="M55 -233h211v1429h-211v170h572v-1767h-572v168z" />
<glyph unicode="^" d="M10 567l387 807h230l387 -807h-248l-254 516l-254 -516h-248z" />
<glyph unicode="_" d="M0 -94h1024v-162h-1024v162z" />
<glyph unicode="`" d="M182 1352q0 22 17 30.5t59 8.5h238l114 -326h-139l-260 240q-29 29 -29 47z" />
<glyph unicode="a" horiz-adv-x="1226" d="M86 236q0 127 92 188q37 26 84 40.5t152 35.5q168 31 225 69t57 119q0 69 -59 109.5t-160 40.5q-63 0 -105 -14t-77 -48q41 8 65 8q50 0 79.5 -29.5t29.5 -80.5q0 -57 -42 -92t-110 -35q-79 0 -131.5 47.5t-52.5 118.5q0 51 27 98t73 76q118 76 361 76q157 0 247.5 -26.5 t137.5 -86.5q37 -47 49 -98.5t12 -161.5v-324q0 -66 9.5 -89t35.5 -23q31 0 42.5 27t11.5 98q0 34 -2 63h102q6 -105 6 -137q0 -60 -11.5 -97t-39.5 -65q-71 -74 -223 -74q-132 0 -209 58q-45 33 -60 106q-41 -85 -113.5 -124.5t-185.5 -39.5q-150 0 -233.5 70.5 t-83.5 196.5zM436 258q0 -46 31 -75t80 -29q64 0 103.5 43t39.5 112v164q-33 -30 -52 -43t-52 -27q-65 -29 -83.5 -39.5t-31.5 -23.5q-35 -35 -35 -82z" />
<glyph unicode="b" horiz-adv-x="1280" d="M29 1190v176h499v-563q66 88 133 124t162 36q97 0 179 -42.5t133 -119.5q79 -118 79 -318q0 -249 -106.5 -381.5t-304.5 -132.5q-158 0 -250 66q-42 31 -84 96l-53 -143h-246v1013q0 120 -2.5 142.5t-15.5 34.5q-15 12 -78 12h-45zM520 459q0 -141 43 -223t117 -82 q158 0 158 321q0 149 -39.5 226t-114.5 77t-119.5 -86.5t-44.5 -232.5z" />
<glyph unicode="c" horiz-adv-x="1091" d="M68 473q0 223 139 356.5t371 133.5q192 0 316 -93.5t124 -238.5q0 -92 -58 -152.5t-147 -60.5q-75 0 -126.5 46.5t-51.5 115.5q0 58 38 101.5t89 43.5q9 0 37 -4q-34 31 -66 44t-74 13q-104 0 -159.5 -82.5t-55.5 -238.5q0 -148 50 -225.5t145 -77.5q151 0 160 202h215 q-25 -199 -127.5 -293t-296.5 -94q-241 0 -381.5 136t-140.5 368z" />
<glyph unicode="d" horiz-adv-x="1290" d="M68 465q0 132 37 242t102 170q92 86 242 86q104 0 174 -39t137 -136v213q0 116 -3 141t-16 36q-15 12 -77 12h-74v176h520v-1006q0 -116 2.5 -139.5t15.5 -36.5q15 -12 74 -12h66v-172h-508v147q-47 -98 -111.5 -138t-173.5 -40q-189 0 -298 133.5t-109 362.5zM434 453 q0 -142 41.5 -220.5t116.5 -78.5q79 0 125.5 87t46.5 236q0 138 -45.5 219.5t-122.5 81.5t-119.5 -85t-42.5 -240z" />
<glyph unicode="e" horiz-adv-x="1130" d="M68 473q0 217 138.5 354.5t358.5 137.5q243 0 368 -138t128 -411h-629v-35q0 -104 50 -165.5t136 -61.5q154 0 175 170h251q-44 -174 -165 -264.5t-310 -90.5q-209 0 -336 115q-78 70 -121.5 173t-43.5 216zM434 573h283q-5 94 -23 140q-13 31 -44 49t-68 18 q-69 0 -103 -48t-45 -159z" />
<glyph unicode="f" horiz-adv-x="813" d="M72 0v178h65q65 0 80 15q5 5 7 8.5t4.5 12t3 27.5t1 47t0.5 79v389h-161v178h161v113q0 348 396 348q100 0 175.5 -27.5t117 -78.5t41.5 -118q0 -69 -44.5 -111t-115.5 -42q-32 0 -59 9t-45.5 24.5t-29 38t-10.5 49.5q0 31 10 52t31.5 35.5t59.5 26.5q-30 13 -53 13 q-65 0 -99.5 -36.5t-34.5 -103.5q0 -22 11 -192h176v-178h-176v-389q0 -122 2.5 -144.5t15.5 -32.5q15 -12 80 -12h76v-178h-686z" />
<glyph unicode="g" horiz-adv-x="1265" d="M37 -236q0 57 38 92t126 58q-75 38 -105 79.5t-30 106.5q0 80 41.5 126.5t136.5 72.5q-82 66 -115 126.5t-33 147.5q0 169 128.5 279.5t326.5 110.5q99 0 169 -22t157 -79q62 65 105 88t103 23q95 0 157.5 -56t62.5 -141q0 -67 -38 -109t-98 -42q-56 0 -91.5 37.5 t-35.5 95.5q0 51 45 104q-32 4 -36 4q-35 0 -61.5 -14t-57.5 -49q39 -63 54 -108.5t15 -102.5q0 -164 -127 -268.5t-327 -104.5q-115 0 -242 41q-29 -26 -29 -53q0 -92 207 -86l289 10q98 3 164 -14.5t121 -57.5q43 -34 67.5 -87t24.5 -113q0 -63 -26 -118t-72 -87 q-127 -88 -445 -88q-292 0 -430.5 48.5t-138.5 149.5zM299 -211q0 -84 315 -84q176 0 250 33q43 18 43 55q0 42 -72.5 58t-263.5 16q-150 0 -211 -17.5t-61 -60.5zM430 582q0 -117 30.5 -181.5t86.5 -64.5q59 0 90 65t31 189q0 136 -27.5 198t-87.5 62t-91.5 -68.5 t-31.5 -199.5z" />
<glyph unicode="h" horiz-adv-x="1386" d="M55 0v178h70q62 0 80 15q11 11 13.5 35t2.5 139v634q0 117 -2.5 141.5t-15.5 35.5q-15 12 -78 12h-70v176h516v-559q53 82 130.5 119t197.5 37q199 0 281 -105q32 -39 40.5 -82.5t8.5 -161.5v-247q0 -122 2.5 -144.5t15.5 -32.5q12 -12 78 -12h55v-178h-614v178h10 q63 0 78 15q11 11 13.5 35t2.5 139v143q0 120 -5 159.5t-23 63.5q-36 45 -113 45q-75 0 -116.5 -46t-41.5 -132v-233q0 -83 2 -116.5t5.5 -43t13.5 -17.5q12 -12 78 -12h22v-178h-637z" />
<glyph unicode="i" horiz-adv-x="749" d="M68 0v178h69q43 0 58 3.5t24 15.5q10 11 12 34.5t2 135.5v200q0 117 -2.5 141t-15.5 35q-16 13 -78 13h-69v178h516v-567q0 -122 2.5 -144.5t15.5 -32.5q15 -12 76 -12h63v-178h-673zM213 1192q0 78 55 132t135 54q75 0 130 -55.5t55 -130.5q0 -78 -55.5 -133t-133.5 -55 q-77 0 -131.5 55t-54.5 133z" />
<glyph unicode="j" horiz-adv-x="774" d="M-127 -203q0 75 49 123.5t125 48.5q69 0 110.5 -39t41.5 -106q0 -46 -16 -74.5t-56 -54.5q25 -10 41 -10q47 0 74.5 37.5t27.5 103.5q0 17 -3 76t-3 63v602q0 121 -2 143t-16 33q-16 13 -78 13h-80v178h526v-969q0 -109 -7.5 -157t-31.5 -93q-40 -75 -129 -117t-210 -42 q-161 0 -262 67t-101 174zM250 1194q0 76 56 131t134 55q76 0 131.5 -55.5t55.5 -132.5q0 -78 -55.5 -133t-133.5 -55t-133 55.5t-55 134.5z" />
<glyph unicode="k" horiz-adv-x="1382" d="M55 0v178h70q65 0 80 15q12 10 14 32t2 142v634q0 122 -2.5 144.5t-15.5 32.5q-15 12 -78 12h-70v176h516v-874l248 213q17 14 17 26q0 25 -50 25h-90v178h627v-178h-90q-42 0 -68.5 -10t-62.5 -39l-111 -91l213 -346q32 -53 64.5 -72.5t87.5 -19.5h61v-178h-669v178h57 q17 0 28 7t11 18q0 9 -4.5 17.5t-30.5 49.5l-84 136l-154 -136q0 -60 11.5 -76t52.5 -16h35v-178h-615z" />
<glyph unicode="l" horiz-adv-x="751" d="M55 0v178h70q65 0 80 15q12 10 14 32t2 142v634q0 122 -2.5 144.5t-15.5 32.5q-15 12 -78 12h-70v176h516v-999q0 -116 3 -141t16 -36q12 -12 78 -12h63v-178h-676z" />
<glyph unicode="m" horiz-adv-x="1968" d="M68 0v178h67q68 0 82 19q11 12 12.5 33.5t1.5 136.5v200q0 121 -2 143t-16 33q-16 13 -78 13h-67v178h507v-158q27 53 50.5 81t58.5 50q83 58 213 58q80 0 143.5 -24.5t98.5 -68.5q27 -38 47 -96q47 97 124.5 143t192.5 46q97 0 168.5 -32.5t102.5 -90.5q21 -39 26.5 -84 t5.5 -166v-225q0 -120 2.5 -143t16.5 -34q15 -12 78 -12h57v-178h-606v178h32q39 0 52 19q14 20 14 61v326q0 70 -3.5 98t-14.5 47q-15 25 -44 39t-63 14q-73 0 -113 -59q-17 -26 -22.5 -54.5t-5.5 -84.5v-316q0 -55 12.5 -72.5t52.5 -17.5h31v-178h-541v178h39q38 0 51 19 q15 21 15 61v326q0 110 -28 153t-99 43q-144 0 -144 -196v-316q0 -61 16 -75.5t81 -14.5v-178h-604z" />
<glyph unicode="n" horiz-adv-x="1378" d="M68 0v176h63q66 0 80 14q12 12 14 34.5t2 142.5v200q0 121 -2.5 143.5t-15.5 34.5q-16 13 -78 13h-63v176h505v-135q67 95 137.5 130.5t190.5 35.5q100 0 171.5 -28t105.5 -81q28 -43 35.5 -91t7.5 -181v-217q0 -122 2.5 -144.5t15.5 -34.5q15 -12 78 -12h53v-176h-608 v176h8q66 0 80 14q11 13 13.5 37.5t2.5 139.5v215q0 57 -4 81.5t-16 49.5q-36 67 -119 67q-72 0 -113 -52.5t-41 -145.5v-215q0 -119 2.5 -143t16.5 -36q15 -12 78 -12h14v-176h-616z" />
<glyph unicode="o" horiz-adv-x="1210" d="M68 465q0 229 143.5 363.5t390.5 134.5q249 0 395 -134.5t146 -361.5q0 -120 -49.5 -222.5t-139.5 -170.5q-136 -105 -350 -105q-122 0 -211.5 30t-165.5 95q-159 141 -159 371zM442 459q0 -167 38.5 -243.5t121.5 -76.5q86 0 126 84.5t40 268.5q0 160 -36.5 230.5 t-119.5 70.5q-170 0 -170 -334z" />
<glyph unicode="p" horiz-adv-x="1310" d="M27 -246h77q65 0 80 15q12 11 14.5 33.5t2.5 140.5v624q0 119 -2.5 142t-16.5 34q-15 15 -78 15h-63v176h510v-143q56 94 125 134t176 40q183 0 286 -130.5t103 -361.5q0 -134 -34 -242t-97 -172q-87 -90 -254 -90q-108 0 -172.5 33t-132.5 123v-182q0 -121 2.5 -143.5 t15.5 -32.5q16 -13 78 -13h58v-176h-678v176zM553 438q0 -141 42 -220t116 -79q155 0 155 316q0 169 -36.5 247t-114.5 78q-77 0 -119.5 -89t-42.5 -253z" />
<glyph unicode="q" horiz-adv-x="1302" d="M68 457q0 232 113.5 370t305.5 138q98 0 158 -34.5t119 -123.5v127h510v-176h-64q-65 0 -80 -15q-11 -13 -13.5 -37t-2.5 -139v-624q0 -115 3 -140t16 -36q16 -13 77 -13h64v-176h-682v176h76q65 0 80 15q12 12 14 33.5t2 140.5v190q-60 -89 -128 -126.5t-171 -37.5 q-183 0 -290 131t-107 357zM442 446q0 -292 158 -292q83 0 126.5 82.5t43.5 240.5q0 303 -168 303q-77 0 -118.5 -86t-41.5 -248z" />
<glyph unicode="r" horiz-adv-x="1003" d="M68 0v178h73q65 0 80 15q12 11 14.5 33.5t2.5 140.5v200q0 119 -2.5 142t-16.5 34q-13 13 -78 13h-73v178h510v-178q43 89 81 135q61 74 162 74q94 0 149.5 -60.5t55.5 -161.5q0 -90 -48 -145t-126 -55q-69 0 -112.5 42.5t-43.5 108.5q0 51 21.5 80.5t68.5 44.5 q-28 8 -38 8q-32 1 -70.5 -30t-63.5 -78q-36 -68 -36 -223v-129q0 -122 2.5 -144.5t15.5 -32.5q12 -12 78 -12h69v-178h-675z" />
<glyph unicode="s" horiz-adv-x="1085" d="M66 653q0 145 121 228.5t331 83.5q94 0 159 -18t144 -64l19 51h143v-313h-162q-40 174 -262 174q-135 0 -135 -82q0 -28 35.5 -49t118.5 -41q146 -37 220 -63.5t130 -61.5q47 -31 73.5 -82.5t26.5 -114.5q0 -149 -114 -240.5t-300 -91.5q-108 0 -192 24.5t-166 80.5 l-18 -74h-162v340h162q17 -51 41 -83t65 -58q94 -60 209 -60q63 0 98 20.5t35 55.5q0 31 -30 49.5t-115 40.5q-152 40 -216.5 62.5t-121.5 56.5q-66 38 -101.5 98t-35.5 131z" />
<glyph unicode="t" horiz-adv-x="952" d="M39 756v166q297 21 297 395h239v-383h246v-178h-246v-406q0 -114 16 -155t60 -41q43 0 60.5 39t17.5 137v131h174v-101q0 -121 -12.5 -178t-50.5 -108q-77 -105 -260 -105q-191 0 -283 103q-42 46 -57 104t-15 174v406h-186z" />
<glyph unicode="u" horiz-adv-x="1316" d="M6 756v178h496v-580q0 -115 30 -159.5t105 -44.5q83 0 122.5 50t39.5 154v213q0 119 -2.5 142t-16.5 34q-16 13 -78 13h-73v178h512v-567q0 -122 2.5 -144.5t15.5 -32.5q15 -12 78 -12h72v-178h-510v137q-89 -168 -320 -168q-184 0 -260 92q-39 47 -49 95t-10 188v223 q0 115 -3 140t-16 36q-16 13 -78 13h-57z" />
<glyph unicode="v" horiz-adv-x="1191" d="M-6 756v178h657v-178h-67q-40 0 -55 -7.5t-15 -29.5q0 -17 12 -51l154 -455l158 455q10 33 10 53t-11 27.5t-40 7.5h-72v178h473v-178h-45q-57 0 -84 -25.5t-55 -105.5l-217 -625h-406l-213 625q-28 82 -52 106.5t-77 24.5h-55z" />
<glyph unicode="w" horiz-adv-x="1705" d="M-10 758v176h598v-176h-31q-35 0 -49 -8.5t-14 -28.5q0 -23 4 -33l120 -457l134 457q8 27 8 41q0 29 -51 29h-47v176h567v-176h-45q-56 0 -56 -35q0 -12 7 -35l122 -457l132 457q6 24 6 35q0 35 -45 35h-47v176h409v-176h-41q-55 0 -73 -20.5t-46 -114.5l-180 -623h-387 l-129 453l-127 -453h-383l-180 623q-23 78 -48 106.5t-69 28.5h-59z" />
<glyph unicode="x" horiz-adv-x="1263" d="M2 0v178h72q51 0 80 16.5t110 92.5l174 164l-209 219q-82 88 -153 88h-53v176h661v-176h-37q-20 0 -27.5 -4t-7.5 -15q0 -15 19 -34l86 -89l106 93q15 15 15 28q0 21 -35 21h-45v176h489v-176h-47q-56 0 -83.5 -13t-94.5 -71l-199 -170l207 -217q74 -78 99.5 -93.5 t78.5 -15.5h54v-178h-680v178h30q50 0 50 23q0 11 -15 30l-100 111l-109 -109q-16 -16 -16 -30q0 -25 35 -25h43v-178h-498z" />
<glyph unicode="y" horiz-adv-x="1222" d="M0 756v178h690v-178h-76q-35 0 -47 -6t-12 -23q0 -13 14 -49l148 -373l160 373q12 32 12 45q0 18 -13.5 25.5t-44.5 7.5h-73v178h473v-178h-55q-43 0 -67 -24t-60 -107l-318 -705q-101 -223 -192 -291q-100 -71 -238 -71q-132 0 -211.5 66.5t-79.5 178.5q0 91 54 149 t139 58q73 0 119.5 -42.5t46.5 -110.5q0 -63 -36.5 -102.5t-94.5 -39.5q-21 0 -33 2q45 -32 90 -32q67 0 121 54t114 181l-323 705q-39 84 -51 100q-25 31 -80 31h-76z" />
<glyph unicode="z" horiz-adv-x="1036" d="M53 0v213l490 543h-142q-101 0 -127 -54q-11 -22 -14 -48t-6 -119h-178v399h905v-178l-510 -578h127q67 0 104 10.5t62 36.5q22 23 29.5 54t7.5 94v71h180v-444h-928z" />
<glyph unicode="{" d="M145 381v188q65 14 89 53.5t24 131.5v317q0 160 71.5 227.5t241.5 67.5q44 0 228 -4v-184l-39 2q-90 6 -127 -19q-15 -8 -21 -14t-10.5 -26t-5 -46t-0.5 -86v-256q0 -103 -25 -155t-98 -103q70 -44 96.5 -100t26.5 -158v-254q0 -94 1 -112t9 -33q13 -26 46.5 -35.5 t107.5 -9.5h39v-183q-188 -6 -232 -6q-167 0 -238 68t-71 229v318q0 89 -25 129.5t-88 52.5z" />
<glyph unicode="|" d="M395 -342v1708h236v-1708h-236z" />
<glyph unicode="}" d="M225 -227h39q100 0 127 18q15 8 21 13t10.5 25.5t5 46.5t0.5 87v254q0 102 26.5 158t96.5 100q-73 51 -98 103t-25 155v256q0 94 -1.5 112.5t-8.5 33.5q-29 53 -154 45l-39 -2v184q132 4 230 4q169 0 240 -67.5t71 -227.5v-317q0 -92 24 -131.5t89 -53.5v-188 q-63 -12 -88 -52.5t-25 -129.5v-318q0 -161 -71 -229t-240 -68q-87 0 -230 6v183z" />
<glyph unicode="~" horiz-adv-x="1359" d="M182 1300q75 135 140 190.5t149 55.5q43 0 96 -16t148 -57q101 -44 129 -54t53 -10q46 0 84.5 35t89.5 123l109 -123q-77 -131 -139 -182.5t-144 -51.5q-42 0 -79.5 13t-231.5 94q-73 31 -113 31q-52 0 -91 -36.5t-93 -135.5z" />
<glyph unicode="&#xa1;" horiz-adv-x="636" d="M123 -201q0 49 5 90.5t34 237.5q22 137 47 395h190q17 -142 36.5 -252t66.5 -338q12 -59 12 -135q0 -116 -50.5 -181t-141.5 -65t-145 67t-54 181zM137 791q0 69 49.5 117t120.5 48q66 0 115 -49t49 -116q0 -69 -49 -118.5t-117 -49.5q-70 0 -119 49.5t-49 118.5z" />
<glyph unicode="&#xa2;" horiz-adv-x="1284" d="M170 670q0 135 52 242.5t147 172.5q93 62 233 80v129h137v-129q172 -19 272.5 -106t100.5 -217q0 -95 -54 -153t-145 -58q-78 0 -129 45.5t-51 114.5q0 62 38 106t93 41l37 -2q-28 32 -56 44.5t-75 12.5q-121 0 -175 -75t-54 -244q0 -161 49.5 -239.5t150.5 -78.5 q82 0 120 48t40 151h209q8 -152 -91.5 -249.5t-279.5 -112.5v-154h-137v154q-432 67 -432 477z" />
<glyph unicode="&#xa3;" horiz-adv-x="1284" d="M125 178q109 75 147.5 124.5t38.5 113.5q0 81 -57 164h-129v133h63q-47 97 -47 172q0 167 156.5 275t400.5 108q239 0 394 -101t155 -258q0 -91 -55 -149t-141 -58q-77 0 -132 51.5t-55 123.5q0 58 39 96.5t98 38.5q21 0 33 -2q-47 43 -95 59t-126 16q-129 0 -208 -48 t-79 -126q0 -37 8.5 -61t51.5 -107q1 -1 3 -5t6 -11.5t7 -13.5h170v-133h-127q12 -40 12 -78q0 -63 -26.5 -103t-114.5 -116q100 28 152 28q50 0 93 -18.5t109 -67.5q70 -51 113 -51q50 0 72 45q14 27 16 117h170v-39q0 -152 -74 -240t-200 -88q-54 0 -109 13.5t-149 50.5 q-83 32 -130 43.5t-96 11.5q-64 0 -110.5 -19.5t-118.5 -76.5z" />
<glyph unicode="&#xa4;" horiz-adv-x="1366" d="M43 1266l143 143l211 -213q140 90 289 90q144 0 281 -86l211 207l141 -141l-209 -209q50 -76 72 -142.5t22 -142.5q0 -146 -90 -280l211 -211l-141 -142l-211 209q-134 -92 -291 -92q-75 0 -142 21.5t-145 70.5l-209 -209l-141 142l209 211q-90 131 -90 280q0 143 92 283 zM403 770q0 -116 82.5 -198.5t198.5 -82.5t198.5 83t82.5 200q0 114 -82.5 197.5t-194.5 83.5q-120 0 -202.5 -82t-82.5 -201z" />
<glyph unicode="&#xa5;" horiz-adv-x="1284" d="M6 1057v186h674v-186h-45q-72 0 -72 -35q0 -16 23 -55l139 -240l143 240q25 45 25 59q0 13 -18 22t-46 9h-32v186h479v-186h-37q-62 0 -100 -47q0 -1 -5 -7t-24.5 -35t-50.5 -77l-33 -51h145v-138h-235l-109 -161h318v-138h-322v-24q0 -105 3 -128.5t16 -39.5 q19 -25 88 -25h92v-186h-768v186h92q69 0 88 25q13 19 16 42t3 126v24h-310v138h306l-103 161h-229v138h143l-33 51q-16 24 -30 47t-21 34t-13.5 21t-10 14.5l-7 9t-8.5 9.5q-40 31 -94 31h-37z" />
<glyph unicode="&#xa6;" d="M395 313h236v-655h-236v655zM395 657v709h236v-709h-236z" />
<glyph unicode="&#xa7;" horiz-adv-x="1282" d="M104 479q0 103 56 182t157 117q-73 52 -107 112.5t-34 137.5q0 157 140.5 262t351.5 105q187 0 305.5 -70.5t118.5 -181.5q0 -70 -47 -116t-119 -46q-66 0 -111 35.5t-45 89.5q0 25 6.5 40.5t34.5 53.5q2 2 8 14q-73 33 -151 33q-101 0 -169.5 -44.5t-68.5 -110.5 q0 -63 74 -105q34 -19 81.5 -35t270.5 -84q164 -49 242 -126t78 -187q0 -94 -51.5 -164t-166.5 -133q88 -54 125 -112t37 -140q0 -178 -147.5 -288.5t-384.5 -110.5q-192 0 -316.5 78.5t-124.5 199.5q0 70 54 120t129 50q70 0 113.5 -37.5t43.5 -99.5q0 -35 -14.5 -61.5 t-54.5 -61.5q37 -23 69.5 -32t83.5 -9q121 0 203 52.5t82 130.5q0 67 -55 105t-211 79q-137 36 -205.5 59.5t-126.5 55.5q-154 84 -154 243zM340 567q0 -46 36 -86t99 -63q88 -32 185 -58t131 -26q58 0 100.5 40.5t42.5 96.5q0 46 -31 78.5t-100 60.5q-243 95 -316 95 q-62 0 -104.5 -40t-42.5 -98z" />
<glyph unicode="&#xa8;" d="M158 1225q0 60 43.5 102.5t105.5 42.5q60 0 103 -43.5t43 -103.5q0 -61 -43.5 -104.5t-104.5 -43.5q-62 0 -104.5 43.5t-42.5 106.5zM571 1225q0 60 44 102.5t106 42.5q60 0 102.5 -43.5t42.5 -103.5t-43 -104t-104 -44t-104.5 44t-43.5 106z" />
<glyph unicode="&#xa9;" horiz-adv-x="1556" d="M68 682q0 147 56.5 279.5t152 228t229 151.5t282.5 56q140 0 269.5 -57.5t223.5 -153.5t150 -228.5t56 -275.5q0 -116 -36 -224.5t-101.5 -196.5t-152.5 -154t-195.5 -102t-223.5 -36q-144 0 -275.5 57t-226.5 152.5t-151.5 227.5t-56.5 276zM209 682q0 -158 76.5 -293 t207.5 -214t285 -79q153 0 283 78.5t206 213.5t76 294q0 157 -75.5 292t-204 214.5t-277.5 79.5q-159 0 -292 -77.5t-209 -212t-76 -296.5zM389 678q0 178 105.5 283.5t283.5 105.5q71 0 115.5 -16t81.5 -54l14 54h127v-295h-127q-6 194 -164 194q-83 0 -128.5 -68.5 t-45.5 -193.5q0 -132 46 -203t132 -71q78 0 117 49t43 155h127q0 -157 -87 -239t-251 -82q-182 0 -285.5 101.5t-103.5 279.5z" />
<glyph unicode="&#xaa;" horiz-adv-x="819" d="M66 692q0 67 51 109q23 19 57.5 30t106.5 23q101 17 138.5 39t37.5 63q0 38 -36 61t-97 23q-46 0 -91 -18q6 2 19 2q32 0 53 -21t21 -53q0 -37 -29.5 -59.5t-75.5 -22.5q-54 0 -89.5 30t-35.5 75q0 75 78 115t227 40q190 0 248 -69q25 -29 33 -60.5t8 -97.5v-190 q0 -35 4.5 -47.5t18.5 -12.5q17 0 21.5 14.5t4.5 69.5q0 17 -2 27h80q4 -55 4 -86q0 -148 -182 -148q-84 0 -137 35q-11 6 -15.5 11.5t-17.5 29.5l-6 8l-2 -2q-15 -35 -68.5 -59.5t-116.5 -24.5q-97 0 -153.5 45t-56.5 121zM305 707q0 -25 18 -40.5t46 -15.5q38 0 61 23.5 t23 60.5v82q-29 -20 -58 -31q-54 -23 -72 -38.5t-18 -40.5z" />
<glyph unicode="&#xab;" horiz-adv-x="815" d="M90 477q0 66 28 130t99 161h158q-78 -170 -78 -303q0 -134 78 -291h-158q-67 92 -97 163.5t-30 139.5zM440 477q0 66 28.5 130t100.5 161h158q-80 -165 -80 -301q0 -134 80 -293h-158q-69 92 -99 163t-30 140z" />
<glyph unicode="&#xac;" d="M66 264v215h888v-479h-235v264h-653z" />
<glyph unicode="&#xad;" horiz-adv-x="532" d="M0 369v243h532v-243h-532z" />
<glyph unicode="&#xae;" horiz-adv-x="1556" d="M68 682q0 147 56.5 279.5t152 228t229 151.5t282.5 56q140 0 269.5 -57.5t223.5 -153.5t150 -228.5t56 -275.5q0 -116 -36 -224.5t-101.5 -196.5t-152.5 -154t-195.5 -102t-223.5 -36q-144 0 -275.5 57t-226.5 152.5t-151.5 227.5t-56.5 276zM209 682q0 -158 76.5 -293 t207.5 -214t285 -79q153 0 283 78.5t206 213.5t76 294q0 157 -75.5 292t-204 214.5t-277.5 79.5q-159 0 -292 -77.5t-209 -212t-76 -296.5zM375 313v113h55q37 0 44 13.5t7 82.5v322q0 70 -7 82t-44 12h-55v113h481q92 0 131.5 -7.5t75.5 -33.5q35 -23 55.5 -60t20.5 -76 q0 -43 -21.5 -86.5t-50.5 -58.5q-6 -2 -59 -20q-11 -4 -13 -9q6 -6 25 -10q37 -8 57.5 -44.5t20.5 -94.5v-76q0 -32 5 -44.5t19 -12.5q15 0 20 14.5t5 65.5v32h86q4 -31 4 -61q0 -82 -46.5 -127t-131.5 -45q-114 0 -160 68q-25 37 -31 74t-6 151q0 32 -15 42.5t-59 10.5h-73 v-121q0 -71 7 -83.5t46 -12.5h49v-113h-442zM715 750h65q68 0 94.5 21t26.5 75q0 49 -26.5 70.5t-88.5 21.5h-71v-188z" />
<glyph unicode="&#xaf;" d="M174 1120v166h674v-166h-674z" />
<glyph unicode="&#xb0;" d="M199 1047q0 125 93 215t222 90q130 0 222.5 -91t92.5 -219q0 -129 -92 -220t-223 -91q-132 0 -223.5 92t-91.5 224zM356 1044q0 -66 46 -112.5t112 -46.5q65 0 111.5 46.5t46.5 110.5t-46.5 110t-111.5 46t-111.5 -45.5t-46.5 -108.5z" />
<glyph unicode="&#xb1;" d="M14 -109v244h998v-244h-998zM14 575v242h375v357h248v-357h375v-242h-375v-342h-248v342h-375z" />
<glyph unicode="&#xb2;" horiz-adv-x="856" d="M59 547q-3 130 51 205.5t205 150.5q117 58 148 87.5t31 80.5q0 52 -38 80.5t-106 28.5q-42 0 -82 -18t-57 -44v-4l6 2l49 10q9 0 30 -9.5t28 -16.5q20 -23 20 -58q0 -51 -38.5 -86.5t-92.5 -35.5q-59 0 -100 43t-41 104q0 103 99 172.5t247 69.5q154 0 253 -69.5 t99 -176.5q0 -183 -281 -248q-114 -28 -152.5 -42t-76.5 -44h6q84 21 94 21q41 0 172 -25q33 -8 64 -8q34 0 47.5 22t15.5 78h132l-3 -10q0 -6 3 -27q4 -39 -8.5 -89t-34.5 -83q-26 -37 -76.5 -58.5t-110.5 -21.5q-76 0 -192 45q-80 31 -115 31q-31 0 -41 -11.5t-10 -45.5 h-144z" />
<glyph unicode="&#xb3;" horiz-adv-x="856" d="M63 739q0 58 39 95.5t99 37.5q54 0 88.5 -30.5t34.5 -77.5q0 -41 -26.5 -67.5t-66.5 -26.5q58 -27 113 -27q78 0 125 34t47 91q0 30 -17 56t-46 38q-26 12 -44.5 15t-82.5 4v114h32q61 0 97.5 27.5t36.5 73.5q0 44 -40 71t-106 27q-55 0 -113 -31q97 -9 97 -86 q0 -44 -34.5 -75t-84.5 -31q-54 0 -90.5 36.5t-36.5 90.5q0 94 94.5 151.5t249.5 57.5q157 0 247.5 -53.5t90.5 -145.5q0 -59 -28.5 -91.5t-114.5 -70.5l32 -12q142 -55 142 -172q0 -103 -101 -168.5t-260 -65.5q-161 0 -267 60t-106 151z" />
<glyph unicode="&#xb4;" d="M416 1065l112 326h240q43 0 59.5 -8.5t16.5 -30.5q0 -18 -29 -47l-262 -240h-137z" />
<glyph unicode="&#xb5;" horiz-adv-x="1284" d="M6 737v174h483v-567q0 -112 29 -156.5t103 -44.5q81 0 119 49t38 152v209q0 119 -2 140.5t-16 31.5q-15 12 -76 12h-72v174h500v-555q0 -118 2 -139.5t16 -32.5q15 -12 76 -12h70v-172h-498v133q-86 -164 -305 -164q-4 0 -74 4q5 -12 11 -27.5t10 -26t6 -13.5 q31 -76 41 -111.5t10 -70.5q0 -71 -55.5 -114.5t-147.5 -43.5q-90 0 -147 47t-57 119q0 35 7 71t32 136q28 106 37.5 183.5t9.5 215.5v299q0 69 -15 84.5t-80 15.5h-55z" />
<glyph unicode="&#xb6;" horiz-adv-x="1357" d="M53 1006q0 102 44 182t124 123q104 55 303 55h545v-174h-162v-1380h-172v1380h-131v-1380h-162v845h-26q-161 0 -262 97t-101 252z" />
<glyph unicode="&#xb7;" horiz-adv-x="489" d="M78 489q0 69 49.5 117.5t120.5 48.5q66 0 115 -49.5t49 -116.5q0 -69 -49 -118t-117 -49q-69 0 -118.5 49t-49.5 118z" />
<glyph unicode="&#xb8;" d="M283 -389l41 86q90 -35 141 -35q37 0 59.5 20.5t22.5 55.5q0 29 -20.5 49t-49.5 20q-25 0 -61 -20l-49 49l116 164h140l-95 -115h11q18 2 39 2q84 0 133 -37.5t49 -101.5q0 -81 -72.5 -133.5t-183.5 -52.5q-103 0 -221 49z" />
<glyph unicode="&#xb9;" horiz-adv-x="856" d="M207 545v125h72q45 0 53 13.5t8 92.5v301h-133v119q163 6 186 94h197v-514q0 -79 8 -92.5t53 -13.5h58v-125h-502z" />
<glyph unicode="&#xba;" horiz-adv-x="808" d="M53 827q0 138 94.5 219.5t255.5 81.5t257 -81t96 -218q0 -135 -97.5 -218t-255.5 -83t-254 82t-96 217zM307 825q0 -95 22.5 -138.5t71.5 -43.5q53 0 77 48t24 153q0 92 -21.5 132t-70.5 40q-103 0 -103 -191z" />
<glyph unicode="&#xbb;" horiz-adv-x="815" d="M86 174q80 168 80 301q0 134 -80 293h158q69 -92 99 -163t30 -140q0 -66 -28.5 -131t-100.5 -160h-158zM438 174q78 173 78 301q0 130 -78 293h158q68 -92 97.5 -163t29.5 -140q0 -65 -28.5 -129.5t-98.5 -161.5h-158z" />
<glyph unicode="&#xbc;" horiz-adv-x="1933" d="M207 545v125h72q45 0 53 13.5t8 92.5v301h-133v119q163 6 186 94h197v-514q0 -79 8 -92.5t53 -13.5h58v-125h-502zM537 0l716 1229h144l-717 -1229h-143zM1124 209v121l414 413h217v-409h131v-125h-131v-29q0 -36 11 -45.5t51 -9.5h69v-125h-518v125h78q38 0 48.5 9.5 t10.5 45.5v29h-381zM1307 334h198v192z" />
<glyph unicode="&#xbd;" horiz-adv-x="1933" d="M207 545v125h72q45 0 53 13.5t8 92.5v301h-133v119q163 6 186 94h197v-514q0 -79 8 -92.5t53 -13.5h58v-125h-502zM537 0l716 1229h144l-717 -1229h-143zM1137 0q-2 89 21 149t77.5 108.5t157.5 100.5q63 31 94.5 49t52.5 37.5t26 36.5t5 45q0 52 -38 80.5t-106 28.5 q-62 0 -106 -33q-14 -9 -23.5 -18.5t-9.5 -14.5h6l49 11q29 0 53.5 -26t24.5 -58q0 -51 -38.5 -87t-92.5 -36q-59 0 -100 43t-41 104q0 104 99 174t247 70q154 0 253 -69.5t99 -176.5q0 -185 -280 -250q-107 -25 -147.5 -40t-82.5 -46h6q84 21 97 21q39 0 170 -25 q33 -8 63 -8q34 0 49 22.5t15 77.5h131q9 -140 -50 -214t-180 -74q-76 0 -192 45q-77 30 -115 30q-30 0 -40.5 -12t-10.5 -45h-143z" />
<glyph unicode="&#xbe;" horiz-adv-x="1933" d="M63 739q0 58 39 95.5t99 37.5q54 0 88.5 -30.5t34.5 -77.5q0 -41 -26.5 -67.5t-66.5 -26.5q58 -27 113 -27q78 0 125 34t47 91q0 30 -17 56t-46 38q-26 12 -44.5 15t-82.5 4v114h32q61 0 97.5 27.5t36.5 73.5q0 44 -40 71t-106 27q-55 0 -113 -31q97 -9 97 -86 q0 -44 -34.5 -75t-84.5 -31q-54 0 -90.5 36.5t-36.5 90.5q0 94 94.5 151.5t249.5 57.5q157 0 247.5 -53.5t90.5 -145.5q0 -59 -28.5 -91.5t-114.5 -70.5l32 -12q142 -55 142 -172q0 -103 -101 -168.5t-260 -65.5q-161 0 -267 60t-106 151zM535 0l718 1229h144l-719 -1229 h-143zM1124 209v121l414 413h217v-409h131v-125h-131v-29q0 -36 11 -45.5t51 -9.5h69v-125h-520v125h78q38 0 49.5 10t11.5 45v29h-381zM1307 334h198v192z" />
<glyph unicode="&#xbf;" horiz-adv-x="1073" d="M51 -70q0 104 49.5 185t161.5 157q133 92 175 143.5t48 131.5h199q-2 -106 -26.5 -168.5t-112.5 -177.5q-66 -88 -94.5 -146.5t-28.5 -107.5q0 -83 63 -142t154 -59q157 0 215 164q-58 -27 -96 -27q-65 0 -107.5 45.5t-42.5 114.5q0 77 53.5 127.5t135.5 50.5 q97 0 160 -76t63 -192q0 -75 -33.5 -148.5t-93.5 -130.5q-62 -57 -159.5 -90t-205.5 -33q-211 0 -344 106t-133 273zM416 791q0 69 49.5 117t120.5 48q66 0 115 -49t49 -116q0 -69 -49 -118.5t-117 -49.5q-70 0 -119 49.5t-49 118.5z" />
<glyph unicode="&#xc0;" horiz-adv-x="1505" d="M-39 0v186h66q64 0 92.5 28t60.5 124l348 1028h476l317 -1028q13 -44 31.5 -82t31.5 -49q28 -21 93 -21h67v-186h-778v186h80q60 0 79 9t19 38q0 28 -26 105l-35 106h-420l-35 -106q-29 -86 -29 -100q0 -28 22.5 -40t74.5 -12h88v-186h-623zM326 1731q0 25 15 33t60 8 h308l209 -287h-152l-412 201q-28 16 -28 45zM518 621h309l-149 460z" />
<glyph unicode="&#xc1;" horiz-adv-x="1505" d="M-39 0v186h66q64 0 92.5 28t60.5 124l348 1028h476l317 -1028q13 -44 31.5 -82t31.5 -49q28 -21 93 -21h67v-186h-778v186h80q60 0 79 9t19 38q0 28 -26 105l-35 106h-420l-35 -106q-29 -86 -29 -100q0 -28 22.5 -40t74.5 -12h88v-186h-623zM518 621h309l-149 460z M623 1485l208 287h308q43 0 58 -8t15 -33q0 -30 -26 -45l-412 -201h-151z" />
<glyph unicode="&#xc2;" horiz-adv-x="1505" d="M-39 0v186h66q64 0 92.5 28t60.5 124l348 1028h476l317 -1028q13 -44 31.5 -82t31.5 -49q28 -21 93 -21h67v-186h-778v186h80q60 0 79 9t19 38q0 28 -26 105l-35 106h-420l-35 -106q-29 -86 -29 -100q0 -28 22.5 -40t74.5 -12h88v-186h-623zM338 1485l278 287h293 l283 -287h-311l-172 145l-191 -145h-180zM518 621h309l-149 460z" />
<glyph unicode="&#xc3;" horiz-adv-x="1505" d="M-39 0v186h66q64 0 92.5 28t60.5 124l348 1028h476l317 -1028q13 -44 31.5 -82t31.5 -49q28 -21 93 -21h67v-186h-778v186h80q60 0 79 9t19 38q0 28 -26 105l-35 106h-420l-35 -106q-29 -86 -29 -100q0 -28 22.5 -40t74.5 -12h88v-186h-623zM391 1511q10 98 33 148 q46 90 176 90q50 0 92 -8t193 -49q34 -9 57 -9q51 0 57 64h142q-10 -132 -57 -186t-150 -54q-80 0 -225 41q-92 25 -121 25q-50 0 -62 -62h-135zM518 621h309l-149 460z" />
<glyph unicode="&#xc4;" horiz-adv-x="1505" d="M-39 0v186h66q64 0 92.5 28t60.5 124l348 1028h476l317 -1028q13 -44 31.5 -82t31.5 -49q28 -21 93 -21h67v-186h-778v186h80q60 0 79 9t19 38q0 28 -26 105l-35 106h-420l-35 -106q-29 -86 -29 -100q0 -28 22.5 -40t74.5 -12h88v-186h-623zM377 1630q0 60 44 103t105 43 q60 0 103 -44t43 -104q0 -61 -43 -104t-105 -43t-104.5 43t-42.5 106zM518 621h309l-149 460zM862 1630q0 60 44 103t106 43q60 0 102.5 -44t42.5 -104q0 -62 -42.5 -104.5t-104.5 -42.5t-105 43t-43 106z" />
<glyph unicode="&#xc5;" horiz-adv-x="1505" d="M-39 0v186h66q64 0 92.5 28t60.5 124l348 1028h476l317 -1028q13 -44 31.5 -82t31.5 -49q28 -21 93 -21h67v-186h-778v186h80q60 0 79 9t19 38q0 28 -26 105l-35 106h-420l-35 -106q-29 -86 -29 -100q0 -28 22.5 -40t74.5 -12h88v-186h-623zM518 621h309l-149 460z M565 1657q0 83 60 142t145 59q82 0 140.5 -59.5t58.5 -141.5q0 -85 -59 -144t-142 -59q-85 0 -144 59t-59 144zM694 1655q0 -31 21.5 -52.5t52.5 -21.5t52.5 21.5t21.5 52.5q0 29 -21.5 51.5t-50.5 22.5q-32 0 -54 -21.5t-22 -52.5z" />
<glyph unicode="&#xc6;" horiz-adv-x="2285" d="M-12 0v186q94 -5 143.5 30.5t122.5 160.5l422 725q12 18 12 41q0 20 -17.5 28.5t-58.5 8.5h-123v186h1696v-526h-211q-9 184 -73 262t-207 78h-297v-387h80q91 0 125 47t34 170h174v-617h-174q0 87 -3 112.5t-17 47.5q-19 28 -54 43.5t-77 15.5h-88v-426h239q121 0 162 7 q107 20 156 174q20 70 20 190h211v-557h-1409v186h115q69 0 88 25q13 16 15.5 39t2.5 129v151h-385l-137 -233q-29 -53 -29 -70q0 -23 21 -32t72 -9h73v-186h-624zM713 707h284v473z" />
<glyph unicode="&#xc7;" horiz-adv-x="1452" d="M66 676q0 382 245 575q183 146 451 146q90 0 152 -13.5t111.5 -44t100.5 -86.5l29 113h209v-530h-209q-3 172 -79 269t-228 97q-158 0 -245 -132.5t-87 -375.5q0 -255 87 -391.5t249 -136.5q97 0 166 47t104 137q28 67 33 199h209q3 -169 -64 -299.5t-194 -203 t-295 -75.5l-70 -86h11q18 2 39 2q84 0 133 -37.5t49 -101.5q0 -81 -72.5 -133.5t-183.5 -52.5q-103 0 -221 49l41 86q83 -35 141 -35q37 0 59.5 20.5t22.5 55.5q0 29 -20.5 49t-51.5 20q-23 0 -59 -20l-49 49l98 137q-290 21 -451 212t-161 491z" />
<glyph unicode="&#xc8;" horiz-adv-x="1576" d="M68 0v186h114q69 0 88 25q13 16 16 39.5t3 128.5v608q0 105 -3 128.5t-16 39.5q-19 25 -88 25h-114v186h1407v-526h-215q0 288 -183 331q-37 9 -119 9h-270v-387h70q107 0 141 86q14 38 14 127h181v-615h-181v41q0 95 -37.5 136.5t-123.5 41.5h-64v-424h225q109 0 130 1 t49 10q49 13 89.5 58.5t55.5 102.5q18 67 23 201h215v-559h-1407zM430 1731q0 25 15.5 33t60.5 8h307l209 -287h-152l-411 201q-29 16 -29 45z" />
<glyph unicode="&#xc9;" horiz-adv-x="1576" d="M68 0v186h114q69 0 88 25q13 16 16 39.5t3 128.5v608q0 105 -3 128.5t-16 39.5q-19 25 -88 25h-114v186h1407v-526h-215q0 288 -183 331q-37 9 -119 9h-270v-387h70q107 0 141 86q14 38 14 127h181v-615h-181v41q0 95 -37.5 136.5t-123.5 41.5h-64v-424h225q109 0 130 1 t49 10q49 13 89.5 58.5t55.5 102.5q18 67 23 201h215v-559h-1407zM651 1485l209 287h307q43 0 58.5 -8.5t15.5 -32.5q0 -13 -8 -26t-19 -19l-411 -201h-152z" />
<glyph unicode="&#xca;" horiz-adv-x="1576" d="M68 0v186h114q69 0 88 25q13 16 16 39.5t3 128.5v608q0 105 -3 128.5t-16 39.5q-19 25 -88 25h-114v186h1407v-526h-215q0 288 -183 331q-37 9 -119 9h-270v-387h70q107 0 141 86q14 38 14 127h181v-615h-181v41q0 95 -37.5 136.5t-123.5 41.5h-64v-424h225q109 0 130 1 t49 10q49 13 89.5 58.5t55.5 102.5q18 67 23 201h215v-559h-1407zM385 1485l279 287h292l283 -287h-311l-172 145l-191 -145h-180z" />
<glyph unicode="&#xcb;" horiz-adv-x="1576" d="M68 0v186h114q69 0 88 25q13 16 16 39.5t3 128.5v608q0 105 -3 128.5t-16 39.5q-19 25 -88 25h-114v186h1407v-526h-215q0 288 -183 331q-37 9 -119 9h-270v-387h70q107 0 141 86q14 38 14 127h181v-615h-181v41q0 95 -37.5 136.5t-123.5 41.5h-64v-424h225q109 0 130 1 t49 10q49 13 89.5 58.5t55.5 102.5q18 67 23 201h215v-559h-1407zM418 1630q0 60 44 103t105 43q60 0 103 -44t43 -104q0 -61 -43 -104t-105 -43t-104.5 43t-42.5 106zM903 1630q0 60 44 103t106 43q60 0 102.5 -44t42.5 -104q0 -62 -43 -104.5t-104 -42.5q-62 0 -105 43 t-43 106z" />
<glyph unicode="&#xcc;" horiz-adv-x="970" d="M68 0v186h114q69 0 88 25q13 16 16 39.5t3 128.5v608q0 105 -3 128.5t-16 39.5q-19 25 -88 25h-114v186h833v-186h-115q-69 0 -88 -25q-13 -16 -15.5 -39t-2.5 -129v-608q0 -106 2.5 -129t15.5 -39q19 -25 88 -25h115v-186h-833zM68 1731q0 25 15 33t60 8h308l208 -287 h-151l-412 201q-28 16 -28 45z" />
<glyph unicode="&#xcd;" horiz-adv-x="970" d="M68 0v186h114q69 0 88 25q13 16 16 39.5t3 128.5v608q0 105 -3 128.5t-16 39.5q-19 25 -88 25h-114v186h833v-186h-115q-69 0 -88 -25q-13 -16 -15.5 -39t-2.5 -129v-608q0 -106 2.5 -129t15.5 -39q19 -25 88 -25h115v-186h-833zM336 1485l209 287h307q43 0 58.5 -8.5 t15.5 -32.5q0 -13 -8 -26t-19 -19l-412 -201h-151z" />
<glyph unicode="&#xce;" horiz-adv-x="970" d="M57 1485l279 287h293l282 -287h-311l-172 145l-190 -145h-181zM66 0v186h114q69 0 88 25q13 16 16 39.5t3 128.5v608q0 105 -3 128.5t-16 39.5q-19 25 -88 25h-114v186h833v-186h-115q-69 0 -88 -25q-13 -16 -15.5 -39t-2.5 -129v-608q0 -106 2.5 -129t15.5 -39 q19 -25 88 -25h115v-186h-833z" />
<glyph unicode="&#xcf;" horiz-adv-x="970" d="M68 0v186h114q69 0 88 25q13 16 16 39.5t3 128.5v608q0 105 -3 128.5t-16 39.5q-19 25 -88 25h-114v186h833v-186h-115q-69 0 -88 -25q-13 -16 -15.5 -39t-2.5 -129v-608q0 -106 2.5 -129t15.5 -39q19 -25 88 -25h115v-186h-833zM143 1630q0 60 44 103t106 43 q60 0 102.5 -44t42.5 -104q0 -62 -43 -104.5t-104 -42.5q-62 0 -105 43t-43 106zM532 1630q0 60 44 103t106 43q60 0 102.5 -44t42.5 -104q0 -62 -42.5 -104.5t-104.5 -42.5t-105 43t-43 106z" />
<glyph unicode="&#xd0;" horiz-adv-x="1708" d="M68 0v186h112q69 0 88 25q13 16 16 39.5t3 128.5v237h-219v185h219v186q0 105 -3 128.5t-16 39.5q-19 25 -88 25h-112v186h845q173 0 280.5 -29.5t203.5 -101.5q241 -187 241 -539q0 -215 -88 -373.5t-252 -240.5q-165 -82 -438 -82h-792zM686 186h137q103 0 169 26.5 t112 86.5q46 62 65 147.5t19 239.5q0 177 -27 277.5t-90 154.5q-40 35 -94 48.5t-156 13.5h-135v-379h277v-185h-277v-430z" />
<glyph unicode="&#xd1;" horiz-adv-x="1767" d="M68 0v186h114q69 0 88 25q13 19 16 42t3 126v608q0 105 -3 128.5t-16 39.5q-19 25 -88 25h-114v186h686l520 -944v565q0 105 -3 128.5t-16 39.5q-19 25 -88 25h-125v186h684v-186h-114q-69 0 -88 -25q-13 -16 -16 -39.5t-3 -128.5v-987h-442l-543 995v-616q0 -103 3 -126 t16 -42q19 -25 88 -25h127v-186h-686zM522 1511q10 98 33 148q46 90 176 90q50 0 92 -8t193 -49q34 -9 57 -9q51 0 57 64h142q-10 -132 -57 -186t-150 -54q-80 0 -225 41q-92 25 -121 25q-50 0 -62 -62h-135z" />
<glyph unicode="&#xd2;" horiz-adv-x="1607" d="M68 680q0 181 64 329t183 242q190 146 488 146q352 0 543.5 -187.5t191.5 -533.5q0 -322 -197.5 -514.5t-529.5 -192.5q-343 0 -543 191.5t-200 519.5zM391 1731q0 25 15.5 33t60.5 8h307l209 -287h-152l-411 201q-29 16 -29 45zM518 674q0 -271 60 -385 q72 -137 225 -137q83 0 144 42t93 121q47 118 47 363q0 275 -65.5 399.5t-210.5 124.5q-151 0 -222 -128t-71 -400z" />
<glyph unicode="&#xd3;" horiz-adv-x="1607" d="M68 680q0 181 64 329t183 242q190 146 488 146q352 0 543.5 -187.5t191.5 -533.5q0 -322 -197.5 -514.5t-529.5 -192.5q-343 0 -543 191.5t-200 519.5zM518 674q0 -271 60 -385q72 -137 225 -137q83 0 144 42t93 121q47 118 47 363q0 275 -65.5 399.5t-210.5 124.5 q-151 0 -222 -128t-71 -400zM649 1485l209 287h307q43 0 58.5 -8.5t15.5 -32.5q0 -13 -8 -26t-19 -19l-411 -201h-152z" />
<glyph unicode="&#xd4;" horiz-adv-x="1607" d="M68 680q0 181 64 329t183 242q190 146 488 146q352 0 543.5 -187.5t191.5 -533.5q0 -322 -197.5 -514.5t-529.5 -192.5q-343 0 -543 191.5t-200 519.5zM389 1485l279 287h293l282 -287h-311l-172 145l-191 -145h-180zM518 674q0 -271 60 -385q72 -137 225 -137 q83 0 144 42t93 121q47 118 47 363q0 275 -65.5 399.5t-210.5 124.5q-151 0 -222 -128t-71 -400z" />
<glyph unicode="&#xd5;" horiz-adv-x="1607" d="M68 680q0 181 64 329t183 242q190 146 488 146q352 0 543.5 -187.5t191.5 -533.5q0 -322 -197.5 -514.5t-529.5 -192.5q-343 0 -543 191.5t-200 519.5zM442 1511q10 98 33 148q46 90 176 90q50 0 92 -8t193 -49q34 -9 57 -9q52 0 58 64h141q-10 -132 -57 -186t-150 -54 q-80 0 -225 41q-92 25 -121 25q-49 0 -61 -62h-136zM518 674q0 -271 60 -385q72 -137 225 -137q83 0 144 42t93 121q47 118 47 363q0 275 -65.5 399.5t-210.5 124.5q-151 0 -222 -128t-71 -400z" />
<glyph unicode="&#xd6;" horiz-adv-x="1607" d="M68 680q0 181 64 329t183 242q190 146 488 146q352 0 543.5 -187.5t191.5 -533.5q0 -322 -197.5 -514.5t-529.5 -192.5q-343 0 -543 191.5t-200 519.5zM414 1630q0 60 44 103t105 43q60 0 103 -44t43 -104q0 -61 -43 -104t-105 -43t-104.5 43t-42.5 106zM518 674 q0 -271 60 -385q72 -137 225 -137q83 0 144 42t93 121q47 118 47 363q0 275 -65.5 399.5t-210.5 124.5q-151 0 -222 -128t-71 -400zM899 1630q0 60 44 103t106 43q60 0 102.5 -44t42.5 -104q0 -62 -43 -104.5t-104 -42.5q-62 0 -105 43t-43 106z" />
<glyph unicode="&#xd7;" d="M35 391l305 305l-305 305l172 173l305 -306l305 306l170 -173l-305 -305l305 -305l-170 -172l-305 305l-305 -305z" />
<glyph unicode="&#xd8;" horiz-adv-x="1607" d="M80 670q0 341 193.5 532t537.5 191q158 0 317 -52l99 164l141 -90l-90 -151q266 -195 266 -586q0 -333 -193 -522t-534 -189q-195 0 -325 58l-111 -170l-137 84l102 155q-87 63 -145 144q-57 79 -89 194.5t-32 237.5zM530 647q0 -95 19 -256l438 737q-73 70 -170 70 q-80 0 -140.5 -42t-92.5 -120q-54 -128 -54 -389zM633 217q75 -67 178 -67q68 0 119 27.5t82 72.5t49.5 113t25.5 140t7 163q0 164 -21 290z" />
<glyph unicode="&#xd9;" horiz-adv-x="1652" d="M35 1180v186h833v-186h-106q-69 0 -88 -25q-13 -16 -16 -39.5t-3 -128.5v-477q0 -122 5.5 -164.5t27.5 -79.5q28 -47 87.5 -74.5t137.5 -27.5q149 0 205 80q26 37 36.5 95t10.5 171v477q0 106 -2.5 129t-15.5 39q-19 25 -88 25h-98v186h657v-186h-115q-69 0 -88 -25 q-13 -16 -15.5 -39t-2.5 -129v-547q0 -124 -25 -198.5t-88 -137.5q-69 -70 -173.5 -102.5t-262.5 -32.5q-363 0 -502 164q-51 58 -70.5 126t-19.5 181v547q0 106 -2.5 129t-15.5 39q-19 25 -88 25h-115zM449 1731q0 25 15 33t60 8h307l209 -287h-151l-412 201q-28 16 -28 45 z" />
<glyph unicode="&#xda;" horiz-adv-x="1652" d="M35 1180v186h833v-186h-106q-69 0 -88 -25q-13 -16 -16 -39.5t-3 -128.5v-477q0 -122 5.5 -164.5t27.5 -79.5q28 -47 87.5 -74.5t137.5 -27.5q149 0 205 80q26 37 36.5 95t10.5 171v477q0 106 -2.5 129t-15.5 39q-19 25 -88 25h-98v186h657v-186h-115q-69 0 -88 -25 q-13 -16 -15.5 -39t-2.5 -129v-547q0 -124 -25 -198.5t-88 -137.5q-69 -70 -173.5 -102.5t-262.5 -32.5q-363 0 -502 164q-51 58 -70.5 126t-19.5 181v547q0 106 -2.5 129t-15.5 39q-19 25 -88 25h-115zM690 1485l209 287h307q43 0 58.5 -8.5t15.5 -32.5q0 -13 -8 -26 t-19 -19l-411 -201h-152z" />
<glyph unicode="&#xdb;" horiz-adv-x="1652" d="M35 1180v186h833v-186h-106q-69 0 -88 -25q-13 -16 -16 -39.5t-3 -128.5v-477q0 -122 5.5 -164.5t27.5 -79.5q28 -47 87.5 -74.5t137.5 -27.5q149 0 205 80q26 37 36.5 95t10.5 171v477q0 106 -2.5 129t-15.5 39q-19 25 -88 25h-98v186h657v-186h-115q-69 0 -88 -25 q-13 -16 -15.5 -39t-2.5 -129v-547q0 -124 -25 -198.5t-88 -137.5q-69 -70 -173.5 -102.5t-262.5 -32.5q-363 0 -502 164q-51 58 -70.5 126t-19.5 181v547q0 106 -2.5 129t-15.5 39q-19 25 -88 25h-115zM440 1485l279 287h293l282 -287h-311l-172 145l-190 -145h-181z" />
<glyph unicode="&#xdc;" horiz-adv-x="1652" d="M35 1180v186h833v-186h-106q-69 0 -88 -25q-13 -16 -16 -39.5t-3 -128.5v-477q0 -122 5.5 -164.5t27.5 -79.5q28 -47 87.5 -74.5t137.5 -27.5q149 0 205 80q26 37 36.5 95t10.5 171v477q0 106 -2.5 129t-15.5 39q-19 25 -88 25h-98v186h657v-186h-115q-69 0 -88 -25 q-13 -16 -15.5 -39t-2.5 -129v-547q0 -124 -25 -198.5t-88 -137.5q-69 -70 -173.5 -102.5t-262.5 -32.5q-363 0 -502 164q-51 58 -70.5 126t-19.5 181v547q0 106 -2.5 129t-15.5 39q-19 25 -88 25h-115zM471 1630q0 60 44 103t106 43q60 0 102.5 -44t42.5 -104 q0 -61 -43 -104t-105 -43t-104.5 43t-42.5 106zM956 1630q0 60 44 103t106 43q60 0 102.5 -44t42.5 -104q0 -62 -42.5 -104.5t-104.5 -42.5t-105 43t-43 106z" />
<glyph unicode="&#xdd;" horiz-adv-x="1447" d="M-29 1180v186h811v-186h-86q-71 0 -71 -35q0 -12 22 -55l174 -318l180 318q25 43 25 59q0 14 -17 22.5t-46 8.5h-89v186h605v-186h-78q-63 0 -98 -47q-16 -16 -82 -119l-308 -479v-156q0 -105 3 -128.5t16 -39.5q19 -25 88 -25h133v-186h-858v186h133q69 0 88 25 q13 19 16 42t3 126v156l-302 479q-22 35 -40.5 65t-24 39t-11 16t-14.5 15q-34 31 -94 31h-78zM594 1485l209 287h307q43 0 58.5 -8.5t15.5 -32.5q0 -13 -8 -26t-19 -19l-412 -201h-151z" />
<glyph unicode="&#xde;" horiz-adv-x="1476" d="M68 0v186h114q69 0 88 25q13 16 16 39.5t3 128.5v608q0 105 -3 128.5t-16 39.5q-19 25 -88 25h-114v186h841v-186h-114q-68 0 -87.5 -24t-19.5 -107v-21h285q160 0 245 -12.5t142 -44.5q137 -78 137 -264q0 -90 -37.5 -163t-101.5 -108q-102 -57 -400 -57h-270v-21 q0 -47 0.5 -71.5t5.5 -47t9.5 -31t19.5 -15t29 -7t43 -0.5h114v-186h-841zM688 565h146q126 0 182 21q32 13 50.5 45.5t18.5 73.5q0 38 -13.5 64.5t-33 40.5t-56.5 21.5t-68 9t-85 1.5h-141v-277z" />
<glyph unicode="&#xdf;" horiz-adv-x="1378" d="M35 0v176h53q62 0 80 14q12 12 14 34.5t2 142.5v602q0 119 14 177.5t54 102.5q59 65 179 100t284 35q232 0 355.5 -73.5t123.5 -212.5q0 -204 -254 -262q180 -40 264 -141.5t84 -280.5q0 -205 -105 -325t-286 -120q-151 0 -218 72t-67 235q0 58 2 107h172q-2 -43 -2 -109 q0 -72 15 -103.5t47 -31.5q38 0 52.5 52.5t14.5 193.5q0 144 -12.5 206t-50.5 101q-66 66 -186 66q-30 0 -50 -2v178q53 -6 74 -6q78 0 121 37.5t43 107.5q0 64 -43 102.5t-115 38.5q-86 0 -125 -57q-20 -29 -27 -69.5t-7 -118.5v-969h-500z" />
<glyph unicode="&#xe0;" horiz-adv-x="1226" d="M86 236q0 127 92 188q37 26 84 40.5t152 35.5q168 31 225 69t57 119q0 69 -59 109.5t-160 40.5q-63 0 -105 -14t-77 -48q41 8 65 8q50 0 79.5 -29.5t29.5 -80.5q0 -57 -42 -92t-110 -35q-79 0 -131.5 47.5t-52.5 118.5q0 51 27 98t73 76q118 76 361 76q157 0 247.5 -26.5 t137.5 -86.5q37 -47 49 -98.5t12 -161.5v-324q0 -66 9.5 -89t35.5 -23q31 0 42.5 27t11.5 98q0 34 -2 63h102q6 -105 6 -137q0 -60 -11.5 -97t-39.5 -65q-71 -74 -223 -74q-132 0 -209 58q-45 33 -60 106q-41 -85 -113.5 -124.5t-185.5 -39.5q-150 0 -233.5 70.5 t-83.5 196.5zM330 1352q0 22 17 30.5t59 8.5h237l115 -326h-140l-260 240q-28 28 -28 47zM436 258q0 -46 31 -75t80 -29q64 0 103.5 43t39.5 112v164q-33 -30 -52 -43t-52 -27q-65 -29 -83.5 -39.5t-31.5 -23.5q-35 -35 -35 -82z" />
<glyph unicode="&#xe1;" horiz-adv-x="1226" d="M86 236q0 127 92 188q37 26 84 40.5t152 35.5q168 31 225 69t57 119q0 69 -59 109.5t-160 40.5q-63 0 -105 -14t-77 -48q41 8 65 8q50 0 79.5 -29.5t29.5 -80.5q0 -57 -42 -92t-110 -35q-79 0 -131.5 47.5t-52.5 118.5q0 51 27 98t73 76q118 76 361 76q157 0 247.5 -26.5 t137.5 -86.5q37 -47 49 -98.5t12 -161.5v-324q0 -66 9.5 -89t35.5 -23q31 0 42.5 27t11.5 98q0 34 -2 63h102q6 -105 6 -137q0 -60 -11.5 -97t-39.5 -65q-71 -74 -223 -74q-132 0 -209 58q-45 33 -60 106q-41 -85 -113.5 -124.5t-185.5 -39.5q-150 0 -233.5 70.5 t-83.5 196.5zM436 258q0 -46 31 -75t80 -29q64 0 103.5 43t39.5 112v164q-33 -30 -52 -43t-52 -27q-65 -29 -83.5 -39.5t-31.5 -23.5q-35 -35 -35 -82zM475 1065l113 326h239q43 0 59.5 -8.5t16.5 -30.5q0 -18 -29 -47l-262 -240h-137z" />
<glyph unicode="&#xe2;" horiz-adv-x="1226" d="M86 236q0 127 92 188q37 26 84 40.5t152 35.5q168 31 225 69t57 119q0 69 -59 109.5t-160 40.5q-63 0 -105 -14t-77 -48q41 8 65 8q50 0 79.5 -29.5t29.5 -80.5q0 -57 -42 -92t-110 -35q-79 0 -131.5 47.5t-52.5 118.5q0 51 27 98t73 76q118 76 361 76q157 0 247.5 -26.5 t137.5 -86.5q37 -47 49 -98.5t12 -161.5v-324q0 -66 9.5 -89t35.5 -23q31 0 42.5 27t11.5 98q0 34 -2 63h102q6 -105 6 -137q0 -60 -11.5 -97t-39.5 -65q-71 -74 -223 -74q-132 0 -209 58q-45 33 -60 106q-41 -85 -113.5 -124.5t-185.5 -39.5q-150 0 -233.5 70.5 t-83.5 196.5zM260 1065l215 326h264l226 -326h-289l-109 166l-147 -166h-160zM436 258q0 -46 31 -75t80 -29q64 0 103.5 43t39.5 112v164q-33 -30 -52 -43t-52 -27q-65 -29 -83.5 -39.5t-31.5 -23.5q-35 -35 -35 -82z" />
<glyph unicode="&#xe3;" horiz-adv-x="1226" d="M86 236q0 127 92 188q37 26 84 40.5t152 35.5q168 31 225 69t57 119q0 69 -59 109.5t-160 40.5q-63 0 -105 -14t-77 -48q41 8 65 8q50 0 79.5 -29.5t29.5 -80.5q0 -57 -42 -92t-110 -35q-79 0 -131.5 47.5t-52.5 118.5q0 51 27 98t73 76q118 76 361 76q157 0 247.5 -26.5 t137.5 -86.5q37 -47 49 -98.5t12 -161.5v-324q0 -66 9.5 -89t35.5 -23q31 0 42.5 27t11.5 98q0 34 -2 63h102q6 -105 6 -137q0 -60 -11.5 -97t-39.5 -65q-71 -74 -223 -74q-132 0 -209 58q-45 33 -60 106q-41 -85 -113.5 -124.5t-185.5 -39.5q-150 0 -233.5 70.5 t-83.5 196.5zM256 1092q20 258 203 258q70 0 188 -39q86 -29 125 -29q37 0 49.5 12.5t20.5 53.5h129q-6 -71 -14 -105t-25 -65q-50 -88 -174 -88q-82 0 -203 45q-71 24 -102 24q-32 0 -48 -15t-20 -52h-129zM436 258q0 -46 31 -75t80 -29q64 0 103.5 43t39.5 112v164 q-33 -30 -52 -43t-52 -27q-65 -29 -83.5 -39.5t-31.5 -23.5q-35 -35 -35 -82z" />
<glyph unicode="&#xe4;" horiz-adv-x="1226" d="M86 236q0 127 92 188q37 26 84 40.5t152 35.5q168 31 225 69t57 119q0 69 -59 109.5t-160 40.5q-63 0 -105 -14t-77 -48q41 8 65 8q50 0 79.5 -29.5t29.5 -80.5q0 -57 -42 -92t-110 -35q-79 0 -131.5 47.5t-52.5 118.5q0 51 27 98t73 76q118 76 361 76q157 0 247.5 -26.5 t137.5 -86.5q37 -47 49 -98.5t12 -161.5v-324q0 -66 9.5 -89t35.5 -23q31 0 42.5 27t11.5 98q0 34 -2 63h102q6 -105 6 -137q0 -60 -11.5 -97t-39.5 -65q-71 -74 -223 -74q-132 0 -209 58q-45 33 -60 106q-41 -85 -113.5 -124.5t-185.5 -39.5q-150 0 -233.5 70.5 t-83.5 196.5zM252 1225q0 60 43.5 102.5t105.5 42.5q60 0 103 -43.5t43 -103.5q0 -61 -43.5 -104.5t-104.5 -43.5q-62 0 -104.5 43.5t-42.5 106.5zM436 258q0 -46 31 -75t80 -29q64 0 103.5 43t39.5 112v164q-33 -30 -52 -43t-52 -27q-65 -29 -83.5 -39.5t-31.5 -23.5 q-35 -35 -35 -82zM666 1225q0 60 43.5 102.5t105.5 42.5q60 0 103 -43.5t43 -103.5t-43.5 -104t-104.5 -44t-104 44t-43 106z" />
<glyph unicode="&#xe5;" horiz-adv-x="1226" d="M86 236q0 127 92 188q37 26 84 40.5t152 35.5q168 31 225 69t57 119q0 69 -59 109.5t-160 40.5q-63 0 -105 -14t-77 -48q41 8 65 8q50 0 79.5 -29.5t29.5 -80.5q0 -57 -42 -92t-110 -35q-79 0 -131.5 47.5t-52.5 118.5q0 51 27 98t73 76q118 76 361 76q157 0 247.5 -26.5 t137.5 -86.5q37 -47 49 -98.5t12 -161.5v-324q0 -66 9.5 -89t35.5 -23q31 0 42.5 27t11.5 98q0 34 -2 63h102q6 -105 6 -137q0 -60 -11.5 -97t-39.5 -65q-71 -74 -223 -74q-132 0 -209 58q-45 33 -60 106q-41 -85 -113.5 -124.5t-185.5 -39.5q-150 0 -233.5 70.5 t-83.5 196.5zM406 1245q0 83 59.5 141t144.5 58q82 0 140.5 -59.5t58.5 -141.5q0 -83 -59 -142t-142 -59q-85 0 -143.5 59t-58.5 144zM436 258q0 -46 31 -75t80 -29q64 0 103.5 43t39.5 112v164q-33 -30 -52 -43t-52 -27q-65 -29 -83.5 -39.5t-31.5 -23.5q-35 -35 -35 -82z M535 1243q0 -31 21 -52.5t52 -21.5t52.5 21.5t21.5 50.5q0 31 -21.5 52.5t-50.5 21.5q-32 0 -53.5 -21t-21.5 -51z" />
<glyph unicode="&#xe6;" horiz-adv-x="1738" d="M86 233q0 147 111 213q56 36 231 66q149 25 210.5 65t61.5 111q0 74 -59.5 117t-163.5 43q-63 0 -100 -12t-66 -43q28 4 33 4q60 0 94.5 -29.5t34.5 -81.5q0 -57 -45 -92t-117 -35q-78 0 -127 44t-49 116q0 104 96 172q47 34 143.5 54t211.5 20q134 0 205.5 -16.5 t130.5 -61.5q57 42 120 60t152 18q261 0 387 -183q51 -75 70.5 -155t19.5 -215h-629q1 -129 48.5 -197t134.5 -68q145 0 194 183h252q-52 -183 -172.5 -272t-314.5 -89q-136 0 -225.5 38t-172.5 130q-68 -92 -149 -130t-211 -38q-160 0 -250 70t-90 194zM432 268 q0 -49 31 -77.5t84 -28.5q66 0 104.5 45t38.5 123v149q-27 -27 -59 -45q-4 -2 -17 -7.5t-38 -16t-50 -21.5q-94 -41 -94 -121zM1049 569h282q-3 110 -34 160.5t-97 50.5q-37 0 -70 -18.5t-53 -50.5q-28 -49 -28 -142z" />
<glyph unicode="&#xe7;" horiz-adv-x="1091" d="M68 473q0 223 139 356.5t371 133.5q192 0 316 -93.5t124 -238.5q0 -92 -58 -152.5t-147 -60.5q-75 0 -126.5 46.5t-51.5 115.5q0 58 38 101.5t89 43.5q9 0 37 -4q-34 31 -66 44t-74 13q-104 0 -159.5 -82.5t-55.5 -238.5q0 -148 50 -225.5t145 -77.5q151 0 160 202h215 q-19 -185 -121 -284.5t-275 -100.5l-69 -86h10q18 2 39 2q84 0 133 -37.5t49 -101.5q0 -81 -72.5 -133.5t-183.5 -52.5q-103 0 -221 49l41 86q83 -35 141 -35q37 0 59.5 20.5t22.5 55.5q0 29 -20 49t-51 20q-24 0 -60 -20l-49 49l100 141q-196 26 -307.5 158t-111.5 338z " />
<glyph unicode="&#xe8;" horiz-adv-x="1130" d="M68 473q0 217 138.5 354.5t358.5 137.5q243 0 368 -138t128 -411h-629v-35q0 -104 50 -165.5t136 -61.5q154 0 175 170h251q-44 -174 -165 -264.5t-310 -90.5q-209 0 -336 115q-78 70 -121.5 173t-43.5 216zM297 1352q0 22 17 30.5t59 8.5h237l115 -326h-139l-260 240 q-29 29 -29 47zM434 573h283q-5 94 -23 140q-13 31 -44 49t-68 18q-69 0 -103 -48t-45 -159z" />
<glyph unicode="&#xe9;" horiz-adv-x="1130" d="M68 473q0 217 138.5 354.5t358.5 137.5q243 0 368 -138t128 -411h-629v-35q0 -104 50 -165.5t136 -61.5q154 0 175 170h251q-44 -174 -165 -264.5t-310 -90.5q-209 0 -336 115q-78 70 -121.5 173t-43.5 216zM434 573h283q-5 94 -23 140q-13 31 -44 49t-68 18 q-69 0 -103 -48t-45 -159zM444 1065l113 326h240q43 0 59 -8.5t16 -30.5q0 -19 -28 -47l-262 -240h-138z" />
<glyph unicode="&#xea;" horiz-adv-x="1130" d="M68 473q0 217 138.5 354.5t358.5 137.5q243 0 368 -138t128 -411h-629v-35q0 -104 50 -165.5t136 -61.5q154 0 175 170h251q-44 -174 -165 -264.5t-310 -90.5q-209 0 -336 115q-78 70 -121.5 173t-43.5 216zM225 1065l215 326h265l225 -326h-289l-109 166l-147 -166h-160 zM434 573h283q-5 94 -23 140q-13 31 -44 49t-68 18q-69 0 -103 -48t-45 -159z" />
<glyph unicode="&#xeb;" horiz-adv-x="1130" d="M68 473q0 217 138.5 354.5t358.5 137.5q243 0 368 -138t128 -411h-629v-35q0 -104 50 -165.5t136 -61.5q154 0 175 170h251q-44 -174 -165 -264.5t-310 -90.5q-209 0 -336 115q-78 70 -121.5 173t-43.5 216zM211 1225q0 60 43.5 102.5t105.5 42.5q60 0 103 -43.5 t43 -103.5q0 -61 -43 -104.5t-105 -43.5t-104.5 43.5t-42.5 106.5zM434 573h283q-5 94 -23 140q-13 31 -44 49t-68 18q-69 0 -103 -48t-45 -159zM625 1225q0 60 43.5 102.5t105.5 42.5q60 0 103 -43.5t43 -103.5t-43.5 -104t-104.5 -44t-104 44t-43 106z" />
<glyph unicode="&#xec;" horiz-adv-x="749" d="M68 0v178h69q43 0 58 3.5t24 15.5q10 11 12 34.5t2 135.5v200q0 117 -2.5 141t-15.5 35q-16 13 -78 13h-69v178h516v-567q0 -122 2.5 -144.5t15.5 -32.5q15 -12 76 -12h63v-178h-673zM111 1352q0 22 17 30.5t58 8.5h238l115 -326h-140l-260 240q-28 28 -28 47z" />
<glyph unicode="&#xed;" horiz-adv-x="749" d="M68 0v178h69q43 0 58 3.5t24 15.5q10 11 12 34.5t2 135.5v200q0 117 -2.5 141t-15.5 35q-16 13 -78 13h-69v178h516v-567q0 -122 2.5 -144.5t15.5 -32.5q15 -12 76 -12h63v-178h-673zM250 1065l112 326h240q43 0 59.5 -8.5t16.5 -30.5q0 -18 -29 -47l-262 -240h-137z" />
<glyph unicode="&#xee;" horiz-adv-x="749" d="M37 1065l209 326h250l213 -326h-281l-98 166l-137 -166h-156zM68 0v178h69q43 0 58 3.5t24 15.5q10 11 12 34.5t2 135.5v200q0 117 -2.5 141t-15.5 35q-16 13 -78 13h-69v178h516v-567q0 -122 2.5 -144.5t15.5 -32.5q15 -12 76 -12h63v-178h-673z" />
<glyph unicode="&#xef;" horiz-adv-x="749" d="M68 0v178h69q43 0 58 3.5t24 15.5q10 11 12 34.5t2 135.5v200q0 117 -2.5 141t-15.5 35q-16 13 -78 13h-69v178h516v-567q0 -122 2.5 -144.5t15.5 -32.5q15 -12 76 -12h63v-178h-673zM68 1225q0 55 40 94t97 39q53 0 92 -39.5t39 -93.5q0 -56 -39 -95.5t-94 -39.5 q-57 0 -96 39t-39 96zM414 1225q0 55 40 94t97 39q53 0 92 -39.5t39 -93.5q0 -56 -39 -95.5t-94 -39.5q-57 0 -96 39t-39 96z" />
<glyph unicode="&#xf0;" horiz-adv-x="1210" d="M68 467q0 226 134 356t378 142l-72 118l-178 -71l-60 137l162 63l-104 154h227l74 -76l178 76l59 -135l-129 -49l183 -193q123 -131 173 -239t50 -246q0 -248 -144.5 -391.5t-394.5 -143.5q-243 0 -389.5 136t-146.5 362zM446 459q0 -167 37 -243.5t119 -76.5 q86 0 125 83.5t39 266.5q0 160 -36 231t-118 71q-166 0 -166 -332z" />
<glyph unicode="&#xf1;" horiz-adv-x="1378" d="M68 0v176h63q66 0 80 14q12 12 14 34.5t2 142.5v200q0 121 -2.5 143.5t-15.5 34.5q-16 13 -78 13h-63v176h505v-135q67 95 137.5 130.5t190.5 35.5q100 0 171.5 -28t105.5 -81q28 -43 35.5 -91t7.5 -181v-217q0 -122 2.5 -144.5t15.5 -34.5q15 -12 78 -12h53v-176h-608 v176h8q66 0 80 14q11 13 13.5 37.5t2.5 139.5v215q0 57 -4 81.5t-16 49.5q-36 67 -119 67q-72 0 -113 -52.5t-41 -145.5v-215q0 -119 2.5 -143t16.5 -36q15 -12 78 -12h14v-176h-616zM332 1092q20 258 203 258q70 0 188 -39q86 -29 125 -29q37 0 49.5 12.5t20.5 53.5h129 q-6 -71 -14 -105t-25 -65q-50 -88 -174 -88q-82 0 -203 45q-71 24 -103 24t-47 -15t-20 -52h-129z" />
<glyph unicode="&#xf2;" horiz-adv-x="1210" d="M68 465q0 229 143.5 363.5t390.5 134.5q249 0 395 -134.5t146 -361.5q0 -120 -49.5 -222.5t-139.5 -170.5q-136 -105 -350 -105q-122 0 -211.5 30t-165.5 95q-159 141 -159 371zM338 1352q0 22 17 30.5t59 8.5h237l115 -326h-139l-260 240q-29 29 -29 47zM442 459 q0 -167 38.5 -243.5t121.5 -76.5q86 0 126 84.5t40 268.5q0 160 -36.5 230.5t-119.5 70.5q-170 0 -170 -334z" />
<glyph unicode="&#xf3;" horiz-adv-x="1210" d="M68 465q0 229 143.5 363.5t390.5 134.5q249 0 395 -134.5t146 -361.5q0 -120 -49.5 -222.5t-139.5 -170.5q-136 -105 -350 -105q-122 0 -211.5 30t-165.5 95q-159 141 -159 371zM442 459q0 -167 38.5 -243.5t121.5 -76.5q86 0 126 84.5t40 268.5q0 160 -36.5 230.5 t-119.5 70.5q-170 0 -170 -334zM481 1065l113 326h240q43 0 59 -8.5t16 -30.5q0 -19 -28 -47l-263 -240h-137z" />
<glyph unicode="&#xf4;" horiz-adv-x="1210" d="M68 465q0 229 143.5 363.5t390.5 134.5q249 0 395 -134.5t146 -361.5q0 -120 -49.5 -222.5t-139.5 -170.5q-136 -105 -350 -105q-122 0 -211.5 30t-165.5 95q-159 141 -159 371zM274 1065l215 326h265l225 -326h-289l-108 166l-148 -166h-160zM442 459 q0 -167 38.5 -243.5t121.5 -76.5q86 0 126 84.5t40 268.5q0 160 -36.5 230.5t-119.5 70.5q-170 0 -170 -334z" />
<glyph unicode="&#xf5;" horiz-adv-x="1210" d="M68 465q0 229 143.5 363.5t390.5 134.5q249 0 395 -134.5t146 -361.5q0 -120 -49.5 -222.5t-139.5 -170.5q-136 -105 -350 -105q-122 0 -211.5 30t-165.5 95q-159 141 -159 371zM262 1092q20 258 203 258q70 0 188 -39q86 -29 125 -29q37 0 49.5 12.5t20.5 53.5h129 q-6 -71 -14 -105t-25 -65q-50 -88 -174 -88q-82 0 -203 45q-71 24 -102 24q-32 0 -48 -15t-20 -52h-129zM442 459q0 -167 38.5 -243.5t121.5 -76.5q86 0 126 84.5t40 268.5q0 160 -36.5 230.5t-119.5 70.5q-170 0 -170 -334z" />
<glyph unicode="&#xf6;" horiz-adv-x="1210" d="M68 465q0 229 143.5 363.5t390.5 134.5q249 0 395 -134.5t146 -361.5q0 -120 -49.5 -222.5t-139.5 -170.5q-136 -105 -350 -105q-122 0 -211.5 30t-165.5 95q-159 141 -159 371zM250 1225q0 60 43.5 102.5t105.5 42.5q60 0 103 -43.5t43 -103.5q0 -61 -43.5 -104.5 t-104.5 -43.5q-62 0 -104.5 43.5t-42.5 106.5zM442 459q0 -167 38.5 -243.5t121.5 -76.5q86 0 126 84.5t40 268.5q0 160 -36.5 230.5t-119.5 70.5q-170 0 -170 -334zM664 1225q0 60 43.5 102.5t105.5 42.5q60 0 102.5 -43.5t42.5 -103.5t-43 -104t-104 -44t-104 44t-43 106z " />
<glyph unicode="&#xf7;" d="M14 575v242h998v-242h-998zM362 346q0 63 44.5 107.5t107.5 44.5q62 0 106 -44.5t44 -107.5q0 -61 -44 -105t-106 -44q-63 0 -107.5 43.5t-44.5 105.5zM362 1044q0 63 44.5 107.5t107.5 44.5q62 0 106 -44.5t44 -107.5q0 -61 -44 -105t-106 -44q-63 0 -107.5 43.5 t-44.5 105.5z" />
<glyph unicode="&#xf8;" horiz-adv-x="1218" d="M68 465q0 227 142.5 362.5t381.5 135.5q110 0 227 -35l90 149l121 -67l-80 -131q94 -60 146.5 -168.5t52.5 -243.5q0 -232 -144 -365t-397 -133q-64 0 -108.5 7.5t-104.5 27.5l-90 -143l-123 69l86 133q-110 88 -155 178t-45 224zM442 500q0 -49 13 -156l245 412 q-40 37 -98 37q-78 0 -119 -74.5t-41 -218.5zM510 176q55 -37 102 -37q44 0 82.5 29.5t53.5 73.5q26 83 26 204q0 30 -6 101q0 3 -4 53z" />
<glyph unicode="&#xf9;" horiz-adv-x="1316" d="M6 756v178h496v-580q0 -115 30 -159.5t105 -44.5q83 0 122.5 50t39.5 154v213q0 119 -2.5 142t-16.5 34q-16 13 -78 13h-73v178h512v-567q0 -122 2.5 -144.5t15.5 -32.5q15 -12 78 -12h72v-178h-510v137q-89 -168 -320 -168q-184 0 -260 92q-39 47 -49 95t-10 188v223 q0 115 -3 140t-16 36q-16 13 -78 13h-57zM354 1352q0 22 17 30.5t59 8.5h238l114 -326h-139l-260 240q-29 29 -29 47z" />
<glyph unicode="&#xfa;" horiz-adv-x="1316" d="M6 756v178h496v-580q0 -115 30 -159.5t105 -44.5q83 0 122.5 50t39.5 154v213q0 119 -2.5 142t-16.5 34q-16 13 -78 13h-73v178h512v-567q0 -122 2.5 -144.5t15.5 -32.5q15 -12 78 -12h72v-178h-510v137q-89 -168 -320 -168q-184 0 -260 92q-39 47 -49 95t-10 188v223 q0 115 -3 140t-16 36q-16 13 -78 13h-57zM500 1065l112 326h240q43 0 59.5 -8.5t16.5 -30.5q0 -18 -29 -47l-262 -240h-137z" />
<glyph unicode="&#xfb;" horiz-adv-x="1316" d="M6 756v178h496v-580q0 -115 30 -159.5t105 -44.5q83 0 122.5 50t39.5 154v213q0 119 -2.5 142t-16.5 34q-16 13 -78 13h-73v178h512v-567q0 -122 2.5 -144.5t15.5 -32.5q15 -12 78 -12h72v-178h-510v137q-89 -168 -320 -168q-184 0 -260 92q-39 47 -49 95t-10 188v223 q0 115 -3 140t-16 36q-16 13 -78 13h-57zM279 1065l215 326h264l225 -326h-289l-108 166l-148 -166h-159z" />
<glyph unicode="&#xfc;" horiz-adv-x="1316" d="M6 756v178h496v-580q0 -115 30 -159.5t105 -44.5q83 0 122.5 50t39.5 154v213q0 119 -2.5 142t-16.5 34q-16 13 -78 13h-73v178h512v-567q0 -122 2.5 -144.5t15.5 -32.5q15 -12 78 -12h72v-178h-510v137q-89 -168 -320 -168q-184 0 -260 92q-39 47 -49 95t-10 188v223 q0 115 -3 140t-16 36q-16 13 -78 13h-57zM276 1225q0 60 44 102.5t106 42.5q60 0 102.5 -43.5t42.5 -103.5q0 -62 -43 -105t-104 -43q-62 0 -105 43.5t-43 106.5zM690 1225q0 60 44 102.5t106 42.5q60 0 102.5 -43.5t42.5 -103.5t-43 -104t-104 -44t-104.5 44t-43.5 106z " />
<glyph unicode="&#xfd;" horiz-adv-x="1222" d="M0 756v178h690v-178h-76q-35 0 -47 -6t-12 -23q0 -13 14 -49l148 -373l160 373q12 32 12 45q0 18 -13.5 25.5t-44.5 7.5h-73v178h473v-178h-55q-43 0 -67 -24t-60 -107l-318 -705q-101 -223 -192 -291q-100 -71 -238 -71q-132 0 -211.5 66.5t-79.5 178.5q0 91 54 149 t139 58q73 0 119.5 -42.5t46.5 -110.5q0 -63 -36.5 -102.5t-94.5 -39.5q-21 0 -33 2q45 -32 90 -32q67 0 121 54t114 181l-323 705q-39 84 -51 100q-25 31 -80 31h-76zM508 1065l113 326h239q43 0 59.5 -8.5t16.5 -30.5q0 -18 -29 -47l-262 -240h-137z" />
<glyph unicode="&#xfe;" horiz-adv-x="1310" d="M27 -246h77q65 0 80 15q12 11 14.5 33.5t2.5 140.5v1058q0 118 -2.5 141.5t-16.5 35.5q-15 12 -78 12h-63v176h510v-575q56 93 125 132.5t176 39.5q184 0 287.5 -130.5t103.5 -361.5q0 -132 -34 -240t-97 -172q-87 -90 -254 -90q-109 0 -174 33.5t-133 122.5v-182 q0 -121 2.5 -143.5t15.5 -32.5q16 -13 78 -13h60v-176h-680v176zM553 436q0 -138 43 -215.5t119 -77.5q77 0 117 79t40 231q0 167 -36.5 244t-116.5 77t-123 -87.5t-43 -250.5z" />
<glyph unicode="&#xff;" horiz-adv-x="1222" d="M0 756v178h690v-178h-76q-35 0 -47 -6t-12 -23q0 -13 14 -49l148 -373l160 373q12 32 12 45q0 18 -13.5 25.5t-44.5 7.5h-73v178h473v-178h-55q-43 0 -67 -24t-60 -107l-318 -705q-101 -223 -192 -291q-100 -71 -238 -71q-132 0 -211.5 66.5t-79.5 178.5q0 91 54 149 t139 58q73 0 119.5 -42.5t46.5 -110.5q0 -63 -36.5 -102.5t-94.5 -39.5q-21 0 -33 2q45 -32 90 -32q67 0 121 54t114 181l-323 705q-39 84 -51 100q-25 31 -80 31h-76zM291 1225q0 60 43.5 102.5t105.5 42.5q60 0 103 -43.5t43 -103.5q0 -61 -43 -104.5t-105 -43.5 t-104.5 43.5t-42.5 106.5zM705 1225q0 60 43.5 102.5t105.5 42.5q60 0 102.5 -43.5t42.5 -103.5t-43 -104t-104 -44t-104 44t-43 106z" />
<glyph unicode="&#x152;" horiz-adv-x="2297" d="M68 688q0 327 183.5 518t498.5 191q49 0 86.5 -3.5t218.5 -25.5q46 -4 106 -4h47q46 0 94.5 1t51.5 1h841v-516h-215q-1 95 -18 152.5t-55 101.5q-37 44 -92.5 60t-172.5 16h-235v-387h80q51 0 82 16.5t51 54.5q12 23 16 52t6 96h177v-619h-177q-2 75 -7.5 107.5 t-22.5 56.5q-38 55 -127 55h-78v-426h235q125 0 175.5 15.5t91.5 66.5q38 46 54.5 103.5t16.5 146.5v47h215v-565h-841q-239 0 -299.5 -2.5t-206.5 -20.5q-82 -8 -129 -8q-115 0 -207 30.5t-178 98.5q-266 207 -266 590zM518 664q0 -264 73 -388t228 -124q116 0 160 71 q19 28 24 54t5 98v620q0 63 -6 92t-25 52q-52 61 -172 61q-155 0 -221 -123.5t-66 -412.5z" />
<glyph unicode="&#x153;" horiz-adv-x="1818" d="M68 471q0 220 149.5 356t390.5 136q107 0 185.5 -23.5t148.5 -77.5q66 54 137.5 77.5t169.5 23.5q130 0 234.5 -49t169.5 -140q51 -71 71 -151.5t25 -219.5h-635q-2 -122 46.5 -185.5t142.5 -63.5q72 0 118.5 42t61.5 121h248q-12 -65 -35.5 -109.5t-71.5 -94.5 q-74 -77 -162 -110.5t-215 -33.5q-103 0 -169.5 22t-135.5 79q-73 -54 -152.5 -77.5t-187.5 -23.5q-217 0 -350 109q-88 71 -136 173.5t-48 219.5zM444 469q0 -330 166 -330q47 0 85 30t48 77q15 70 15 223q0 195 -31 258q-14 31 -45.5 49.5t-71.5 18.5q-166 0 -166 -326z M1110 561h297q-8 117 -41.5 167t-105.5 50q-71 0 -107 -51.5t-43 -165.5z" />
<glyph unicode="&#x178;" horiz-adv-x="1447" d="M-29 1180v186h811v-186h-86q-71 0 -71 -35q0 -12 22 -55l174 -318l180 318q25 43 25 59q0 14 -17 22.5t-46 8.5h-89v186h605v-186h-78q-63 0 -98 -47q-16 -16 -82 -119l-308 -479v-156q0 -105 3 -128.5t16 -39.5q19 -25 88 -25h133v-186h-858v186h133q69 0 88 25 q13 19 16 42t3 126v156l-302 479q-22 35 -40.5 65t-24 39t-11 16t-14.5 15q-34 31 -94 31h-78zM375 1630q0 60 44 103t105 43q60 0 103 -44t43 -104q0 -61 -43 -104t-105 -43t-104.5 43t-42.5 106zM860 1630q0 60 44 103t106 43q60 0 102.5 -44t42.5 -104 q0 -62 -42.5 -104.5t-104.5 -42.5t-105 43t-43 106z" />
<glyph unicode="&#x2c6;" d="M160 1065l215 326h264l225 -326h-289l-108 166l-148 -166h-159z" />
<glyph unicode="&#x2dc;" d="M156 1092q20 258 202 258q71 0 189 -39q86 -29 125 -29q36 0 48.5 12t20.5 54h129q-6 -71 -14 -105t-25 -65q-50 -88 -174 -88q-81 0 -202 45q-71 24 -103 24t-47 -15t-20 -52h-129z" />
<glyph unicode="&#x2000;" horiz-adv-x="929" />
<glyph unicode="&#x2001;" horiz-adv-x="1858" />
<glyph unicode="&#x2002;" horiz-adv-x="929" />
<glyph unicode="&#x2003;" horiz-adv-x="1858" />
<glyph unicode="&#x2004;" horiz-adv-x="619" />
<glyph unicode="&#x2005;" horiz-adv-x="464" />
<glyph unicode="&#x2006;" horiz-adv-x="309" />
<glyph unicode="&#x2007;" horiz-adv-x="309" />
<glyph unicode="&#x2008;" horiz-adv-x="232" />
<glyph unicode="&#x2009;" horiz-adv-x="371" />
<glyph unicode="&#x200a;" horiz-adv-x="103" />
<glyph unicode="&#x2010;" horiz-adv-x="532" d="M0 369v243h532v-243h-532z" />
<glyph unicode="&#x2011;" horiz-adv-x="532" d="M0 369v243h532v-243h-532z" />
<glyph unicode="&#x2012;" horiz-adv-x="532" d="M0 369v243h532v-243h-532z" />
<glyph unicode="&#x2013;" horiz-adv-x="1214" d="M68 369v243h1079v-243h-1079z" />
<glyph unicode="&#x2014;" horiz-adv-x="1570" d="M0 369v243h1571v-243h-1571z" />
<glyph unicode="&#x2018;" horiz-adv-x="471" d="M63 1069q0 132 84 216t244 110v-90q-129 -27 -166 -148q30 21 62 21q57 0 95 -43t38 -105q0 -68 -50.5 -115t-123.5 -47q-82 0 -132.5 56t-50.5 145z" />
<glyph unicode="&#x2019;" horiz-adv-x="471" d="M61 1233q0 69 50.5 116.5t124.5 47.5q82 0 132 -56t50 -145q0 -133 -84 -217.5t-244 -112.5v92q129 27 166 146q-31 -19 -61 -19q-57 0 -95.5 43t-38.5 105z" />
<glyph unicode="&#x201a;" horiz-adv-x="471" d="M61 127q0 69 50.5 116.5t124.5 47.5q82 0 132 -56t50 -145q0 -134 -84 -218t-244 -110v91q129 27 166 147q-29 -20 -61 -20q-57 0 -95.5 42.5t-38.5 104.5z" />
<glyph unicode="&#x201c;" horiz-adv-x="919" d="M61 1071q0 131 84.5 214.5t243.5 109.5v-90q-126 -26 -166 -148q30 21 62 21q55 0 94 -43t39 -105q0 -68 -50.5 -115t-123.5 -47q-82 0 -132.5 55.5t-50.5 147.5zM512 1069q0 133 83.5 216.5t244.5 109.5v-90q-129 -27 -166 -148q30 21 61 21q57 0 95 -43t38 -105 q0 -68 -50.5 -115t-123.5 -47q-82 0 -132 56t-50 145z" />
<glyph unicode="&#x201d;" horiz-adv-x="919" d="M61 1233q0 69 50.5 116.5t124.5 47.5q82 0 132 -56t50 -145q0 -133 -84 -217.5t-244 -112.5v92q129 27 166 146q-31 -19 -63 -19q-55 0 -93.5 43t-38.5 105zM512 1233q0 69 50.5 116.5t123.5 47.5q82 0 132 -55.5t50 -147.5q0 -132 -83.5 -216t-243.5 -112v92 q126 26 166 146q-31 -19 -62 -19q-57 0 -95 43t-38 105z" />
<glyph unicode="&#x201e;" horiz-adv-x="919" d="M61 129q0 68 51 115t124 47q82 0 132 -56t50 -145q0 -132 -84 -216t-244 -112v91q65 15 105.5 50.5t60.5 96.5q-30 -18 -61 -18q-57 0 -95.5 42.5t-38.5 104.5zM512 129q0 68 50.5 115t123.5 47q82 0 132 -56t50 -147q0 -131 -84 -214.5t-243 -111.5v91q65 15 105.5 50.5 t60.5 96.5q-30 -18 -62 -18q-57 0 -95 42.5t-38 104.5z" />
<glyph unicode="&#x2022;" horiz-adv-x="1363" d="M401 692q0 120 83.5 202.5t205.5 82.5q114 0 196.5 -83.5t82.5 -199.5q0 -118 -83 -201t-200 -83t-201 82.5t-84 199.5z" />
<glyph unicode="&#x2026;" horiz-adv-x="1470" d="M78 150q0 69 49.5 117t120.5 48q66 0 115 -49t49 -116q0 -69 -49 -118.5t-117 -49.5q-69 0 -118.5 49.5t-49.5 118.5zM567 150q0 69 49.5 117t120.5 48q66 0 115 -49t49 -116q0 -69 -49 -118.5t-117 -49.5q-69 0 -118.5 49.5t-49.5 118.5zM1059 150q0 69 49.5 117 t120.5 48q66 0 115 -49t49 -116q0 -69 -49 -118.5t-117 -49.5q-69 0 -118.5 49.5t-49.5 118.5z" />
<glyph unicode="&#x202f;" horiz-adv-x="371" />
<glyph unicode="&#x2039;" horiz-adv-x="462" d="M90 477q0 66 28 130t99 161h158q-78 -170 -78 -303q0 -134 78 -291h-158q-67 92 -97 163.5t-30 139.5z" />
<glyph unicode="&#x203a;" horiz-adv-x="462" d="M86 174q80 168 80 301q0 134 -80 293h158q69 -92 99 -163t30 -140q0 -66 -28.5 -131t-100.5 -160h-158z" />
<glyph unicode="&#x205f;" horiz-adv-x="464" />
<glyph unicode="&#x20ac;" horiz-adv-x="1538" d="M39 500l57 137h109q-2 16 -2 39q0 37 2 57h-166l57 137h127q49 246 229.5 386.5t446.5 140.5q134 0 212 -30.5t153 -113.5l28 113h209v-530h-209q-2 113 -34.5 193.5t-101.5 126.5t-171 46q-125 0 -206.5 -85.5t-110.5 -246.5h481l-57 -137h-437q-2 -20 -2 -39 q0 -28 2 -57h398l-58 -137h-325q31 -165 112 -250.5t207 -85.5q97 0 166.5 47t104.5 137q26 64 32 201h209q0 -90 -9.5 -144.5t-37.5 -117.5q-69 -161 -207 -239.5t-352 -78.5q-278 0 -450 135.5t-226 395.5h-180z" />
<glyph unicode="&#x2122;" horiz-adv-x="2162" d="M-14 1053v313h864v-313h-150v34q0 162 -135 162h-18v-444q0 -74 7.5 -87t49.5 -13h78v-119h-537v119h78h25t16 4t11 8.5t5 17.5t3 27.5v42.5v444q-80 0 -117.5 -47.5t-36.5 -148.5h-143zM868 586v119h78q44 0 52 13t8 87v342q0 73 -8.5 86.5t-51.5 13.5h-76v119h500 l127 -446l129 446h502v-119h-76q-21 0 -28.5 -1.5t-16 -4.5t-10.5 -16t-3 -28.5t-1 -49.5v-342q0 -74 7.5 -87t49.5 -13h78v-119h-504v119h51q44 0 52 13t8 87v385l-185 -604h-204l-185 604v-385v-42.5t3 -27.5t5 -17.5t11 -8.5t16 -4h25h49v-119h-402z" />
</font>
</defs>
</svg>
