<?xml version="1.0" standalone="no"?>
<!DOCTYPE svg PUBLIC "-//W3C//DTD SVG 1.1//EN" "http://www.w3.org/Graphics/SVG/1.1/DTD/svg11.dtd" >
<svg xmlns="http://www.w3.org/2000/svg">
<metadata></metadata>
<defs>
<font id="ClarendonFSRegular" horiz-adv-x="1161" >
<font-face units-per-em="2048" ascent="1591" descent="-457" />
<missing-glyph horiz-adv-x="512" />
<glyph unicode="&#xfb01;" horiz-adv-x="1345" d="M41 844v112h195v86q0 163 119.5 253.5t336.5 90.5q195 0 313.5 -53.5t118.5 -142.5q0 -52 -34.5 -85.5t-88.5 -33.5t-87 31t-33 82q0 31 18 71q-94 48 -227 48q-121 0 -178.5 -59.5t-57.5 -184.5v-103h666v-718q0 -85 20 -107t97 -22h73v-109h-565v109h57q77 0 97 22 t20 107v477q0 86 -19.5 107.5t-95.5 21.5h-350v-606q0 -85 20 -107t97 -22h86v-109h-594v109h74q77 0 97 22t20 107v606h-195z" />
<glyph unicode="&#xfb02;" horiz-adv-x="1345" d="M41 844v112h195v82q0 73 14.5 118.5t50.5 86.5q57 67 154 105t211 38q124 0 239 -49l197 29v-1128q0 -85 20 -107t97 -22h73v-109h-553v109h45q77 0 97 22t20 107v606h-465v-606q0 -85 20 -107t97 -22h86v-109h-594v109h74q77 0 97 22t20 107v606h-195zM436 956h465v99 q0 248 -233 248q-232 0 -232 -248v-99z" />
<glyph unicode="&#xfb03;" horiz-adv-x="2013" d="M41 844v112h195v82q0 72 14 118t49 87q58 67 155.5 105t211.5 38q183 0 340 -104q66 55 149.5 79.5t202.5 24.5q195 0 313.5 -53.5t118.5 -142.5q0 -52 -34.5 -85.5t-88.5 -33.5t-87.5 31t-33.5 82q0 29 19 71q-94 48 -228 48q-121 0 -178 -59.5t-57 -184.5v-103h665 v-718q0 -85 20 -107t97 -22h74v-109h-565v109h57q77 0 97 22t20 107v477q0 86 -19.5 107.5t-95.5 21.5h-350v-606q0 -85 20 -107t97 -22h86v-109h-594v109h73q77 0 97 22t20 107v606h-465v-606q0 -85 20 -107t97 -22h86v-109h-594v109h74q77 0 97 22t20 107v606h-195z M436 956h465v99q0 245 -233 245q-232 0 -232 -245v-99z" />
<glyph unicode="&#xfb04;" horiz-adv-x="2013" d="M41 844v112h195v82q0 72 14 118t49 87q58 67 155.5 105t211.5 38q183 0 340 -104q134 104 323 104q130 0 242 -49l196 29v-1128q0 -85 20 -107t97 -22h74v-109h-553v109h45q77 0 97 22t20 107v606h-465v-606q0 -85 20 -107t97 -22h86v-109h-594v109h73q77 0 97 22t20 107 v606h-465v-606q0 -85 20 -107t97 -22h86v-109h-594v109h74q77 0 97 22t20 107v606h-195zM436 956h465v99q0 245 -233 245q-232 0 -232 -245v-99zM1102 956h465v99q0 245 -234 245q-231 0 -231 -245v-99z" />
<glyph horiz-adv-x="0" />
<glyph horiz-adv-x="2048" />
<glyph unicode=" "  horiz-adv-x="512" />
<glyph unicode="&#x09;" horiz-adv-x="512" />
<glyph unicode="&#xa0;" horiz-adv-x="512" />
<glyph unicode="!" horiz-adv-x="546" d="M137 102q0 57 40.5 96.5t98.5 39.5q54 0 94 -40.5t40 -95.5q0 -57 -40 -97t-96 -40q-57 0 -97 40t-40 97zM139 1206q-3 54 37 93.5t98 39.5q60 0 98 -38.5t38 -98.5q0 -30 -7 -88l-84 -784h-92l-80 794l-4 40l-3 30t-1 12z" />
<glyph unicode="&#x22;" horiz-adv-x="761" d="M104 1366h224l-39 -549h-148zM438 1366h221l-36 -549h-150z" />
<glyph unicode="#" d="M-2 401l29 183h219l35 225h-220l29 182h217l60 375h204l-59 -375h231l58 375h207l-60 -375h215l-26 -182h-215l-35 -225h217l-29 -183h-217l-63 -401h-207l63 401h-229l-64 -401h-204l63 401h-219zM451 584h229l35 225h-230z" />
<glyph unicode="$" d="M104 272q0 79 40 131t102 52q55 0 90 -35.5t35 -89.5q0 -49 -29.5 -84t-69.5 -35q-15 0 -36 8q24 -38 53 -59.5t80 -38.5q61 -21 129 -21h18v467q-193 55 -270 107q-135 90 -135 260q0 179 108 285.5t297 113.5v76h109v-76q169 -9 279 -88.5t110 -193.5q0 -66 -40 -110 t-100 -44q-51 0 -83.5 32t-32.5 83q0 46 24 75.5t68 36.5q-17 34 -85 60t-140 26v-450q126 -36 184.5 -58.5t101.5 -50.5q69 -44 106.5 -117.5t37.5 -162.5q0 -94 -42.5 -178.5t-113.5 -131.5q-89 -61 -274 -81v-125h-109v125q-150 8 -233 45q-86 37 -132.5 101t-46.5 146z M295 993q0 -75 38.5 -118t133.5 -74l49 -17v424q-62 -11 -95 -23.5t-61 -37.5q-65 -59 -65 -154zM625 100q235 46 235 226q0 53 -25.5 97t-70.5 69q-49 29 -139 49v-441z" />
<glyph unicode="%" horiz-adv-x="1472" d="M94 1032q0 166 67 260t185 94q45 0 90.5 -19t73.5 -50q40 -44 63 -121t23 -166q0 -167 -66.5 -258.5t-187.5 -91.5q-117 0 -182.5 93.5t-65.5 258.5zM229 1059q0 -164 27 -231.5t92 -67.5q62 0 89.5 63.5t27.5 204.5q0 143 -27.5 209t-87.5 66q-66 0 -93.5 -55.5 t-27.5 -188.5zM293 0l815 1354h123l-825 -1354h-113zM872 332q0 166 67 260t185 94q44 0 90 -19.5t74 -50.5q40 -44 63 -120.5t23 -165.5q0 -167 -66.5 -258.5t-187.5 -91.5q-117 0 -182.5 93.5t-65.5 258.5zM1008 358q0 -164 27 -231.5t93 -67.5q61 0 89 64t28 205 q0 143 -28 208.5t-89 65.5q-66 0 -93 -55t-27 -189z" />
<glyph unicode="&#x26;" horiz-adv-x="1505" d="M68 360q0 169 131 285q55 48 202 113q-79 144 -79 256q0 130 83.5 208t221.5 78q123 0 199.5 -69.5t76.5 -181.5q0 -103 -60 -175.5t-200 -138.5q123 -189 175 -261.5t138 -174.5q68 100 95.5 164.5t27.5 122.5q0 78 -73 78h-76v108h536v-108h-61q-39 0 -59.5 -4.5 t-44.5 -28.5t-43.5 -59.5t-57.5 -112.5q-60 -121 -158 -244q82 -88 168 -88q82 0 128 73t46 201h121q-1 -204 -84 -316t-231 -112q-73 0 -138 26.5t-149 90.5q-154 -119 -364 -119q-215 0 -343 105.5t-128 283.5zM279 393q0 -125 87 -209t216 -84q119 0 231 76 q-37 41 -62.5 71.5t-58.5 75.5t-50 69.5t-71 104t-88 128.5l-22 32q-98 -59 -140 -119t-42 -145zM506 1049q0 -86 82 -218q92 63 130 113.5t38 110.5q0 59 -34 95t-89 36q-54 0 -90.5 -38.5t-36.5 -98.5z" />
<glyph unicode="'" horiz-adv-x="430" d="M104 1366h224l-39 -549h-148z" />
<glyph unicode="(" horiz-adv-x="731" d="M178 498q0 490 271 743q71 67 138.5 103.5t157.5 56.5v-115q-94 -35 -157 -92t-109 -147q-41 -84 -59.5 -211.5t-18.5 -335.5q0 -248 25.5 -390t85.5 -235q48 -72 99.5 -113t133.5 -71v-113q-224 43 -389 262q-178 243 -178 658z" />
<glyph unicode=")" horiz-adv-x="731" d="M-14 -309q94 35 157 92t109 147q41 85 59.5 213t18.5 336q0 247 -25.5 388.5t-85.5 234.5q-48 71 -99.5 112.5t-133.5 73.5v113q228 -46 389 -264q178 -243 178 -658q0 -488 -270 -743q-70 -66 -138 -102t-159 -56v113z" />
<glyph unicode="*" horiz-adv-x="923" d="M104 1110q0 46 29 78.5t70 32.5q34 0 71 -29l91 -80q29 -25 47 -25q7 0 11.5 5.5t4.5 11.5q0 5 -8 29l-55 147q-7 21 -7 39q0 38 30.5 64t74.5 26q46 0 75 -25t29 -65q0 -21 -6 -39l-55 -147q-6 -15 -6 -31q0 -6 4.5 -10.5t11.5 -4.5q16 0 45 25l90 80q37 29 72 29 q40 0 69 -32.5t29 -78.5t-26.5 -71t-77.5 -25q-15 0 -23 2l-94 12q-12 2 -31 2q-41 0 -41 -22q0 -16 35 -37l109 -70q23 -13 38 -38t15 -50q0 -37 -35 -68.5t-76 -31.5q-66 0 -90 86l-28 102q-17 60 -35 58.5t-33 -58.5l-27 -102q-22 -86 -90 -86q-41 0 -75.5 32t-34.5 70 q0 23 15 48t38 38l108 70q33 20 33 37q0 22 -39 22q-18 0 -28 -2l-97 -12q-8 -2 -22 -2q-51 0 -78 25t-27 71z" />
<glyph unicode="+" d="M137 596v186h344v334h201v-334h342v-186h-342v-334h-201v334h-344z" />
<glyph unicode="," horiz-adv-x="546" d="M121 96q0 60 40.5 100t100.5 40q70 0 116 -57.5t46 -145.5q0 -123 -76.5 -206.5t-204.5 -102.5v83q78 13 124.5 66t49.5 131q-20 -17 -35.5 -23t-41.5 -6q-51 0 -85 35t-34 86z" />
<glyph unicode="-" horiz-adv-x="493" d="M0 469v184h494v-184h-494z" />
<glyph unicode="." horiz-adv-x="546" d="M137 100q0 55 40 94t97 39q54 0 94 -40t40 -95t-40 -95t-96 -40q-57 0 -96 40t-39 97z" />
<glyph unicode="/" horiz-adv-x="675" d="M-94 -416l569 1782h172l-571 -1782h-170z" />
<glyph unicode="0" d="M104 668q0 194 39.5 325t124.5 217q58 61 142 95t178 34q78 0 151.5 -26.5t126.5 -75.5q191 -173 191 -575q0 -324 -127.5 -506.5t-354.5 -182.5q-221 0 -346 184.5t-125 510.5zM336 680q0 -174 6.5 -256t26.5 -150q25 -86 80 -133t131 -47q59 0 111 32t77 83 q35 72 46 162.5t11 312.5q0 173 -7.5 256t-29.5 135q-56 146 -200 146q-78 0 -127.5 -30.5t-77.5 -94.5q-29 -71 -38 -149t-9 -267z" />
<glyph unicode="1" horiz-adv-x="1159" d="M233 0v109h154q64 0 89.5 28.5t25.5 100.5v718h-269v113q138 9 225.5 78t104.5 184h148v-1093q0 -77 22.5 -103t91.5 -26h150v-109h-742z" />
<glyph unicode="2" d="M100 0v43q0 88 6 146t29 115.5t56 97.5t98 90t143 95t203 111q78 41 120 106.5t42 143.5q0 110 -80.5 178t-210.5 68q-222 0 -287 -188q46 26 84 26q51 0 85 -33t34 -84q0 -63 -40 -103t-103 -40q-77 0 -127 58t-50 147q0 152 131 257t320 105q210 0 342.5 -111 t132.5 -286q0 -185 -160 -309q-73 -55 -262 -131q-194 -76 -266.5 -136t-91.5 -157q37 34 67 46.5t74 12.5q63 0 205 -37q162 -40 195 -42q9 -1 20 -1q147 0 147 226q0 23 -2 37h107q0 -42 -2 -50q-6 -152 -18 -213t-48 -112q-29 -42 -79.5 -66t-108.5 -24q-99 0 -242 63 q-128 57 -167.5 70.5t-82.5 13.5q-51 0 -66.5 -29.5t-15.5 -103.5h-131z" />
<glyph unicode="3" d="M70 295q0 78 45.5 129t115.5 51q57 0 97.5 -41t40.5 -98q0 -60 -38.5 -93.5t-107.5 -33.5h-8q60 -117 252 -117q134 0 213 51q60 38 94.5 103.5t34.5 140.5q0 118 -83 187t-226 69q-35 0 -76 -8v121q25 -4 51 -4q130 0 195 43q46 29 74 84t28 114q0 94 -81.5 156.5 t-203.5 62.5q-159 0 -247 -94h16q57 0 91 -31.5t34 -85.5q0 -57 -41.5 -94t-103.5 -37q-63 0 -102.5 46t-39.5 120q0 130 124 216.5t312 86.5q209 0 341.5 -93.5t132.5 -241.5q0 -207 -267 -295q146 -34 220.5 -115.5t74.5 -206.5q0 -86 -36.5 -162.5t-104.5 -132.5 q-139 -119 -393 -119q-197 0 -308 90q-58 45 -89 106t-31 126z" />
<glyph unicode="4" d="M82 383v145l623 803h143v-803h188v-145h-188v-145q0 -77 25.5 -103t101.5 -26h61v-109h-620v109h116q115 0 115 129v145h-565zM229 528h418v541z" />
<glyph unicode="5" d="M123 281q0 79 43.5 131.5t109.5 52.5q59 0 98.5 -37t39.5 -94q0 -46 -24.5 -79.5t-67.5 -43.5q-14 -4 -56 -4q32 -54 97 -83.5t151 -29.5q144 0 232 100t88 263q0 145 -82.5 228t-227.5 83q-80 0 -136.5 -25.5t-100.5 -80.5h-123l55 669h21q198 -67 362 -67 q132 0 218 17.5t171 61.5l33 -20q-77 -131 -182 -183.5t-293 -52.5q-142 0 -230 23l-28 -305q121 100 301 100q207 0 340 -123.5t133 -316.5q0 -211 -145.5 -351.5t-370.5 -140.5q-187 0 -306.5 86.5t-119.5 221.5z" />
<glyph unicode="6" horiz-adv-x="1159" d="M121 588q0 364 143.5 557.5t413.5 193.5q157 0 258.5 -68.5t101.5 -174.5q0 -69 -42 -115.5t-105 -46.5q-58 0 -93.5 35t-35.5 92q0 100 86 106q-58 52 -170 52q-115 0 -193.5 -68.5t-109.5 -196.5q-24 -96 -27 -231q68 66 139 96.5t160 30.5q186 0 302 -117t116 -305 q0 -210 -137 -344q-63 -60 -136 -86.5t-174 -26.5q-253 0 -378 166q-119 151 -119 451zM352 397q0 -138 68.5 -221.5t183.5 -83.5q110 0 176 87.5t66 234.5q0 138 -65.5 218.5t-178.5 80.5q-119 0 -184.5 -82.5t-65.5 -233.5z" />
<glyph unicode="7" d="M96 807v514h121v-111q41 64 91 93.5t116 29.5q94 0 227 -55q112 -47 145 -57.5t68 -10.5q46 0 68.5 25.5t23.5 79.5q0 2 2 6h103q2 -25 2 -64q0 -85 -17.5 -145t-66.5 -141q-2 -3 -191 -281q-108 -159 -147 -304t-41 -386h-217q2 111 7.5 186t20.5 148.5t36.5 126 t61 116.5t87.5 123t123 142q127 142 165.5 196t53.5 111q-80 -92 -197 -92q-53 0 -174 33q-101 26 -170 26q-87 0 -133.5 -41.5t-46.5 -118.5v-149h-121z" />
<glyph unicode="8" d="M98 326q0 113 58.5 192t191.5 148q-223 87 -223 307q0 152 113 256q63 58 142.5 84t192.5 26q211 0 332 -84.5t121 -232.5q0 -58 -19 -105.5t-56.5 -83.5t-75.5 -61.5t-93 -52.5q277 -116 277 -348q0 -178 -135 -288t-355 -110q-217 0 -344 95t-127 258zM260 348 q0 -107 87.5 -175.5t225.5 -68.5q126 0 208.5 60t82.5 151q0 147 -254 238l-147 53q-95 -46 -149 -114.5t-54 -143.5zM307 1034q0 -112 189 -190l172 -72q55 32 79.5 48.5t45.5 39.5q27 27 43 67t16 79q0 100 -75.5 156.5t-207.5 56.5q-114 0 -188 -52.5t-74 -132.5z" />
<glyph unicode="9" d="M94 885q0 204 124 329t327 125q107 0 198.5 -35t151.5 -100q75 -80 109 -193t34 -284q0 -372 -142.5 -563t-420.5 -191q-157 0 -256.5 69.5t-99.5 178.5q0 69 41.5 113.5t107.5 44.5q58 0 94.5 -36t36.5 -93q0 -88 -88 -107q66 -49 162 -49q196 0 285 185q28 60 40 129.5 t13 181.5q-75 -67 -143 -96t-152 -29q-186 0 -304 117t-118 303zM313 901q0 -141 66 -220t184 -79q113 0 178.5 83.5t65.5 225.5q0 138 -68 223t-180 85t-179 -86.5t-67 -231.5z" />
<glyph unicode=":" horiz-adv-x="546" d="M137 100q0 55 40 94t97 39q54 0 94 -40t40 -95t-40 -95t-96 -40q-57 0 -96 40t-39 97zM137 821q0 55 40 94t97 39q54 0 94 -40t40 -95t-40 -95t-96 -40q-57 0 -96 40t-39 97z" />
<glyph unicode=";" horiz-adv-x="546" d="M121 96q0 60 40.5 100t100.5 40q70 0 116 -57.5t46 -145.5q0 -123 -76.5 -206.5t-204.5 -102.5v83q78 13 124.5 66t49.5 131q-20 -17 -35.5 -23t-41.5 -6q-51 0 -85 35t-34 86zM125 821q0 55 40 94t97 39q54 0 93.5 -40t39.5 -95t-39.5 -95t-95.5 -40q-57 0 -96 40 t-39 97z" />
<glyph unicode="&#x3c;" horiz-adv-x="1024" d="M68 594v172l886 432v-201l-673 -317l673 -320v-198z" />
<glyph unicode="=" d="M137 444v177h887v-177h-887zM137 776v176h887v-176h-887z" />
<glyph unicode="&#x3e;" horiz-adv-x="1024" d="M68 162v200l673 318l-673 319v199l886 -432v-172z" />
<glyph unicode="?" horiz-adv-x="1140" d="M68 973q0 164 126.5 265t333.5 101q205 0 333 -103t128 -269q0 -107 -49.5 -180.5t-187.5 -170.5q-109 -76 -144.5 -128.5t-46.5 -149.5h-110q0 115 34.5 193.5t130.5 175.5q87 90 116.5 143t29.5 121q0 103 -82 171t-205 68q-74 0 -137.5 -26.5t-101.5 -73.5 q-36 -41 -46 -113q52 25 86 25q51 0 86 -37.5t35 -91.5q0 -62 -43.5 -103.5t-107.5 -41.5q-77 0 -127.5 64t-50.5 161zM369 102q0 57 40.5 96.5t98.5 39.5q54 0 93.5 -40.5t39.5 -95.5q0 -57 -39.5 -97t-95.5 -40q-57 0 -97 40t-40 97z" />
<glyph unicode="@" horiz-adv-x="1501" d="M63 498q0 149 56 282t152 229t229.5 152t283.5 56q138 0 258.5 -46.5t206.5 -127t135.5 -193.5t49.5 -242q0 -125 -47 -237t-125.5 -179t-165.5 -67q-60 0 -102.5 35t-51.5 92q-42 -66 -110.5 -102.5t-145.5 -36.5q-126 0 -208.5 93.5t-82.5 235.5q0 167 107.5 290.5 t253.5 123.5q154 0 215 -129l20 107l144 -3l-80 -413q-15 -84 -15 -92q0 -37 17 -59.5t45 -22.5q78 0 141.5 112t63.5 250q0 212 -145.5 346.5t-373.5 134.5q-163 0 -297 -77.5t-211 -213.5t-77 -300q0 -117 41.5 -225t117.5 -187q158 -162 431 -162q220 0 409 80l37 -127 q-200 -82 -446 -82q-320 0 -519 193q-100 97 -155.5 232t-55.5 280zM557 446q0 -84 46 -136t118 -52q86 0 147.5 80t61.5 192q0 82 -42.5 130.5t-113.5 48.5q-88 0 -152.5 -78.5t-64.5 -184.5z" />
<glyph unicode="A" horiz-adv-x="1550" d="M-35 0v117h72q72 0 110.5 37t83.5 153l424 1059h215l465 -1087q13 -32 23 -54t17 -34t10.5 -17.5t9 -11.5t6.5 -8q30 -37 108 -37h74v-117h-665v117h114q55 0 76.5 10t21.5 35q0 22 -18 63l-96 230h-576l-71 -176q-19 -51 -19 -93q0 -38 26 -53.5t89 -15.5h106v-117h-606 zM485 580h480l-252 585z" />
<glyph unicode="B" horiz-adv-x="1509" d="M68 0v117h77q84 0 110 23t26 98v890q0 75 -26 98t-110 23h-77v117h811q233 0 357 -86.5t124 -249.5q0 -122 -69.5 -202t-196.5 -105q160 -19 246.5 -106t86.5 -228q0 -104 -50 -190t-138 -133q-126 -66 -334 -66h-837zM502 125h362q316 0 316 260q0 118 -79 190t-210 72 h-389v-522zM502 772h352q126 0 198 64t72 178q0 109 -70 168t-200 59h-352v-469z" />
<glyph unicode="C" horiz-adv-x="1478" d="M102 668q0 169 56.5 313t163.5 248q92 88 199 129t243 41q133 0 222.5 -32.5t205.5 -123.5l61 137h113v-546h-113q-22 189 -142.5 305t-293.5 116q-207 0 -337 -160.5t-130 -416.5q0 -252 123.5 -403.5t329.5 -151.5q180 0 305.5 112t159.5 304h135q-12 -118 -45 -204.5 t-96 -162.5q-89 -107 -204.5 -157t-275.5 -50q-308 0 -494 192.5t-186 510.5z" />
<glyph unicode="D" horiz-adv-x="1613" d="M68 0v117h77q84 0 110 23t26 98v890q0 75 -26 98t-110 23h-77v117h815q283 0 455.5 -181.5t172.5 -477.5q0 -326 -173.5 -516.5t-471.5 -190.5h-798zM502 125h323q212 0 325.5 146t113.5 421q0 271 -117 410t-344 139h-301v-1116z" />
<glyph unicode="E" horiz-adv-x="1542" d="M68 0v117h90q83 0 109 23t26 98v890q0 75 -26 98t-109 23h-90v117h1321v-510h-121v37q0 170 -71.5 259t-207.5 89h-475v-473h199q166 0 166 170v90h120v-645h-120v70q0 104 -38.5 151t-123.5 47h-203v-526h385q160 0 238.5 32.5t109.5 110.5q20 50 27 109.5t12 206.5h125 v-584h-1343z" />
<glyph unicode="F" horiz-adv-x="1374" d="M68 0v117h90q83 0 109 23t26 98v890q0 75 -26 98t-109 23h-90v117h1300v-524h-121q2 20 2 47q0 352 -323 352h-412v-469h197q83 0 120 43.5t37 140.5v82h125v-661h-125v88q0 97 -37 139.5t-122 42.5h-195v-409q0 -75 26 -98t109 -23h90v-117h-671z" />
<glyph unicode="G" horiz-adv-x="1640" d="M102 668q0 153 50 290.5t141 237.5q185 203 491 203q130 0 228.5 -37t185.5 -117l59 141h115v-528h-115q-33 159 -108 248q-56 65 -145 102t-189 37q-112 0 -208 -48.5t-152 -133.5q-105 -157 -105 -397q0 -243 128 -391t337 -148q80 0 155 26.5t130 75.5q69 63 69 156 v125q0 51 -25.5 69.5t-94.5 18.5h-111v117h661v-117h-112q-56 0 -76 -18.5t-20 -69.5v-496h-111l-55 156q-144 -205 -432 -205q-201 0 -358.5 89t-245 249t-87.5 365z" />
<glyph unicode="H" horiz-adv-x="1755" d="M68 0v117h90q83 0 109 23t26 98v890q0 75 -26 98t-109 23h-90v117h671v-117h-90q-83 0 -109 -23t-26 -98v-350h725v350q0 75 -26 98t-109 23h-90v117h672v-117h-91q-83 0 -109 -23t-26 -98v-890q0 -75 26 -98t109 -23h91v-117h-672v117h90q83 0 109 23t26 98v415h-725 v-415q0 -75 26 -98t109 -23h90v-117h-671z" />
<glyph unicode="I" horiz-adv-x="808" d="M68 0v117h90q83 0 109 23t26 98v890q0 75 -26 98t-109 23h-90v117h671v-117h-90q-83 0 -109 -23t-26 -98v-890q0 -75 26 -98t109 -23h90v-117h-671z" />
<glyph unicode="J" horiz-adv-x="1019" d="M-35 260q0 76 50 131t118 55q63 0 107.5 -43t44.5 -106q0 -97 -103 -135q-24 -8 -24 -23q0 -23 40.5 -41t94.5 -18q63 0 114 26t76 72q19 34 26 84t7 150v716q0 75 -26 98t-109 23h-98v117h667v-117h-78q-83 0 -109 -23t-26 -98v-739q0 -118 -19.5 -185.5t-70.5 -121.5 q-108 -117 -305 -117q-166 0 -271.5 82.5t-105.5 212.5z" />
<glyph unicode="K" horiz-adv-x="1599" d="M68 0v117h77q84 0 110 23t26 98v890q0 75 -26 98t-110 23h-77v117h647v-117h-78q-83 0 -109 -23t-26 -98v-483l456 406q102 92 124 118t22 50q0 18 -11.5 25t-41.5 7h-158v115h694v-115h-67q-101 0 -152 -28q-23 -11 -43.5 -27t-93.5 -80l-283 -248l455 -630 q61 -84 87 -102.5t85 -18.5h51v-117h-668v117h125q74 0 74 37q0 16 -12.5 37.5t-61.5 89.5l-311 434l-270 -238v-239q0 -75 26 -98t109 -23h78v-117h-647z" />
<glyph unicode="L" horiz-adv-x="1316" d="M68 0v117h90q83 0 109 23t26 98v890q0 75 -26 98t-109 23h-90v117h677v-117h-96q-83 0 -109 -23t-26 -98v-1003h381q102 0 163 36.5t99 121.5q41 83 49 297h117v-580h-1255z" />
<glyph unicode="M" horiz-adv-x="2011" d="M68 0v117h77q84 0 110 23t26 98v890q0 75 -26 98t-110 23h-77v117h542l400 -1018l401 1018h531v-117h-78q-83 0 -109 -23t-26 -98v-890q0 -75 26 -98t109 -23h78v-117h-648v117h78q83 0 109 23t26 98v974l-487 -1212h-105l-493 1212v-974q0 -75 26 -98t109 -23h78v-117 h-567z" />
<glyph unicode="N" horiz-adv-x="1685" d="M68 0v117h77q84 0 110 23t26 98v890q0 75 -26 98t-110 23h-77v117h467l757 -1024v786q0 75 -26 98t-109 23h-90v117h563v-117h-61q-83 0 -109 -23t-26 -98v-1128h-166l-846 1133v-895q0 -75 26 -98t109 -23h90v-117h-579z" />
<glyph unicode="O" horiz-adv-x="1644" d="M102 674q0 193 78 356.5t215 255.5q170 115 430 115q218 0 381.5 -91.5t249.5 -253.5t86 -372q0 -185 -71 -339t-201 -249q-177 -131 -449 -131q-282 0 -465 146q-123 97 -188.5 242.5t-65.5 320.5zM350 670q0 -146 29 -246.5t94 -177.5q65 -74 154.5 -114t191.5 -40 q224 0 349.5 158t125.5 440q0 314 -178 473q-120 111 -282 111q-223 0 -357 -158q-127 -148 -127 -446z" />
<glyph unicode="P" horiz-adv-x="1370" d="M68 0v117h90q83 0 109 23t26 98v890q0 75 -26 98t-109 23h-90v117h841q119 0 188.5 -15t127.5 -53q145 -93 145 -311q0 -100 -33 -176t-94 -117q-58 -39 -130.5 -55t-190.5 -16h-408v-385q0 -75 25.5 -98t107.5 -23h105v-117h-684zM514 748h334q143 0 212.5 60.5 t69.5 184.5q0 126 -75 191q-65 57 -209 57h-332v-493z" />
<glyph unicode="Q" horiz-adv-x="1658" d="M102 676q0 153 50.5 289.5t142.5 234.5q189 201 530 201q325 0 512 -184q99 -99 152 -237.5t53 -299.5q0 -386 -285 -594q37 -58 75.5 -84.5t88.5 -26.5q47 0 80 31t39 82q3 23 6 117h107v-45q0 -111 -14 -166.5t-54 -108.5q-70 -88 -184 -88q-185 0 -301 213 q-118 -45 -275 -45q-328 0 -525.5 194t-197.5 517zM350 676q0 -365 197 -496q-8 33 -8 60q0 91 69.5 151t173.5 60q67 0 133.5 -25t118.5 -68q55 -46 123 -135q137 168 137 467q0 146 -35 253t-110 190q-126 141 -320 141q-223 0 -351 -160t-128 -438zM629 193q0 -27 22 -70 q85 -31 176 -31q112 0 191 33q-112 199 -252 199q-58 0 -97.5 -37.5t-39.5 -93.5z" />
<glyph unicode="R" horiz-adv-x="1564" d="M68 0v117h77q84 0 110 23t26 98v890q0 75 -26 98t-110 23h-77v117h925q105 0 169.5 -17.5t115.5 -60.5t81 -114t30 -146q0 -80 -33 -148t-94 -114q-42 -32 -86.5 -47t-114.5 -23q132 -35 180 -110.5t51 -249.5q1 -121 18 -163t60 -42q40 0 58 30.5t18 96.5v150h110v-150 q0 -91 -16.5 -142t-56.5 -83q-69 -56 -174 -56q-130 0 -187 82q-23 33 -33.5 78.5t-15.5 120.5q-9 173 -21.5 232.5t-47.5 99.5q-57 63 -179 63h-323v-415q0 -75 26 -98t109 -23h90v-117h-659zM502 778h399q117 0 182.5 62.5t65.5 173.5q0 227 -260 227h-387v-463z" />
<glyph unicode="S" horiz-adv-x="1357" d="M109 969q0 195 141 313.5t371 118.5q127 0 219 -31.5t200 -109.5l47 118h109v-508h-113q-19 100 -45.5 161.5t-70.5 107.5q-57 57 -141 87.5t-183 30.5q-141 0 -236.5 -68t-95.5 -169q0 -114 121 -156q41 -13 81.5 -20.5t246.5 -38.5q243 -37 340 -92q75 -41 119.5 -123 t44.5 -180q0 -196 -143 -320.5t-369 -124.5q-93 0 -185.5 21.5t-154.5 56.5q-56 33 -136 102l-51 -145h-110v547h127q9 -106 37.5 -174.5t85.5 -124.5q67 -64 165 -101.5t199 -37.5q140 0 229 68t89 175q0 103 -78 150q-42 27 -106 43t-204 35q-165 23 -240.5 41.5 t-142.5 52.5q-167 83 -167 295z" />
<glyph unicode="T" horiz-adv-x="1296" d="M20 848v518h1256v-518h-115q-3 161 -35 256q-14 38 -44 71t-68 50q-39 16 -135 16h-115v-1003q0 -75 26 -98t109 -23h105v-117h-703v117h100q84 0 110 23t26 98v1003h-107q-76 0 -113.5 -8.5t-72.5 -34.5q-41 -29 -61.5 -71t-32.5 -123q-13 -99 -13 -156h-117z" />
<glyph unicode="U" horiz-adv-x="1589" d="M35 1249v117h655v-117h-78q-83 0 -109 -23t-26 -98v-696q0 -89 24.5 -145.5t78.5 -93.5q101 -72 256 -72q182 0 278 96q47 47 67.5 116.5t20.5 184.5v610q0 75 -26 98t-109 23h-90v117h579v-117h-77q-84 0 -110 -23t-26 -98v-696q0 -208 -139 -338q-75 -68 -169 -98.5 t-230 -30.5q-295 0 -440 139q-61 60 -89 140.5t-28 199.5v684q0 75 -26 98t-109 23h-78z" />
<glyph unicode="V" horiz-adv-x="1472" d="M-27 1249v117h660v-117h-131q-43 0 -61.5 -11.5t-18.5 -39.5q0 -22 12 -49l381 -930l315 836q35 90 35 127q0 32 -25 49.5t-69 17.5h-119v117h549v-117h-57q-47 0 -73 -23.5t-54 -92.5l-445 -1133h-202l-451 1085q-44 106 -76.5 135t-107.5 29h-62z" />
<glyph unicode="W" horiz-adv-x="2172" d="M-27 1247v119h619v-117h-96q-54 0 -78.5 -14.5t-24.5 -46.5q0 -22 15 -62l311 -876l293 821l-29 92q-27 86 -123 86h-112v117h665v-117h-113q-46 0 -66 -10t-20 -33q0 -29 19 -80l321 -876l279 821q27 83 27 113q0 34 -20 48.5t-66 14.5h-121v119h547v-119h-68 q-51 0 -78 -33t-65 -143l-375 -1071h-201l-323 881l-312 -881h-203l-393 1110q-29 82 -57.5 109.5t-85.5 27.5h-66z" />
<glyph unicode="X" horiz-adv-x="1462" d="M-20 0v117h55q72 0 119 35q19 14 35 31.5t108 123.5l313 363l-372 465q-57 71 -89 92.5t-81 21.5h-78v117h692v-117h-133q-70 0 -70 -35q0 -27 41 -79l240 -295l241 282q32 38 43 55.5t11 30.5q0 41 -78 41h-125v117h614v-115h-65q-63 0 -107 -27.5t-125 -119.5 l-327 -367l426 -526q6 -6 13.5 -15t12 -14.5t6.5 -7.5q29 -37 49.5 -47t65.5 -10h68v-117h-680v117h137q39 0 54.5 7t15.5 26t-64 100l-250 309l-213 -252q-60 -71 -80 -100t-20 -47q0 -43 74 -43h121v-117h-598z" />
<glyph unicode="Y" horiz-adv-x="1425" d="M-20 1251v115h671v-115h-131q-41 0 -58.5 -10t-17.5 -35q0 -12 4.5 -21t24.5 -38l315 -445l254 388q58 88 58 120q0 41 -74 41h-127v115h547v-115h-62q-49 0 -73.5 -20.5t-81.5 -108.5l-375 -569v-315q0 -75 25 -98t108 -23h115v-117h-713v117h109q83 0 109 23t26 98v301 l-438 612q-44 62 -73.5 81t-78.5 19h-63z" />
<glyph unicode="Z" horiz-adv-x="1312" d="M61 0v125l895 1116h-381q-106 0 -171.5 -18t-108.5 -65.5t-61 -122.5t-23 -197h-121v528h1153v-125l-899 -1116h504q88 0 146 38.5t96 123.5q23 48 32.5 115t12.5 190h116v-592h-1190z" />
<glyph unicode="[" horiz-adv-x="667" d="M190 -416v1782h437v-117h-234v-1548h234v-117h-437z" />
<glyph unicode="\" horiz-adv-x="675" d="M27 1366h174l567 -1782h-170z" />
<glyph unicode="]" horiz-adv-x="667" d="M41 -299h233v1550h-233v115h436v-1782h-436v117z" />
<glyph unicode="^" horiz-adv-x="1024" d="M33 719l346 651h266l346 -651h-213l-266 491l-266 -491h-213z" />
<glyph unicode="_" horiz-adv-x="1024" d="M0 -119h1024v-180h-1024v180z" />
<glyph unicode="`" horiz-adv-x="1024" d="M223 1325q0 33 53 33h179l129 -299h-97l-237 225q-27 24 -27 41z" />
<glyph unicode="a" horiz-adv-x="1167" d="M76 236q0 138 82.5 207t283.5 100q91 14 141 25.5t82.5 30.5t42 42.5t9.5 63.5q0 180 -230 180q-131 0 -198 -64q84 -15 84 -94q0 -52 -35.5 -86.5t-89.5 -34.5q-57 0 -91 38t-34 101q0 92 80 160q57 46 128 66t179 20q237 0 334 -88q38 -35 52.5 -79.5t14.5 -121.5v-487 q0 -102 66 -102q46 0 60 39.5t14 166.5v84h104v-84q0 -118 -9.5 -172t-37.5 -92q-28 -37 -76.5 -57.5t-107.5 -20.5q-189 0 -213 193q-72 -108 -152 -156.5t-186 -48.5q-141 0 -219 71t-78 200zM291 252q0 -66 42 -103.5t116 -37.5q119 0 200 90q35 40 48.5 79.5t13.5 104.5 v131q-52 -28 -150 -59q-102 -31 -142.5 -46t-66.5 -32q-61 -41 -61 -127z" />
<glyph unicode="b" horiz-adv-x="1251" d="M43 1257v109h358v-569q107 194 338 194q183 0 300.5 -139.5t117.5 -357.5q0 -121 -42 -233t-114 -187q-106 -109 -280 -109q-112 0 -185.5 43.5t-148.5 153.5l-90 -162h-96v1128q0 85 -20 107t-95 22h-43zM391 469q0 -160 76 -259t199 -99q126 0 201 100.5t75 269.5 q0 166 -71 265.5t-191 99.5q-132 0 -210.5 -102.5t-78.5 -274.5z" />
<glyph unicode="c" horiz-adv-x="1114" d="M96 471q0 241 135 380.5t367 139.5q183 0 298.5 -78.5t115.5 -203.5q0 -71 -42 -116.5t-106 -45.5q-59 0 -96 36t-37 93q0 89 84 98q16 3 16 17q0 28 -67.5 53.5t-142.5 25.5q-145 0 -227.5 -104t-82.5 -287q0 -175 83 -277t224 -102q115 0 192.5 77.5t102.5 215.5h119 q-23 -176 -117 -287q-63 -75 -140 -108t-191 -33q-227 0 -357.5 135t-130.5 371z" />
<glyph unicode="d" horiz-adv-x="1280" d="M94 459q0 231 126.5 381.5t320.5 150.5q101 0 180 -44.5t129 -127.5v309q0 85 -20 107t-97 22h-86v109h400v-1128q0 -85 20 -107t96 -22h60v-109h-373v174q-66 -112 -144.5 -160.5t-191.5 -48.5q-182 0 -301 140t-119 354zM309 465q0 -169 68 -261.5t192 -92.5 q133 0 211 101.5t78 274.5q0 161 -73 260t-193 99q-132 0 -207.5 -101t-75.5 -280z" />
<glyph unicode="e" horiz-adv-x="1142" d="M96 483q0 230 135 369t359 139q135 0 241.5 -56t165.5 -157q32 -54 45 -122t13 -187h-740q3 -148 52 -233q38 -63 102 -97.5t143 -34.5q117 0 198.5 67t109.5 185h131q-40 -189 -162 -290t-311 -101q-220 0 -351 141t-131 377zM315 586h523q-2 65 -11 103t-32 75 q-31 51 -89.5 82t-123.5 31q-109 0 -182 -79.5t-85 -211.5z" />
<glyph unicode="f" horiz-adv-x="702" d="M41 844v112h195v119q0 78 17.5 131t57.5 94q86 86 234 86q97 0 161 -50.5t64 -127.5q0 -52 -33 -87.5t-80 -35.5q-46 0 -76 29.5t-30 75.5q0 35 20 60.5t52 29.5q-47 23 -78 23q-57 0 -83 -35.5t-26 -110.5v-201h234v-112h-234v-606q0 -85 20 -107t97 -22h115v-109h-623 v109h74q77 0 97 22t20 107v606h-195z" />
<glyph unicode="g" horiz-adv-x="1224" d="M41 -188q0 63 36 103.5t116 66.5q-121 55 -121 178q0 74 39.5 122.5t124.5 79.5q-125 96 -125 254q0 167 118 271t310 104q205 0 331 -123q38 58 92.5 91.5t110.5 33.5q70 0 118 -44t48 -109q0 -60 -32 -102t-77 -42q-39 0 -70.5 34.5t-31.5 76.5q0 48 43 78l6 8 q0 8 -16 8q-79 0 -143 -94q45 -74 45 -176q0 -158 -117 -257.5t-303 -99.5q-135 0 -244 50q-72 -38 -72 -93q0 -52 51 -73t179 -21h352q99 0 150 -10.5t88 -38.5q69 -54 69 -172q0 -145 -125 -238q-73 -53 -168.5 -76.5t-242.5 -23.5q-281 0 -410 53q-58 25 -93.5 74.5 t-35.5 106.5zM203 -156q0 -82 87.5 -120.5t272.5 -38.5q191 0 277 38t86 123q0 64 -56 88q-29 12 -83.5 16t-262.5 5q-131 0 -254 8q-37 -28 -52 -54.5t-15 -64.5zM326 627q0 -120 55.5 -189t153.5 -69q100 0 158.5 70t58.5 190q0 118 -58 189t-155 71q-101 0 -157 -68.5 t-56 -193.5z" />
<glyph unicode="h" horiz-adv-x="1361" d="M63 0v109h74q77 0 97 22t20 107v890q0 85 -20 107t-97 22h-74v109h392v-543q108 168 340 168q148 0 235.5 -77.5t87.5 -208.5v-467q0 -85 20 -107t97 -22h74v-109h-568v109h60q77 0 97 22t20 107v426q0 102 -68 147q-59 41 -139 41q-99 0 -176 -55q-80 -56 -80 -176v-383 q0 -85 20 -107t96 -22h66v-109h-574z" />
<glyph unicode="i" horiz-adv-x="708" d="M61 0v109h86q77 0 97 22t20 107v481q0 85 -20 107t-97 22h-86v108h404v-718q0 -85 20 -107t97 -22h73v-109h-594zM227 1241q0 54 39 92.5t96 38.5q53 0 91.5 -38.5t38.5 -92.5q0 -55 -39 -94t-93 -39q-56 0 -94.5 39t-38.5 94z" />
<glyph unicode="j" horiz-adv-x="632" d="M-82 -217q0 67 38.5 110.5t98.5 43.5q53 0 86 -32t33 -83q0 -54 -30.5 -84.5t-84.5 -30.5q-6 0 -12 2q19 -23 38 -32t48 -9q34 0 64 14.5t45 38.5q16 27 21 62t5 123v813q0 85 -20 107t-96 22h-95v108h412v-938q0 -209 -66 -307q-40 -60 -107 -94.5t-142 -34.5 q-101 0 -168.5 57.5t-67.5 143.5zM203 1241q0 55 38.5 93t94.5 38q54 0 92.5 -38.5t38.5 -92.5q0 -55 -38.5 -94t-94.5 -39q-54 0 -92.5 39t-38.5 94z" />
<glyph unicode="k" horiz-adv-x="1304" d="M63 0v109h74q77 0 97 22t20 107v890q0 85 -20 107t-97 22h-74v109h392v-909l295 239q58 47 81 74t23 47q0 27 -53 27h-142v112h621v-112h-80q-45 0 -75.5 -11t-67.5 -40l-240 -187l301 -416q32 -44 60.5 -62.5t62.5 -18.5h66v-109h-578v109h113q53 0 53 32q0 19 -21 49 l-215 293l-204 -166v-79q0 -85 20 -107t96 -22h60v-109h-568z" />
<glyph unicode="l" horiz-adv-x="696" d="M61 0v109h74q77 0 97 22t20 107v890q0 85 -20 107t-97 22h-74v109h392v-1128q0 -85 20 -107t96 -22h74v-109h-582z" />
<glyph unicode="m" horiz-adv-x="1959" d="M61 0v109h74q77 0 97 22t20 107v481q0 85 -20 107t-97 22h-74v108h388l-7 -157q68 104 146 148t196 44q224 0 295 -192q109 192 336 192q171 0 250 -98q35 -46 49.5 -101.5t14.5 -150.5v-403q0 -85 20 -107t96 -22h60v-109h-545v109h51q77 0 97 22t20 107v380 q0 83 -11.5 121t-43.5 64q-53 43 -138 43q-109 0 -174 -74.5t-65 -200.5v-333q0 -85 20 -107t96 -22h60v-109h-553v109h59q77 0 97 22t20 107v380q0 75 -11 112t-40 65q-58 51 -144 51q-110 0 -182 -78q-36 -38 -50.5 -86.5t-14.5 -130.5v-313q0 -85 20 -107t96 -22h60v-109 h-568z" />
<glyph unicode="n" horiz-adv-x="1353" d="M61 0v109h74q77 0 97 22t20 107v481q0 85 -20 107t-97 22h-74v108h392l-9 -153q83 106 159.5 147t189.5 41q151 0 245 -84q46 -41 66 -95.5t20 -137.5v-436q0 -85 20 -107t97 -22h59v-109h-559v109h60q77 0 97 22t20 107v393q0 69 -13 107t-45 67q-47 47 -135 47 q-121 0 -196.5 -67.5t-75.5 -176.5v-370q0 -85 20 -107t96 -22h60v-109h-568z" />
<glyph unicode="o" horiz-adv-x="1224" d="M96 481q0 230 144.5 370t380.5 140q224 0 366.5 -143t142.5 -369q0 -233 -140 -373.5t-372 -140.5q-239 0 -380.5 140t-141.5 376zM322 467q0 -197 88 -295q77 -86 202 -86q140 0 216.5 97.5t76.5 277.5q0 195 -74.5 302t-209.5 107q-143 0 -221 -105t-78 -298z" />
<glyph unicode="p" horiz-adv-x="1286" d="M55 -307h74q77 0 97 22t20 107v897q0 85 -20 107t-97 22h-74v108h391l-10 -163q34 42 55 65.5t54 53t63.5 44t74 25t95.5 10.5q186 0 300 -134.5t114 -354.5q0 -152 -54.5 -275t-151.5 -192.5t-216 -69.5q-106 0 -180.5 42t-143.5 140v-325q0 -85 20 -107t97 -22h92v-109 h-600v109zM436 471q0 -162 76 -261t199 -99q124 0 195 102.5t71 282.5q0 166 -68.5 258t-191.5 92q-127 0 -204 -103t-77 -272z" />
<glyph unicode="q" horiz-adv-x="1271" d="M96 461q0 150 57.5 271.5t159 190t226.5 68.5q100 0 169 -42.5t146 -149.5v157h365v-108h-56q-75 0 -94.5 -22t-19.5 -107v-897q0 -85 19.5 -107t94.5 -22h56v-109h-568v109h86q77 0 97 22t20 107v334q-57 -99 -138 -145t-198 -46q-190 0 -306 136.5t-116 359.5zM311 463 q0 -158 72.5 -250t198.5 -92q127 0 202.5 95.5t75.5 256.5q0 197 -94 291q-38 38 -89 60t-99 22q-124 0 -195.5 -102t-71.5 -281z" />
<glyph unicode="r" horiz-adv-x="919" d="M59 0v109h86q77 0 97 22t20 107v481q0 85 -20 107t-97 22h-86v108h392l-9 -206q79 115 121 149q89 80 191 80q76 0 127 -49t51 -121q0 -66 -37 -110t-94 -44q-47 0 -81 33t-34 80q0 45 41 78q6 3 6 12q0 14 -26 14q-22 0 -61 -22t-66 -51q-43 -44 -70 -98t-47 -136v-327 q0 -85 20 -107t97 -22h114v-109h-635z" />
<glyph unicode="s" horiz-adv-x="1036" d="M82 698q0 135 97 213t263 78q110 0 188.5 -28t139.5 -89l31 99h104v-350h-104q-35 115 -118.5 177t-203.5 62q-94 0 -151.5 -35.5t-57.5 -95.5q0 -18 3 -29.5t17.5 -24t32.5 -21t60.5 -21.5t88.5 -24.5t128 -30.5q106 -24 159 -43.5t95 -47.5q100 -67 100 -204 q0 -146 -100.5 -231t-273.5 -85q-116 0 -202.5 32t-156.5 101l-31 -114h-100v381h113q18 -63 36 -100.5t46 -67.5q44 -47 117.5 -76t148.5 -29q94 0 151.5 39.5t57.5 102.5q0 31 -16 57t-44 41q-42 22 -233 69q-140 33 -192.5 50.5t-94.5 44.5q-46 31 -72 84t-26 116z" />
<glyph unicode="t" horiz-adv-x="743" d="M14 840v116l11 -2q8 0 46 9.5t48 13.5q63 23 107 108.5t44 182.5v18h129v-330h275v-116h-275v-623q0 -106 80 -106q55 0 75.5 40t20.5 148v96h113v-96q0 -110 -15 -171t-52 -99q-64 -64 -185 -64q-119 0 -184 62q-35 32 -47 67.5t-12 104.5v641h-179z" />
<glyph unicode="u" horiz-adv-x="1335" d="M55 848v108h391v-624q0 -78 13 -118.5t47 -66.5q54 -41 141 -41q110 0 184 72.5t74 181.5v359q0 85 -20 107t-97 22h-73v108h391v-718q0 -85 20 -107t97 -22h59v-109h-377v160q-59 -102 -139.5 -148.5t-198.5 -46.5q-171 0 -252 84q-40 40 -54.5 94t-14.5 160v416 q0 85 -20 107t-97 22h-74z" />
<glyph unicode="v" horiz-adv-x="1110" d="M-27 846v110h562v-110h-97q-78 0 -78 -41q0 -19 11 -45l235 -582l234 582q10 27 10 37q0 28 -17.5 38.5t-62.5 10.5h-86v110h455v-110h-58q-62 0 -98 -86l-317 -760h-199l-297 727q-26 64 -55 91.5t-70 27.5h-72z" />
<glyph unicode="w" horiz-adv-x="1634" d="M-27 846v110h525v-116h-107q-51 0 -51 -37q0 -20 8 -41l182 -567l215 583q7 18 7 29q0 33 -52 33h-112v116h545v-116h-105q-31 0 -44 -8.5t-13 -28.5q0 -4 6 -25l194 -571l185 555q8 21 8 43q0 35 -59 35h-82v116h438v-110h-57q-73 0 -117 -127l-250 -719h-209l-207 616 l-233 -616h-197l-227 709q-23 73 -57 105t-87 32h-47z" />
<glyph unicode="x" horiz-adv-x="1183" d="M-23 0v109h66q39 0 61.5 11.5t67.5 55.5l307 289l-274 289q-52 54 -81 72t-65 18h-69v112h596v-116h-94q-60 0 -60 -29q0 -10 3.5 -15.5t25.5 -27.5l160 -166l178 166q28 25 28 47q0 25 -51 25h-94v116h508l4 -112h-53q-40 0 -74.5 -19t-91.5 -71l-268 -244l319 -334 q45 -49 61.5 -58t55.5 -9h59v-109h-602v109h119q51 0 51 30q0 10 -4.5 17t-28.5 32l-176 189l-172 -168q-51 -51 -51 -72q0 -17 16 -22.5t58 -5.5h94v-109h-529z" />
<glyph unicode="y" horiz-adv-x="1122" d="M-27 -197q0 75 42.5 122.5t109.5 47.5q56 0 92.5 -35.5t36.5 -89.5q0 -58 -34 -89t-99 -31q25 -25 49 -35t63 -10q89 0 150.5 59.5t120.5 202.5l-334 786q-28 66 -57.5 90.5t-81.5 24.5h-54v110h555v-110h-88q-42 0 -60.5 -8.5t-18.5 -28.5q0 -25 22 -78l227 -532 l222 532q16 41 16 66q0 26 -16.5 37.5t-53.5 11.5h-94v110h461v-110h-51q-48 0 -69 -22.5t-62 -118.5l-332 -771q-55 -129 -92.5 -187t-91.5 -99q-84 -66 -218 -66q-121 0 -190.5 59t-69.5 162z" />
<glyph unicode="z" horiz-adv-x="995" d="M27 0v117l675 723h-294q-82 0 -127 -30t-68 -101q-11 -35 -18 -164h-115v411h887v-110l-676 -729h289q98 0 154 29.5t87 95.5q30 62 33 223h113v-465h-940z" />
<glyph unicode="{" horiz-adv-x="1024" d="M274 406v165q60 15 87.5 55t27.5 115v353q0 152 71 219t232 67q20 0 96 -2v-176h-22q-103 0 -139 -28q-22 -17 -29.5 -45.5t-7.5 -88.5v-311q0 -102 -25.5 -153.5t-97.5 -94.5q69 -41 96 -96.5t27 -153.5v-305q0 -63 9 -92.5t34 -48.5q36 -25 133 -25h22v-174l-51 -2h-49 q-160 0 -229.5 69.5t-69.5 229.5v338q0 87 -26 129.5t-89 55.5z" />
<glyph unicode="|" horiz-adv-x="1024" d="M412 -342v1708h200v-1708h-200z" />
<glyph unicode="}" horiz-adv-x="1024" d="M236 -240h24q103 0 135 29q23 19 31 47t8 90v305q0 98 27 153.5t96 96.5q-72 43 -97.5 94.5t-25.5 153.5v311q0 62 -9 91.5t-32 46.5q-39 24 -137 24h-20v176q76 2 96 2q161 0 232 -67t71 -219v-353q0 -75 27.5 -115t89.5 -55v-165q-63 -14 -90 -56.5t-27 -128.5v-338 q0 -160 -69.5 -229.5t-229.5 -69.5h-49l-51 2v174z" />
<glyph unicode="~" horiz-adv-x="1366" d="M188 1247q25 53 41.5 83.5t44 69t54 58t66 33.5t87.5 14q74 0 224 -61q93 -38 124 -48t64 -10q54 0 90.5 27t77.5 96l117 -69q-37 -76 -65 -116t-64 -69q-81 -63 -183 -63q-39 0 -93.5 17t-197.5 75q-66 27 -108 27q-51 0 -88.5 -31t-75.5 -106z" />
<glyph unicode="&#xa1;" horiz-adv-x="546" d="M137 -246q0 34 6 86l86 785h90l80 -795q2 -18 4 -37.5t3.5 -30t1.5 -12.5q0 -58 -38.5 -95.5t-97.5 -37.5q-60 0 -97.5 38.5t-37.5 98.5zM139 856q0 57 40.5 96t99.5 39q54 0 93.5 -40t39.5 -95q0 -57 -40 -97t-96 -40q-57 0 -97 40t-40 97z" />
<glyph unicode="&#xa2;" d="M113 690q0 226 121 363t333 147v199h109v-199q153 -10 254.5 -89.5t101.5 -188.5q0 -68 -41.5 -112t-105.5 -44q-58 0 -95.5 35.5t-37.5 89.5q0 42 20 69t55 31q21 3 21 13q0 27 -55.5 52t-116.5 27v-772q92 9 166 92.5t88 192.5h117q-20 -170 -121 -284t-250 -134v-221 h-109v221q-218 17 -336 150.5t-118 361.5zM328 692q0 -178 86 -284q33 -39 65.5 -58t87.5 -31v756q-107 -12 -173 -117.5t-66 -265.5z" />
<glyph unicode="&#xa3;" d="M147 113q104 79 158.5 168t54.5 178q0 54 -28 125h-185v102h125q-90 143 -90 260q0 70 29.5 140.5t79.5 123.5q126 129 358 129q195 0 309.5 -89t114.5 -240q0 -78 -40.5 -125t-106.5 -47q-52 0 -88.5 36t-36.5 87q0 46 30 76t76 30q11 0 45 -6q-9 31 -22.5 49.5 t-42.5 36.5q-82 55 -203 55q-123 0 -202 -65t-79 -168q0 -46 16 -93t70 -161q3 -3 13 -29h278v-102h-245q8 -41 8 -70q0 -72 -38.5 -141.5t-127.5 -165.5l-31 -33q68 36 115 51t98 15q35 0 69.5 -10.5t102.5 -41.5q132 -59 172 -59q82 0 82 164q0 27 -2 45h111v-35 q0 -112 -12 -163.5t-46 -96.5q-60 -78 -174 -78q-87 0 -235 60q-94 37 -137 50t-76 13q-107 0 -217 -98z" />
<glyph unicode="&#xa4;" horiz-adv-x="1366" d="M78 1243l110 111l203 -203q76 52 144.5 75t148.5 23q149 0 287 -96l203 201l110 -111l-201 -201q53 -78 76 -145t23 -143t-23 -143t-74 -142l203 -203l-110 -110l-203 200q-134 -98 -289 -98q-146 0 -293 96l-203 -198l-108 110l201 201q-99 135 -99 289q0 144 97 284z M369 754q0 -131 92.5 -223.5t222.5 -92.5q129 0 221 93t92 223q0 129 -92 222t-219 93q-132 0 -224.5 -91.5t-92.5 -223.5z" />
<glyph unicode="&#xa5;" d="M-55 1257v109h577v-109h-104q-41 0 -58.5 -10t-17.5 -33q0 -29 20 -59l289 -455l228 396q51 92 51 118q0 43 -74 43h-100v109h461v-109h-35q-44 0 -75 -26.5t-75 -102.5l-166 -282h209v-103h-270l-72 -122h314v-103h-336v-287q0 -76 25 -99t108 -23h94v-109h-659v109h88 q83 0 109 23.5t26 98.5v287h-332v103h303l-80 122h-250v103h183l-201 311q-38 58 -68.5 79t-76.5 21h-35z" />
<glyph unicode="&#xa6;" horiz-adv-x="1024" d="M412 313h200v-655h-200v655zM412 672v694h200v-694h-200z" />
<glyph unicode="&#xa7;" d="M100 532q0 185 232 285q-156 99 -156 252q0 146 117.5 239t302.5 93q163 0 269 -72t106 -182q0 -60 -39 -99.5t-98 -39.5q-56 0 -94 35t-38 87q0 68 72 117q-62 43 -178 43q-104 0 -172 -50t-68 -126q0 -67 43 -104q35 -30 87 -54t198 -75q128 -44 185 -71t100 -62 t67.5 -89t24.5 -112q0 -57 -22.5 -112t-63.5 -93q-35 -35 -123 -84q82 -47 119 -110t37 -154q0 -161 -123.5 -258.5t-327.5 -97.5q-175 0 -292.5 76.5t-117.5 193.5q0 63 44.5 107t107.5 44q57 0 96 -35.5t39 -89.5q0 -40 -19.5 -68.5t-68.5 -62.5q64 -53 184 -53 q129 0 203 54t74 149q0 81 -61.5 129t-233.5 102q-231 72 -321.5 148.5t-90.5 199.5zM279 580q0 -84 118 -144q68 -35 174.5 -67.5t155.5 -32.5q61 0 108.5 46.5t47.5 106.5q0 52 -30 86t-110 76q-86 43 -166.5 68.5t-127.5 25.5q-71 0 -120.5 -48t-49.5 -117z" />
<glyph unicode="&#xa8;" horiz-adv-x="1024" d="M188 1233q0 48 35 82.5t84 34.5q47 0 82 -35t35 -82q0 -49 -34.5 -84t-82.5 -35q-49 0 -84 35t-35 84zM602 1233q0 48 35 82.5t84 34.5q47 0 82 -35t35 -82q0 -49 -34.5 -84t-82.5 -35q-49 0 -84 35t-35 84z" />
<glyph unicode="&#xa9;" horiz-adv-x="1574" d="M80 682q0 197 95.5 362.5t261 261t362.5 95.5q186 0 346.5 -97t255 -263t94.5 -359q0 -145 -56 -278t-151 -229t-226 -153t-274 -57t-274 57t-226 153t-151.5 229t-56.5 278zM193 682q0 -166 79.5 -307.5t217 -224t298.5 -82.5t298 82.5t216.5 224t79.5 307.5 q0 165 -79 307t-214 225.5t-292 83.5q-125 0 -237 -48t-192.5 -130t-127.5 -196t-47 -242zM348 674q0 183 115.5 299.5t298.5 116.5q80 0 137.5 -18t120.5 -64l2 -2l37 73h80v-319h-82q-15 109 -85.5 172t-176.5 63q-125 0 -203 -88t-78 -229q0 -137 73.5 -220t196.5 -83 q112 0 185.5 61t95.5 172h98q-17 -160 -119.5 -248t-269.5 -88q-192 0 -309 110.5t-117 291.5z" />
<glyph unicode="&#xaa;" horiz-adv-x="677" d="M33 909q0 77 52 119t169 59q97 13 126.5 30t29.5 59q0 49 -39 71q-13 9 -78 21q-83 -10 -92.5 -12t-18.5 -11h-2l2 -4q0 -2 2 -2q19 -9 28 -20.5t9 -34.5q0 -32 -23 -53t-57 -21q-35 0 -57.5 24t-22.5 62q0 66 63 104.5t169 38.5q129 0 185.5 -39.5t56.5 -130.5v-272 q0 -28 7.5 -39.5t24.5 -11.5q22 0 28.5 21t6.5 87v56h74v-56q0 -75 -9 -110.5t-34 -55.5q-41 -32 -98 -32q-22 0 -50 8t-43 20q-6 4 -34 66l-5 -2q-6 0 -6 -2q-19 -19 -47 -51q-17 -19 -58.5 -33t-78.5 -14q-80 0 -130 44.5t-50 116.5zM43 580v82h627v-82h-627zM174 920 q0 -35 22.5 -54.5t63.5 -19.5q64 0 103.5 40.5t39.5 106.5v62q-50 -22 -77 -29q-99 -29 -125.5 -47.5t-26.5 -58.5z" />
<glyph unicode="&#xab;" horiz-adv-x="890" d="M96 565q0 57 176 334h121q-106 -253 -106 -336q0 -77 104 -336h-119q-75 112 -125.5 209.5t-50.5 128.5zM498 565q0 58 176 334h121q-107 -249 -107 -336q0 -75 105 -336h-119q-76 115 -126 211t-50 127z" />
<glyph unicode="&#xac;" horiz-adv-x="1024" d="M68 365v180h886v-545h-200v365h-686z" />
<glyph unicode="&#xad;" horiz-adv-x="493" d="M0 469v184h494v-184h-494z" />
<glyph unicode="&#xae;" horiz-adv-x="1574" d="M80 682q0 197 95.5 362.5t261 261t362.5 95.5q186 0 346.5 -97t255 -263t94.5 -359q0 -145 -56 -278t-151 -229t-226 -153t-274 -57t-274 57t-226 153t-151.5 229t-56.5 278zM193 682q0 -166 79.5 -307.5t217 -224t298.5 -82.5t298 82.5t216.5 224t79.5 307.5 q0 165 -79 307t-214 225.5t-292 83.5q-125 0 -237 -48t-192.5 -130t-127.5 -196t-47 -242zM389 293v78h47q49 0 63.5 11.5t14.5 49.5v500q0 37 -15.5 49t-62.5 12h-47v78h488q122 0 178 -45q32 -25 51.5 -67t19.5 -85q0 -72 -44 -116t-121 -72q63 -28 83 -65.5t23 -128.5 q1 -66 10 -88.5t33 -22.5q22 0 30.5 14.5t8.5 48.5v93h82v-93q0 -88 -37 -122q-44 -41 -123 -41q-77 0 -112 37.5t-39 125.5q-6 98 -13 130t-28 53q-32 32 -105 32h-110v-227q0 -38 14 -49.5t61 -11.5h56v-78h-406zM664 743h155q69 0 107.5 32.5t38.5 92.5q0 119 -152 119 h-149v-244z" />
<glyph unicode="&#xaf;" horiz-adv-x="1024" d="M184 1133v139h656v-139h-656z" />
<glyph unicode="&#xb0;" horiz-adv-x="845" d="M104 1081q0 131 94.5 223.5t229.5 92.5q127 0 220 -94.5t93 -223.5q0 -132 -93 -224.5t-224 -92.5q-133 0 -226.5 93.5t-93.5 225.5zM207 1079q0 -91 63 -154t152 -63t152 63t63 152q0 88 -62.5 151.5t-148.5 63.5q-92 0 -155.5 -62t-63.5 -151z" />
<glyph unicode="&#xb1;" d="M137 106v187h887v-187h-887zM137 713v186h344v334h201v-334h342v-186h-342v-334h-201v334h-344z" />
<glyph unicode="&#xb2;" horiz-adv-x="765" d="M74 547q0 63 3 101t17 77t33.5 63t62 56t91.5 58.5t133 68.5q98 51 98 143q0 61 -49 99t-127 38q-121 0 -160 -88q12 4 35 4q34 0 57 -21.5t23 -53.5q0 -39 -28 -65t-70 -26q-51 0 -84 36t-33 91q0 92 85 157t206 65q135 0 220 -68.5t85 -175.5q0 -70 -35 -117 q-35 -49 -81.5 -78t-154.5 -69q-110 -40 -156.5 -72t-58.5 -76q39 25 76 25q30 0 131 -23q106 -24 133 -24q86 0 86 125v28h82q-5 -105 -8 -131q-8 -72 -50.5 -113.5t-111.5 -41.5q-60 0 -155 39q-74 31 -100.5 39t-53.5 8q-25 0 -35 -12.5t-10 -41.5v-24h-96z" />
<glyph unicode="&#xb3;" horiz-adv-x="765" d="M55 727q0 49 31.5 81t77.5 32q38 0 66 -25.5t28 -62.5q0 -39 -27 -60q-3 -3 -5.5 -4.5t-5.5 -3t-6 -2.5t-8 -2.5t-10 -2.5t-13 -3.5t-17 -5.5h2q7 -12 21.5 -22t34 -17t43 -11t48.5 -4q63 0 110 20.5t72 58.5t25 89q0 66 -50.5 105t-137.5 39q-18 0 -55 -6v88 q20 -4 38 -4q88 0 135.5 35.5t47.5 101.5q0 52 -50 86.5t-124 34.5q-37 0 -84.5 -13.5t-51.5 -25.5l-2 -2q0 -2 2 -2l33 -9q15 -3 30 -24.5t15 -40.5q0 -34 -31 -60t-71 -26t-68 31t-28 75q0 77 82.5 132t199.5 55q85 0 155.5 -26.5t111 -73t40.5 -103.5q0 -28 -10.5 -57.5 t-28 -51.5t-36.5 -30q-70 -27 -70 -33q0 -2 -2 -2v-2q28 -11 48 -20t33.5 -17t23.5 -16t16 -15.5t12 -17.5q31 -48 31 -107q0 -114 -93.5 -182t-248.5 -68q-124 0 -201.5 54.5t-77.5 142.5z" />
<glyph unicode="&#xb4;" horiz-adv-x="1024" d="M455 1059l127 299h180q53 0 53 -33q0 -17 -27 -41l-239 -225h-94z" />
<glyph unicode="&#xb5;" horiz-adv-x="1024" d="M78 -348v1329h201v-539q0 -100 15.5 -151.5t57.5 -91.5q71 -64 160 -64q106 0 174 84q35 44 49.5 97t14.5 141v524h198v-981h-198v147q-44 -91 -101.5 -131.5t-140.5 -40.5q-75 0 -130 34t-99 106v-463h-201z" />
<glyph unicode="&#xb6;" d="M14 1004q0 101 45 182.5t125 124.5q99 55 291 55h612v-156h-135v-1407h-172v1407h-196v-1407h-172v848q-187 1 -292.5 95t-105.5 258z" />
<glyph unicode="&#xb7;" d="M444 498q0 55 40.5 94t97.5 39q54 0 93.5 -40t39.5 -95q0 -56 -40 -96t-95 -40q-57 0 -96.5 40.5t-39.5 97.5z" />
<glyph unicode="&#xb8;" horiz-adv-x="1024" d="M301 -358l31 65q85 -33 153 -33q47 0 78 22t31 56t-26.5 55t-67.5 21q-38 0 -80 -18l-37 34l111 160h79l-81 -119q53 9 73 9q70 0 115 -37.5t45 -96.5q0 -70 -62 -115.5t-159 -45.5q-98 0 -203 43z" />
<glyph unicode="&#xb9;" horiz-adv-x="763" d="M158 547v78h104q38 0 52 14.5t14 54.5v416h-170v80q92 4 145 44.5t64 111.5h106v-652q0 -42 13 -55.5t53 -13.5h100v-78h-481z" />
<glyph unicode="&#xba;" horiz-adv-x="710" d="M49 1049q0 130 85.5 210t223.5 80q134 0 219 -81.5t85 -210.5q0 -133 -83.5 -214t-220.5 -81q-141 0 -225 80.5t-84 216.5zM59 580v82h594v-82h-594zM193 1038q0 -98 41.5 -151t119.5 -53t121 52t43 150q0 105 -42 163t-118 58q-80 0 -122.5 -56.5t-42.5 -162.5z" />
<glyph unicode="&#xbb;" horiz-adv-x="890" d="M96 227q107 249 107 336q0 41 -21.5 112t-81.5 224h117q78 -117 127 -211.5t49 -126.5q0 -59 -176 -334h-121zM498 227q106 246 106 336q0 41 -22 113.5t-80 222.5h116q78 -117 127.5 -211.5t49.5 -126.5q0 -31 -39.5 -106t-137.5 -228h-120z" />
<glyph unicode="&#xbc;" horiz-adv-x="1708" d="M158 547v78h104q38 0 52 14.5t14 54.5v416h-170v80q92 4 145 44.5t64 111.5h106v-652q0 -42 13 -55.5t53 -13.5h100v-78h-481zM383 0l821 1366h121l-829 -1366h-113zM1006 225v94l395 480h100v-475h119v-99h-119v-78q0 -43 14 -56t60 -13h45v-78h-403v78h79q34 0 50 16.5 t16 52.5v78h-356zM1120 324h242v292z" />
<glyph unicode="&#xbd;" horiz-adv-x="1708" d="M158 547v78h104q38 0 52 14.5t14 54.5v416h-170v80q92 4 145 44.5t64 111.5h106v-652q0 -42 13 -55.5t53 -13.5h100v-78h-481zM383 0l821 1366h121l-829 -1366h-113zM1016 0q0 63 3 101.5t17.5 77t34 63t61.5 56t91.5 58.5t132.5 68q98 51 98 143q0 61 -48.5 99.5 t-125.5 38.5q-123 0 -162 -89q15 5 35 5q34 0 57 -22t23 -54q0 -38 -28 -64t-70 -26q-51 0 -84 36t-33 91q0 92 85 156.5t206 64.5q135 0 220 -68.5t85 -175.5q0 -67 -35 -117q-35 -49 -81.5 -78t-154.5 -69q-109 -39 -155 -71t-60 -77q39 25 76 25q35 0 131 -22 q110 -25 133 -25q86 0 86 125v29h82q-5 -107 -8 -132q-8 -72 -50.5 -113.5t-111.5 -41.5q-62 0 -153 39q-80 32 -105 39.5t-51 7.5q-25 0 -35 -12t-10 -41v-25h-96z" />
<glyph unicode="&#xbe;" horiz-adv-x="1708" d="M55 727q0 49 31.5 81t77.5 32q38 0 66 -25.5t28 -62.5q0 -39 -27 -60q-3 -3 -5.5 -4.5t-5.5 -3t-6 -2.5t-8 -2.5t-10 -2.5t-13 -3.5t-17 -5.5h2q7 -12 21.5 -22t34 -17t43 -11t48.5 -4q63 0 110 20.5t72 58.5t25 89q0 66 -50.5 105t-137.5 39q-18 0 -55 -6v88 q20 -4 38 -4q88 0 135.5 35.5t47.5 101.5q0 52 -50 86.5t-124 34.5q-37 0 -84.5 -13.5t-51.5 -25.5l-2 -2q0 -2 2 -2l33 -9q15 -3 30 -24.5t15 -40.5q0 -34 -31 -60t-71 -26t-68 31t-28 75q0 77 82.5 132t199.5 55q85 0 155.5 -26.5t111 -73t40.5 -103.5q0 -28 -10.5 -57.5 t-28 -51.5t-36.5 -30q-70 -27 -70 -33q0 -2 -2 -2v-2q28 -11 48 -20t33.5 -17t23.5 -16t16 -15.5t12 -17.5q31 -48 31 -107q0 -114 -93.5 -182t-248.5 -68q-124 0 -201.5 54.5t-77.5 142.5zM383 0l821 1366h123l-831 -1366h-113zM1006 225v94l395 480h100v-475h119v-99h-119 v-78q0 -29 6 -43.5t21 -20t47 -5.5h45v-78h-403v78h79q34 0 50 16.5t16 52.5v78h-356zM1120 324h242v292z" />
<glyph unicode="&#xbf;" horiz-adv-x="1140" d="M68 -10q0 107 49.5 180t187.5 170q109 77 145 128.5t46 147.5h110q1 -114 -34 -191.5t-132 -176.5q-87 -88 -116 -140.5t-29 -121.5q0 -103 82 -171.5t205 -68.5q74 0 137.5 26.5t101.5 73.5q34 40 45 111q-55 -25 -84 -25q-52 0 -87.5 37.5t-35.5 91.5q0 62 44 104 t108 42q77 0 127.5 -64t50.5 -161q0 -163 -127 -264t-334 -101q-206 0 -333 103t-127 270zM418 856q0 57 40 96t99 39q54 0 93.5 -40t39.5 -95q0 -57 -39.5 -97t-95.5 -40q-57 0 -97 40t-40 97z" />
<glyph unicode="&#xc0;" horiz-adv-x="1550" d="M-35 0v117h72q72 0 110.5 37t83.5 153l424 1059h215l465 -1087q13 -32 23 -54t17 -34t10.5 -17.5t9 -11.5t6.5 -8q30 -37 108 -37h74v-117h-665v117h114q55 0 76.5 10t21.5 35q0 22 -18 63l-96 230h-576l-71 -176q-19 -51 -19 -93q0 -38 26 -53.5t89 -15.5h106v-117h-606 zM485 580h480l-252 585zM520 1749q0 33 53 33h179l129 -301h-97l-237 225q-27 27 -27 43z" />
<glyph unicode="&#xc1;" horiz-adv-x="1550" d="M-35 0v117h72q72 0 110.5 37t83.5 153l424 1059h215l465 -1087q13 -32 23 -54t17 -34t10.5 -17.5t9 -11.5t6.5 -8q30 -37 108 -37h74v-117h-665v117h114q55 0 76.5 10t21.5 35q0 22 -18 63l-96 230h-576l-71 -176q-19 -51 -19 -93q0 -38 26 -53.5t89 -15.5h106v-117h-606 zM485 580h480l-252 585zM649 1481l127 301h180q54 0 54 -33q0 -16 -27 -43l-240 -225h-94z" />
<glyph unicode="&#xc2;" horiz-adv-x="1550" d="M-35 0v117h72q72 0 110.5 37t83.5 153l424 1059h215l465 -1087q13 -32 23 -54t17 -34t10.5 -17.5t9 -11.5t6.5 -8q30 -37 108 -37h74v-117h-665v117h114q55 0 76.5 10t21.5 35q0 22 -18 63l-96 230h-576l-71 -176q-19 -51 -19 -93q0 -38 26 -53.5t89 -15.5h106v-117h-606 zM446 1481l224 297h196l207 -297h-180l-148 172l-165 -172h-134zM485 580h480l-252 585z" />
<glyph unicode="&#xc3;" horiz-adv-x="1550" d="M-35 0v117h72q72 0 110.5 37t83.5 153l424 1059h215l465 -1087q13 -32 23 -54t17 -34t10.5 -17.5t9 -11.5t6.5 -8q30 -37 108 -37h74v-117h-665v117h114q55 0 76.5 10t21.5 35q0 22 -18 63l-96 230h-576l-71 -176q-19 -51 -19 -93q0 -38 26 -53.5t89 -15.5h106v-117h-606 zM416 1509q2 107 54 171.5t138 64.5q49 0 156 -37q117 -43 160 -43q34 0 51.5 21.5t23.5 68.5h105q-1 -104 -55.5 -169.5t-139.5 -65.5q-67 0 -172 43q-103 41 -141 41q-35 0 -51 -20t-25 -75h-104zM485 580h480l-252 585z" />
<glyph unicode="&#xc4;" horiz-adv-x="1550" d="M-35 0v117h72q72 0 110.5 37t83.5 153l424 1059h215l465 -1087q13 -32 23 -54t17 -34t10.5 -17.5t9 -11.5t6.5 -8q30 -37 108 -37h74v-117h-665v117h114q55 0 76.5 10t21.5 35q0 22 -18 63l-96 230h-576l-71 -176q-19 -51 -19 -93q0 -38 26 -53.5t89 -15.5h106v-117h-606 zM406 1628q0 48 34.5 82.5t83.5 34.5q47 0 82 -35t35 -82q0 -49 -34.5 -84t-82.5 -35q-49 0 -83.5 34.5t-34.5 84.5zM485 580h480l-252 585zM883 1628q0 48 34.5 82.5t83.5 34.5q47 0 82 -35t35 -82q0 -49 -34.5 -84t-82.5 -35q-49 0 -83.5 34.5t-34.5 84.5z" />
<glyph unicode="&#xc5;" horiz-adv-x="1550" d="M-35 0v117h72q72 0 110.5 37t83.5 153l424 1059h215l465 -1087q13 -32 23 -54t17 -34t10.5 -17.5t9 -11.5t6.5 -8q30 -37 108 -37h74v-117h-665v117h114q55 0 76.5 10t21.5 35q0 22 -18 63l-96 230h-576l-71 -176q-19 -51 -19 -93q0 -38 26 -53.5t89 -15.5h106v-117h-606 zM485 580h480l-252 585zM559 1651q0 83 60 141.5t145 58.5q82 0 140.5 -59t58.5 -141q0 -85 -59 -144t-142 -59q-85 0 -144 59t-59 144zM657 1651q0 -44 31 -75.5t74 -31.5t73.5 31.5t30.5 75.5q0 41 -30.5 72.5t-71.5 31.5q-44 0 -75.5 -30.5t-31.5 -73.5z" />
<glyph unicode="&#xc6;" horiz-adv-x="2275" d="M-35 0v119h68q65 0 102 37l9 9t8 9t7.5 9.5t9.5 14t11.5 18t17 27.5t23.5 36l563 854q33 50 33 73t-15 33t-52 10h-189v117h1573v-522h-123q-2 102 -13.5 165.5t-39.5 114.5q-38 69 -93.5 93t-178.5 24h-431v-481h189q92 0 132 41t40 135v82h125v-645h-125v73 q0 73 -8.5 105t-34.5 57q-22 20 -49 27.5t-82 7.5h-187v-518h412q90 0 144 15.5t94 52.5q58 54 92.5 143t34.5 186q0 25 -2 45h114v-567h-1335v117h90q83 0 109 23t26 98v348h-448l-199 -324q-30 -48 -38.5 -65.5t-8.5 -30.5q0 -47 106 -47h115v-119h-596zM670 711h364v555z " />
<glyph unicode="&#xc7;" horiz-adv-x="1478" d="M102 668q0 169 56.5 313t163.5 248q92 88 199 129t243 41q133 0 222.5 -32.5t205.5 -123.5l61 137h113v-546h-113q-22 187 -142.5 302t-293.5 115q-207 0 -337 -160t-130 -415q0 -252 123.5 -402.5t329.5 -150.5q180 0 305.5 112t159.5 304h135q-23 -266 -198 -425 t-431 -149l-55 -80q53 9 72 9q70 0 114.5 -37.5t44.5 -96.5q0 -70 -62 -115.5t-157 -45.5q-98 0 -203 43l31 65q85 -33 152 -33q47 0 77.5 22t30.5 56t-26.5 55t-67.5 21q-35 0 -80 -18l-35 34l86 125q-274 29 -434 217.5t-160 481.5z" />
<glyph unicode="&#xc8;" horiz-adv-x="1542" d="M68 0v117h90q83 0 109 23t26 98v890q0 75 -26 98t-109 23h-90v117h1321v-510h-121v37q0 170 -71.5 259t-207.5 89h-475v-473h199q166 0 166 170v90h120v-645h-120v70q0 104 -38.5 151t-123.5 47h-203v-526h385q160 0 238.5 32.5t109.5 110.5q20 50 27 109.5t12 206.5h125 v-584h-1343zM508 1749q0 33 53 33h178l129 -301h-96l-237 225q-27 27 -27 43z" />
<glyph unicode="&#xc9;" horiz-adv-x="1542" d="M68 0v117h90q83 0 109 23t26 98v890q0 75 -26 98t-109 23h-90v117h1321v-510h-121v37q0 170 -71.5 259t-207.5 89h-475v-473h199q166 0 166 170v90h120v-645h-120v70q0 104 -38.5 151t-123.5 47h-203v-526h385q160 0 238.5 32.5t109.5 110.5q20 50 27 109.5t12 206.5h125 v-584h-1343zM686 1481l127 301h180q54 0 54 -33q0 -16 -27 -43l-240 -225h-94z" />
<glyph unicode="&#xca;" horiz-adv-x="1542" d="M68 0v117h90q83 0 109 23t26 98v890q0 75 -26 98t-109 23h-90v117h1321v-510h-121v37q0 170 -71.5 259t-207.5 89h-475v-473h199q166 0 166 170v90h120v-645h-120v70q0 104 -38.5 151t-123.5 47h-203v-526h385q160 0 238.5 32.5t109.5 110.5q20 50 27 109.5t12 206.5h125 v-584h-1343zM498 1481l223 297h197l206 -297h-180l-147 172l-166 -172h-133z" />
<glyph unicode="&#xcb;" horiz-adv-x="1542" d="M68 0v117h90q83 0 109 23t26 98v890q0 75 -26 98t-109 23h-90v117h1321v-510h-121v37q0 170 -71.5 259t-207.5 89h-475v-473h199q166 0 166 170v90h120v-645h-120v70q0 104 -38.5 151t-123.5 47h-203v-526h385q160 0 238.5 32.5t109.5 110.5q20 50 27 109.5t12 206.5h125 v-584h-1343zM449 1628q0 48 34.5 82.5t83.5 34.5q47 0 82 -35t35 -82q0 -49 -34.5 -84t-82.5 -35q-49 0 -83.5 34.5t-34.5 84.5zM926 1628q0 48 34.5 82.5t83.5 34.5q47 0 82 -35t35 -82q0 -49 -34.5 -84t-82.5 -35q-49 0 -83.5 34.5t-34.5 84.5z" />
<glyph unicode="&#xcc;" horiz-adv-x="808" d="M55 0v117h90q84 0 110 23t26 98v890q0 75 -26 98t-110 23h-90v117h672v-117h-90q-83 0 -109 -23t-26 -98v-890q0 -75 26 -98t109 -23h90v-117h-672zM143 1749q0 33 54 33h178l129 -301h-96l-238 225q-27 27 -27 43z" />
<glyph unicode="&#xcd;" horiz-adv-x="808" d="M82 0v117h90q83 0 109 23t26 98v890q0 75 -26 98t-109 23h-90v117h672v-117h-90q-84 0 -110 -23t-26 -98v-890q0 -75 26 -98t110 -23h90v-117h-672zM305 1481l127 301h180q54 0 54 -33q0 -16 -27 -43l-240 -225h-94z" />
<glyph unicode="&#xce;" horiz-adv-x="808" d="M68 0v117h90q83 0 109 23t26 98v890q0 75 -26 98t-109 23h-90v117h671v-117h-90q-83 0 -109 -23t-26 -98v-890q0 -75 26 -98t109 -23h90v-117h-671zM90 1481l223 297h197l207 -297h-180l-148 172l-166 -172h-133z" />
<glyph unicode="&#xcf;" horiz-adv-x="808" d="M68 0v117h90q83 0 109 23t26 98v890q0 75 -26 98t-109 23h-90v117h671v-117h-90q-83 0 -109 -23t-26 -98v-890q0 -75 26 -98t109 -23h90v-117h-671zM115 1628q0 48 34.5 82.5t83.5 34.5q47 0 82 -35t35 -82q0 -49 -34.5 -84t-82.5 -35q-49 0 -83.5 34.5t-34.5 84.5z M457 1628q0 48 34.5 82.5t83.5 34.5q47 0 82 -35t35 -82q0 -49 -34.5 -84t-82.5 -35q-49 0 -83.5 34.5t-34.5 84.5z" />
<glyph unicode="&#xd0;" horiz-adv-x="1613" d="M68 0v117h77q84 0 110 23t26 98v409h-213v125h213v356q0 75 -26 98t-110 23h-77v117h815q283 0 455.5 -181.5t172.5 -477.5q0 -327 -173.5 -517t-471.5 -190h-798zM502 125h323q212 0 325.5 146t113.5 421q0 272 -116 410.5t-345 138.5h-301v-469h368v-125h-368v-522z " />
<glyph unicode="&#xd1;" horiz-adv-x="1685" d="M68 0v117h77q84 0 110 23t26 98v890q0 75 -26 98t-110 23h-77v117h467l757 -1024v786q0 75 -26 98t-109 23h-90v117h563v-117h-61q-83 0 -109 -23t-26 -98v-1128h-166l-846 1133v-895q0 -75 26 -98t109 -23h90v-117h-579zM528 1509q2 107 54.5 171.5t138.5 64.5 q49 0 156 -37q117 -43 159 -43q34 0 52 21.5t24 68.5h105q-1 -104 -55.5 -169.5t-139.5 -65.5q-67 0 -172 43q-103 41 -141 41q-35 0 -51 -20t-25 -75h-105z" />
<glyph unicode="&#xd2;" horiz-adv-x="1644" d="M102 674q0 193 78 356.5t215 255.5q170 115 430 115q218 0 381.5 -91.5t249.5 -253.5t86 -372q0 -185 -71 -339t-201 -249q-177 -131 -449 -131q-282 0 -465 146q-123 97 -188.5 242.5t-65.5 320.5zM350 670q0 -146 29 -246.5t94 -177.5q65 -74 154.5 -114t191.5 -40 q224 0 349.5 158t125.5 440q0 314 -178 473q-120 111 -282 111q-223 0 -357 -158q-127 -148 -127 -446zM561 1749q0 33 53 33h179l129 -301h-97l-237 225q-27 27 -27 43z" />
<glyph unicode="&#xd3;" horiz-adv-x="1644" d="M102 674q0 193 78 356.5t215 255.5q170 115 430 115q218 0 381.5 -91.5t249.5 -253.5t86 -372q0 -185 -71 -339t-201 -249q-177 -131 -449 -131q-282 0 -465 146q-123 97 -188.5 242.5t-65.5 320.5zM350 670q0 -146 29 -246.5t94 -177.5q65 -74 154.5 -114t191.5 -40 q224 0 349.5 158t125.5 440q0 314 -178 473q-120 111 -282 111q-223 0 -357 -158q-127 -148 -127 -446zM725 1481l127 301h180q53 0 53 -33q0 -17 -26 -43l-240 -225h-94z" />
<glyph unicode="&#xd4;" horiz-adv-x="1644" d="M102 674q0 193 78 356.5t215 255.5q170 115 430 115q218 0 381.5 -91.5t249.5 -253.5t86 -372q0 -185 -71 -339t-201 -249q-177 -131 -449 -131q-282 0 -465 146q-123 97 -188.5 242.5t-65.5 320.5zM350 670q0 -146 29 -246.5t94 -177.5q65 -74 154.5 -114t191.5 -40 q224 0 349.5 158t125.5 440q0 314 -178 473q-120 111 -282 111q-223 0 -357 -158q-127 -148 -127 -446zM516 1481l223 297h197l207 -297h-180l-148 172l-166 -172h-133z" />
<glyph unicode="&#xd5;" horiz-adv-x="1644" d="M102 674q0 193 78 356.5t215 255.5q170 115 430 115q218 0 381.5 -91.5t249.5 -253.5t86 -372q0 -185 -71 -339t-201 -249q-177 -131 -449 -131q-282 0 -465 146q-123 97 -188.5 242.5t-65.5 320.5zM350 670q0 -146 29 -246.5t94 -177.5q65 -74 154.5 -114t191.5 -40 q224 0 349.5 158t125.5 440q0 314 -178 473q-120 111 -282 111q-223 0 -357 -158q-127 -148 -127 -446zM489 1509q2 107 54.5 171.5t138.5 64.5q49 0 156 -37q117 -43 159 -43q34 0 52 21.5t24 68.5h105q-1 -104 -55.5 -169.5t-139.5 -65.5q-67 0 -172 43q-103 41 -141 41 q-35 0 -51 -20t-25 -75h-105z" />
<glyph unicode="&#xd6;" horiz-adv-x="1644" d="M102 674q0 193 78 356.5t215 255.5q170 115 430 115q218 0 381.5 -91.5t249.5 -253.5t86 -372q0 -185 -71 -339t-201 -249q-177 -131 -449 -131q-282 0 -465 146q-123 97 -188.5 242.5t-65.5 320.5zM350 670q0 -146 29 -246.5t94 -177.5q65 -74 154.5 -114t191.5 -40 q224 0 349.5 158t125.5 440q0 314 -178 473q-120 111 -282 111q-223 0 -357 -158q-127 -148 -127 -446zM469 1628q0 48 35 82.5t84 34.5q47 0 82 -35t35 -82q0 -49 -34.5 -84t-82.5 -35q-50 0 -84.5 34.5t-34.5 84.5zM946 1628q0 48 35 82.5t84 34.5q47 0 82 -35t35 -82 q0 -49 -34.5 -84t-82.5 -35q-49 0 -84 34.5t-35 84.5z" />
<glyph unicode="&#xd7;" d="M156 395l293 293l-293 293l131 133l295 -293l292 293l132 -133l-293 -293l293 -293l-132 -131l-292 293l-295 -293z" />
<glyph unicode="&#xd8;" horiz-adv-x="1646" d="M102 678q0 191 81 355.5t220 258.5q165 109 412 109q162 0 278 -37t218 -123l155 148l72 -78l-154 -148q160 -201 160 -479q0 -211 -89 -374.5t-250.5 -254t-370.5 -90.5q-297 0 -492 158l-149 -154l-84 68l159 160q-166 207 -166 481zM350 655q0 -179 62 -309l757 766 q-68 71 -86 84q-93 78 -252 78q-141 0 -253.5 -69.5t-167.5 -192.5q-60 -129 -60 -357zM473 252q135 -160 350 -160q224 0 348.5 158t124.5 444q0 192 -63 318z" />
<glyph unicode="&#xd9;" horiz-adv-x="1589" d="M35 1249v117h655v-117h-78q-83 0 -109 -23t-26 -98v-696q0 -89 24.5 -145.5t78.5 -93.5q101 -72 256 -72q182 0 278 96q47 47 67.5 116.5t20.5 184.5v610q0 75 -26 98t-109 23h-90v117h579v-117h-77q-84 0 -110 -23t-26 -98v-696q0 -208 -139 -338q-75 -68 -169 -98.5 t-230 -30.5q-295 0 -440 139q-61 60 -89 140.5t-28 199.5v684q0 75 -26 98t-109 23h-78zM578 1749q0 33 53 33h178l129 -301h-96l-238 225q-26 26 -26 43z" />
<glyph unicode="&#xda;" horiz-adv-x="1589" d="M35 1249v117h655v-117h-78q-83 0 -109 -23t-26 -98v-696q0 -89 24.5 -145.5t78.5 -93.5q101 -72 256 -72q182 0 278 96q47 47 67.5 116.5t20.5 184.5v610q0 75 -26 98t-109 23h-90v117h579v-117h-77q-84 0 -110 -23t-26 -98v-696q0 -208 -139 -338q-75 -68 -169 -98.5 t-230 -30.5q-295 0 -440 139q-61 60 -89 140.5t-28 199.5v684q0 75 -26 98t-109 23h-78zM729 1481l127 301h180q54 0 54 -33q0 -16 -27 -43l-240 -225h-94z" />
<glyph unicode="&#xdb;" horiz-adv-x="1589" d="M35 1249v117h655v-117h-78q-83 0 -109 -23t-26 -98v-696q0 -89 24.5 -145.5t78.5 -93.5q101 -72 256 -72q182 0 278 96q47 47 67.5 116.5t20.5 184.5v610q0 75 -26 98t-109 23h-90v117h579v-117h-77q-84 0 -110 -23t-26 -98v-696q0 -208 -139 -338q-75 -68 -169 -98.5 t-230 -30.5q-295 0 -440 139q-61 60 -89 140.5t-28 199.5v684q0 75 -26 98t-109 23h-78zM512 1481l223 297h197l207 -297h-181l-147 172l-166 -172h-133z" />
<glyph unicode="&#xdc;" horiz-adv-x="1589" d="M35 1249v117h655v-117h-78q-83 0 -109 -23t-26 -98v-696q0 -89 24.5 -145.5t78.5 -93.5q101 -72 256 -72q182 0 278 96q47 47 67.5 116.5t20.5 184.5v610q0 75 -26 98t-109 23h-90v117h579v-117h-77q-84 0 -110 -23t-26 -98v-696q0 -208 -139 -338q-75 -68 -169 -98.5 t-230 -30.5q-295 0 -440 139q-61 60 -89 140.5t-28 199.5v684q0 75 -26 98t-109 23h-78zM485 1628q0 48 35 82.5t84 34.5q47 0 82 -35t35 -82q0 -49 -34.5 -84t-82.5 -35q-50 0 -84.5 34.5t-34.5 84.5zM963 1628q0 48 34.5 82.5t83.5 34.5q47 0 82 -35t35 -82 q0 -49 -34.5 -84t-82.5 -35q-49 0 -83.5 34.5t-34.5 84.5z" />
<glyph unicode="&#xdd;" horiz-adv-x="1425" d="M-20 1251v115h671v-115h-131q-41 0 -58.5 -10t-17.5 -35q0 -12 4.5 -21t24.5 -38l315 -445l254 388q58 88 58 120q0 41 -74 41h-127v115h547v-115h-62q-49 0 -73.5 -20.5t-81.5 -108.5l-375 -569v-315q0 -75 25 -98t108 -23h115v-117h-713v117h109q83 0 109 23t26 98v301 l-438 612q-44 62 -73.5 81t-78.5 19h-63zM670 1481l127 301h180q53 0 53 -33q0 -17 -26 -43l-240 -225h-94z" />
<glyph unicode="&#xde;" horiz-adv-x="1370" d="M68 0v117h90q83 0 109 23t26 98v890q0 75 -26 98t-109 23h-90v117h671v-117h-90q-87 0 -114 -25.5t-23 -109.5l2 -39h395q119 0 188.5 -14.5t127.5 -52.5q145 -93 145 -312q0 -100 -33 -176t-94 -117q-58 -39 -130.5 -55t-190.5 -16h-408v-94q0 -75 25.5 -98t107.5 -23 h105v-117h-684zM514 457h334q143 0 212.5 60.5t69.5 184.5q0 126 -75 191q-65 57 -209 57h-332v-493z" />
<glyph unicode="&#xdf;" horiz-adv-x="1230" d="M55 0v109h60q76 0 96 22t20 107v772q0 103 22.5 167t74.5 111q110 96 317 96q191 0 299.5 -78t108.5 -214q0 -98 -52.5 -157t-175.5 -97q79 -17 125.5 -43.5t85.5 -77.5q101 -135 101 -320q0 -189 -95 -310.5t-243 -121.5q-126 0 -197 84q-29 35 -39 74.5t-10 116.5v92 h109v-92q0 -74 30.5 -114t85.5 -40q79 0 111.5 74.5t32.5 257.5q0 107 -24 172.5t-81 116.5q-81 69 -207 69q-32 0 -57 -4v117q29 -4 65 -4q116 0 172 48.5t56 149.5q0 91 -55.5 141t-157.5 50q-104 0 -152.5 -63t-48.5 -201v-1010h-377z" />
<glyph unicode="&#xe0;" horiz-adv-x="1167" d="M76 236q0 138 82.5 207t283.5 100q91 14 141 25.5t82.5 30.5t42 42.5t9.5 63.5q0 180 -230 180q-131 0 -198 -64q84 -15 84 -94q0 -52 -35.5 -86.5t-89.5 -34.5q-57 0 -91 38t-34 101q0 92 80 160q57 46 128 66t179 20q237 0 334 -88q38 -35 52.5 -79.5t14.5 -121.5v-487 q0 -102 66 -102q46 0 60 39.5t14 166.5v84h104v-84q0 -118 -9.5 -172t-37.5 -92q-28 -37 -76.5 -57.5t-107.5 -20.5q-189 0 -213 193q-72 -108 -152 -156.5t-186 -48.5q-141 0 -219 71t-78 200zM283 1337q0 33 53 33h178l129 -299h-96l-238 225q-26 23 -26 41zM291 252 q0 -66 42 -103.5t116 -37.5q119 0 200 90q35 40 48.5 79.5t13.5 104.5v131q-52 -28 -150 -59q-102 -31 -142.5 -46t-66.5 -32q-61 -41 -61 -127z" />
<glyph unicode="&#xe1;" horiz-adv-x="1167" d="M76 236q0 138 82.5 207t283.5 100q91 14 141 25.5t82.5 30.5t42 42.5t9.5 63.5q0 180 -230 180q-131 0 -198 -64q84 -15 84 -94q0 -52 -35.5 -86.5t-89.5 -34.5q-57 0 -91 38t-34 101q0 92 80 160q57 46 128 66t179 20q237 0 334 -88q38 -35 52.5 -79.5t14.5 -121.5v-487 q0 -102 66 -102q46 0 60 39.5t14 166.5v84h104v-84q0 -118 -9.5 -172t-37.5 -92q-28 -37 -76.5 -57.5t-107.5 -20.5q-189 0 -213 193q-72 -108 -152 -156.5t-186 -48.5q-141 0 -219 71t-78 200zM291 252q0 -66 42 -103.5t116 -37.5q119 0 200 90q35 40 48.5 79.5t13.5 104.5 v131q-52 -28 -150 -59q-102 -31 -142.5 -46t-66.5 -32q-61 -41 -61 -127zM440 1071l127 299h181q53 0 53 -33q0 -17 -27 -41l-239 -225h-95z" />
<glyph unicode="&#xe2;" horiz-adv-x="1167" d="M76 236q0 138 82.5 207t283.5 100q91 14 141 25.5t82.5 30.5t42 42.5t9.5 63.5q0 180 -230 180q-131 0 -198 -64q84 -15 84 -94q0 -52 -35.5 -86.5t-89.5 -34.5q-57 0 -91 38t-34 101q0 92 80 160q57 46 128 66t179 20q237 0 334 -88q38 -35 52.5 -79.5t14.5 -121.5v-487 q0 -102 66 -102q46 0 60 39.5t14 166.5v84h104v-84q0 -118 -9.5 -172t-37.5 -92q-28 -37 -76.5 -57.5t-107.5 -20.5q-189 0 -213 193q-72 -108 -152 -156.5t-186 -48.5q-141 0 -219 71t-78 200zM217 1071l223 297h197l207 -297h-180l-148 174l-166 -174h-133zM291 252 q0 -66 42 -103.5t116 -37.5q119 0 200 90q35 40 48.5 79.5t13.5 104.5v131q-52 -28 -150 -59q-102 -31 -142.5 -46t-66.5 -32q-61 -41 -61 -127z" />
<glyph unicode="&#xe3;" horiz-adv-x="1167" d="M76 236q0 138 82.5 207t283.5 100q91 14 141 25.5t82.5 30.5t42 42.5t9.5 63.5q0 180 -230 180q-131 0 -198 -64q84 -15 84 -94q0 -52 -35.5 -86.5t-89.5 -34.5q-57 0 -91 38t-34 101q0 92 80 160q57 46 128 66t179 20q237 0 334 -88q38 -35 52.5 -79.5t14.5 -121.5v-487 q0 -102 66 -102q46 0 60 39.5t14 166.5v84h104v-84q0 -118 -9.5 -172t-37.5 -92q-28 -37 -76.5 -57.5t-107.5 -20.5q-189 0 -213 193q-72 -108 -152 -156.5t-186 -48.5q-141 0 -219 71t-78 200zM197 1102q2 106 54 169.5t138 63.5q53 0 156 -39q117 -43 160 -43 q33 0 50.5 20.5t24.5 69.5h105q-3 -103 -57.5 -169t-137.5 -66q-59 0 -172 43q-108 43 -141 43q-35 0 -50.5 -18.5t-25.5 -73.5h-104zM291 252q0 -66 42 -103.5t116 -37.5q119 0 200 90q35 40 48.5 79.5t13.5 104.5v131q-52 -28 -150 -59q-102 -31 -142.5 -46t-66.5 -32 q-61 -41 -61 -127z" />
<glyph unicode="&#xe4;" horiz-adv-x="1167" d="M76 236q0 138 82.5 207t283.5 100q91 14 141 25.5t82.5 30.5t42 42.5t9.5 63.5q0 180 -230 180q-131 0 -198 -64q84 -15 84 -94q0 -52 -35.5 -86.5t-89.5 -34.5q-57 0 -91 38t-34 101q0 92 80 160q57 46 128 66t179 20q237 0 334 -88q38 -35 52.5 -79.5t14.5 -121.5v-487 q0 -102 66 -102q46 0 60 39.5t14 166.5v84h104v-84q0 -118 -9.5 -172t-37.5 -92q-28 -37 -76.5 -57.5t-107.5 -20.5q-189 0 -213 193q-72 -108 -152 -156.5t-186 -48.5q-141 0 -219 71t-78 200zM213 1233q0 48 35 82.5t84 34.5q47 0 82 -35t35 -82q0 -49 -34.5 -84 t-82.5 -35q-50 0 -84.5 35t-34.5 84zM291 252q0 -66 42 -103.5t116 -37.5q119 0 200 90q35 40 48.5 79.5t13.5 104.5v131q-52 -28 -150 -59q-102 -31 -142.5 -46t-66.5 -32q-61 -41 -61 -127zM627 1233q0 48 34.5 82.5t83.5 34.5q47 0 82 -35t35 -82q0 -49 -34.5 -84 t-82.5 -35q-49 0 -83.5 34.5t-34.5 84.5z" />
<glyph unicode="&#xe5;" horiz-adv-x="1167" d="M76 236q0 138 82.5 207t283.5 100q91 14 141 25.5t82.5 30.5t42 42.5t9.5 63.5q0 180 -230 180q-131 0 -198 -64q84 -15 84 -94q0 -52 -35.5 -86.5t-89.5 -34.5q-57 0 -91 38t-34 101q0 92 80 160q57 46 128 66t179 20q237 0 334 -88q38 -35 52.5 -79.5t14.5 -121.5v-487 q0 -102 66 -102q46 0 60 39.5t14 166.5v84h104v-84q0 -118 -9.5 -172t-37.5 -92q-28 -37 -76.5 -57.5t-107.5 -20.5q-189 0 -213 193q-72 -108 -152 -156.5t-186 -48.5q-141 0 -219 71t-78 200zM291 252q0 -66 42 -103.5t116 -37.5q119 0 200 90q35 40 48.5 79.5t13.5 104.5 v131q-52 -28 -150 -59q-102 -31 -142.5 -46t-66.5 -32q-61 -41 -61 -127zM332 1260q0 83 60 141.5t145 58.5q82 0 140 -59t58 -141q0 -85 -58.5 -144t-141.5 -59q-85 0 -144 59t-59 144zM430 1260q0 -44 31 -75.5t74 -31.5t73.5 31.5t30.5 75.5q0 41 -30.5 72.5t-71.5 31.5 q-44 0 -75.5 -30.5t-31.5 -73.5z" />
<glyph unicode="&#xe6;" horiz-adv-x="1732" d="M76 236q0 70 32.5 130.5t88.5 94.5q44 26 95 40t179 36q159 26 206.5 54.5t47.5 98.5q0 178 -238 178q-112 0 -184 -53q76 -36 76 -102q0 -50 -35.5 -83.5t-87.5 -33.5q-55 0 -91 38t-36 97q0 113 106.5 185.5t272.5 72.5q235 0 340 -123q71 65 148 94t178 29 q138 0 244.5 -56.5t168.5 -162.5q26 -44 42 -116t16 -146v-41h-750q2 -87 14 -138.5t43 -95.5q43 -66 108.5 -100.5t145.5 -34.5q114 0 192 66.5t107 189.5h131q-17 -89 -45 -145t-80 -105q-142 -139 -346 -139q-141 0 -239.5 52.5t-167.5 166.5q-68 -105 -167 -162 t-214 -57q-135 0 -218 74.5t-83 196.5zM291 252q0 -64 44.5 -101.5t121.5 -37.5q118 0 194 82q39 42 52.5 80.5t13.5 109.5v119q-64 -32 -101.5 -46t-91.5 -26q-85 -19 -125 -34t-63 -38q-45 -48 -45 -108zM901 584h524q-3 132 -71 208t-183 76q-236 0 -270 -284z" />
<glyph unicode="&#xe7;" horiz-adv-x="1114" d="M96 471q0 241 135 380.5t367 139.5q183 0 298.5 -78.5t115.5 -203.5q0 -71 -42 -116.5t-106 -45.5q-59 0 -96 36.5t-37 94.5q0 88 84 100q16 3 16 15q0 29 -67.5 55t-142.5 26q-143 0 -225.5 -104.5t-82.5 -288.5q0 -175 83.5 -278t224.5 -103q114 0 190.5 77.5 t101.5 215.5h119q-26 -203 -144.5 -317.5t-295.5 -108.5l-55 -82q53 9 73 9q70 0 115 -37.5t45 -96.5q0 -70 -62 -115.5t-159 -45.5q-100 0 -203 43l31 65q85 -33 153 -33q47 0 78 22t31 56t-26.5 55t-67.5 21q-38 0 -80 -18l-37 34l88 125q-82 9 -134.5 28.5t-105.5 59.5 q-180 136 -180 414z" />
<glyph unicode="&#xe8;" horiz-adv-x="1142" d="M96 483q0 230 135 369t359 139q135 0 241.5 -56t165.5 -157q32 -54 45 -122t13 -187h-740q3 -148 52 -233q38 -63 102 -97.5t143 -34.5q117 0 198.5 67t109.5 185h131q-40 -189 -162 -290t-311 -101q-220 0 -351 141t-131 377zM315 586h523q-2 65 -11 103t-32 75 q-31 51 -89.5 82t-123.5 31q-109 0 -182 -79.5t-85 -211.5zM332 1337q0 33 53 33h178l129 -299h-96l-238 225q-26 23 -26 41z" />
<glyph unicode="&#xe9;" horiz-adv-x="1142" d="M96 483q0 230 135 369t359 139q135 0 241.5 -56t165.5 -157q32 -54 45 -122t13 -187h-740q3 -148 52 -233q38 -63 102 -97.5t143 -34.5q117 0 198.5 67t109.5 185h131q-40 -189 -162 -290t-311 -101q-220 0 -351 141t-131 377zM315 586h523q-2 65 -11 103t-32 75 q-31 51 -89.5 82t-123.5 31q-109 0 -182 -79.5t-85 -211.5zM489 1071l127 299h181q53 0 53 -33q0 -17 -27 -41l-239 -225h-95z" />
<glyph unicode="&#xea;" horiz-adv-x="1142" d="M96 483q0 230 135 369t359 139q135 0 241.5 -56t165.5 -157q32 -54 45 -122t13 -187h-740q3 -148 52 -233q38 -63 102 -97.5t143 -34.5q117 0 198.5 67t109.5 185h131q-40 -189 -162 -290t-311 -101q-220 0 -351 141t-131 377zM297 1071l223 297h197l207 -297h-181 l-147 174l-166 -174h-133zM315 586h523q-2 65 -11 103t-32 75q-31 51 -89.5 82t-123.5 31q-109 0 -182 -79.5t-85 -211.5z" />
<glyph unicode="&#xeb;" horiz-adv-x="1142" d="M96 483q0 230 135 369t359 139q135 0 241.5 -56t165.5 -157q32 -54 45 -122t13 -187h-740q3 -148 52 -233q38 -63 102 -97.5t143 -34.5q117 0 198.5 67t109.5 185h131q-40 -189 -162 -290t-311 -101q-220 0 -351 141t-131 377zM283 1233q0 48 34.5 82.5t83.5 34.5 q47 0 82 -35t35 -82q0 -49 -34.5 -84t-82.5 -35q-49 0 -83.5 34.5t-34.5 84.5zM315 586h523q-2 65 -11 103t-32 75q-31 51 -89.5 82t-123.5 31q-109 0 -182 -79.5t-85 -211.5zM696 1233q0 48 35 82.5t84 34.5q47 0 82 -35t35 -82q0 -49 -34.5 -84t-82.5 -35q-49 0 -84 35 t-35 84z" />
<glyph unicode="&#xec;" horiz-adv-x="708" d="M61 0v109h86q77 0 97 22t20 107v481q0 85 -20 107t-97 22h-86v108h404v-718q0 -85 20 -107t97 -22h73v-109h-594zM66 1337q0 33 53 33h178l129 -299h-96l-238 225q-26 23 -26 41z" />
<glyph unicode="&#xed;" horiz-adv-x="708" d="M61 0v109h86q77 0 97 22t20 107v481q0 85 -20 107t-97 22h-86v108h404v-718q0 -85 20 -107t97 -22h73v-109h-594zM244 1071l127 299h180q53 0 53 -33q0 -18 -26 -41l-240 -225h-94z" />
<glyph unicode="&#xee;" horiz-adv-x="708" d="M29 1071l196 297h197l180 -297h-182l-119 174l-139 -174h-133zM61 0v109h86q77 0 97 22t20 107v481q0 85 -20 107t-97 22h-86v108h404v-718q0 -85 20 -107t97 -22h73v-109h-594z" />
<glyph unicode="&#xef;" horiz-adv-x="708" d="M18 1233q0 48 35 82.5t84 34.5q47 0 82 -35t35 -82q0 -49 -34.5 -84t-82.5 -35q-49 0 -84 35t-35 84zM61 0v109h86q77 0 97 22t20 107v481q0 85 -20 107t-97 22h-86v108h404v-718q0 -85 20 -107t97 -22h73v-109h-594zM360 1233q0 48 35 82.5t84 34.5q47 0 82 -35t35 -82 q0 -49 -34.5 -84t-82.5 -35q-49 0 -84 35t-35 84z" />
<glyph unicode="&#xf0;" horiz-adv-x="1224" d="M96 483q0 227 143 367.5t375 140.5q61 0 134 -18q-45 81 -119 188l-148 -61l-45 84l144 57q-37 53 -97 125h142q5 -4 10.5 -8.5t8 -6.5t3.5 -3q46 -49 55 -58l185 68l45 -84l-164 -64q125 -155 221 -315q78 -130 109.5 -224t31.5 -194q0 -232 -140 -372t-372 -140 q-241 0 -381.5 140t-140.5 378zM322 467q0 -197 88 -295q77 -86 202 -86q140 0 216.5 97.5t76.5 277.5q0 195 -74.5 302t-209.5 107q-143 0 -221 -105t-78 -298z" />
<glyph unicode="&#xf1;" horiz-adv-x="1353" d="M61 0v109h74q77 0 97 22t20 107v481q0 85 -20 107t-97 22h-74v108h392l-9 -153q83 106 159.5 147t189.5 41q151 0 245 -84q46 -41 66 -95.5t20 -137.5v-436q0 -85 20 -107t97 -22h59v-109h-559v109h60q77 0 97 22t20 107v393q0 69 -13 107t-45 67q-47 47 -135 47 q-121 0 -196.5 -67.5t-75.5 -176.5v-370q0 -85 20 -107t96 -22h60v-109h-568zM336 1102q2 106 54 169.5t138 63.5q53 0 156 -39q117 -43 160 -43q33 0 51 20.5t25 69.5h104q-3 -103 -57.5 -169t-137.5 -66q-59 0 -172 43q-108 43 -141 43q-35 0 -50.5 -18.5t-25.5 -73.5 h-104z" />
<glyph unicode="&#xf2;" horiz-adv-x="1224" d="M96 481q0 230 144.5 370t380.5 140q224 0 366.5 -143t142.5 -369q0 -233 -140 -373.5t-372 -140.5q-239 0 -380.5 140t-141.5 376zM322 467q0 -197 88 -295q77 -86 202 -86q140 0 216.5 97.5t76.5 277.5q0 195 -74.5 302t-209.5 107q-143 0 -221 -105t-78 -298zM367 1337 q0 33 53 33h178l129 -299h-96l-238 225q-26 23 -26 41z" />
<glyph unicode="&#xf3;" horiz-adv-x="1224" d="M96 481q0 230 144.5 370t380.5 140q224 0 366.5 -143t142.5 -369q0 -233 -140 -373.5t-372 -140.5q-239 0 -380.5 140t-141.5 376zM322 467q0 -197 88 -295q77 -86 202 -86q140 0 216.5 97.5t76.5 277.5q0 195 -74.5 302t-209.5 107q-143 0 -221 -105t-78 -298zM502 1071 l127 299h180q53 0 53 -33q0 -18 -26 -41l-240 -225h-94z" />
<glyph unicode="&#xf4;" horiz-adv-x="1224" d="M96 481q0 230 144.5 370t380.5 140q224 0 366.5 -143t142.5 -369q0 -233 -140 -373.5t-372 -140.5q-239 0 -380.5 140t-141.5 376zM307 1071l223 297h197l207 -297h-180l-148 174l-166 -174h-133zM322 467q0 -197 88 -295q77 -86 202 -86q140 0 216.5 97.5t76.5 277.5 q0 195 -74.5 302t-209.5 107q-143 0 -221 -105t-78 -298z" />
<glyph unicode="&#xf5;" horiz-adv-x="1224" d="M96 481q0 230 144.5 370t380.5 140q224 0 366.5 -143t142.5 -369q0 -233 -140 -373.5t-372 -140.5q-239 0 -380.5 140t-141.5 376zM279 1102q2 106 54 169.5t138 63.5q53 0 156 -39q117 -43 159 -43q33 0 51 20.5t25 69.5h105q-3 -103 -57.5 -169t-137.5 -66 q-59 0 -172 43q-108 43 -141 43q-35 0 -50.5 -18.5t-25.5 -73.5h-104zM322 467q0 -197 88 -295q77 -86 202 -86q140 0 216.5 97.5t76.5 277.5q0 195 -74.5 302t-209.5 107q-143 0 -221 -105t-78 -298z" />
<glyph unicode="&#xf6;" horiz-adv-x="1224" d="M96 481q0 230 144.5 370t380.5 140q224 0 366.5 -143t142.5 -369q0 -233 -140 -373.5t-372 -140.5q-239 0 -380.5 140t-141.5 376zM289 1233q0 48 35 82.5t84 34.5q47 0 81.5 -35t34.5 -82q0 -49 -34.5 -84t-81.5 -35q-50 0 -84.5 35t-34.5 84zM322 467q0 -197 88 -295 q77 -86 202 -86q140 0 216.5 97.5t76.5 277.5q0 195 -74.5 302t-209.5 107q-143 0 -221 -105t-78 -298zM702 1233q0 48 35 82.5t84 34.5q47 0 82 -35t35 -82q0 -49 -34.5 -84t-82.5 -35q-49 0 -84 35t-35 84z" />
<glyph unicode="&#xf7;" d="M137 596v186h887v-186h-887zM457 326q0 52 36.5 88.5t88.5 36.5q51 0 87 -37t36 -88t-37 -87t-88 -36t-87 36t-36 87zM457 1051q0 53 36.5 89t88.5 36q51 0 87 -37t36 -88t-37 -87t-88 -36t-87 36t-36 87z" />
<glyph unicode="&#xf8;" horiz-adv-x="1222" d="M90 18l123 121q-54 54 -86.5 150t-32.5 200q0 226 143.5 364t378.5 138q101 0 173.5 -23.5t158.5 -84.5l125 127l68 -68l-125 -127q57 -85 67 -108q45 -92 45 -232q0 -226 -140.5 -368t-364.5 -142q-97 0 -220 35q-55 15 -75.5 25.5t-53.5 40.5l-118 -109zM319 479 q0 -127 31 -207l473 490q-26 51 -83 79.5t-128 28.5q-137 0 -215 -104t-78 -287zM395 182q64 -58 106.5 -77t108.5 -19q140 0 216.5 96t76.5 273q0 115 -31 215z" />
<glyph unicode="&#xf9;" horiz-adv-x="1335" d="M55 848v108h391v-624q0 -78 13 -118.5t47 -66.5q54 -41 141 -41q110 0 184 72.5t74 181.5v359q0 85 -20 107t-97 22h-73v108h391v-718q0 -85 20 -107t97 -22h59v-109h-377v160q-59 -102 -139.5 -148.5t-198.5 -46.5q-171 0 -252 84q-40 40 -54.5 94t-14.5 160v416 q0 85 -20 107t-97 22h-74zM399 1337q0 33 54 33h178l129 -299h-96l-238 225q-27 24 -27 41z" />
<glyph unicode="&#xfa;" horiz-adv-x="1335" d="M55 848v108h391v-624q0 -78 13 -118.5t47 -66.5q54 -41 141 -41q110 0 184 72.5t74 181.5v359q0 85 -20 107t-97 22h-73v108h391v-718q0 -85 20 -107t97 -22h59v-109h-377v160q-59 -102 -139.5 -148.5t-198.5 -46.5q-171 0 -252 84q-40 40 -54.5 94t-14.5 160v416 q0 85 -20 107t-97 22h-74zM569 1071l127 299h181q53 0 53 -33q0 -17 -27 -41l-239 -225h-95z" />
<glyph unicode="&#xfb;" horiz-adv-x="1335" d="M55 848v108h391v-624q0 -78 13 -118.5t47 -66.5q54 -41 141 -41q110 0 184 72.5t74 181.5v359q0 85 -20 107t-97 22h-73v108h391v-718q0 -85 20 -107t97 -22h59v-109h-377v160q-59 -102 -139.5 -148.5t-198.5 -46.5q-171 0 -252 84q-40 40 -54.5 94t-14.5 160v416 q0 85 -20 107t-97 22h-74zM340 1071l223 297h197l207 -297h-181l-147 174l-166 -174h-133z" />
<glyph unicode="&#xfc;" horiz-adv-x="1335" d="M55 848v108h391v-624q0 -78 13 -118.5t47 -66.5q54 -41 141 -41q110 0 184 72.5t74 181.5v359q0 85 -20 107t-97 22h-73v108h391v-718q0 -85 20 -107t97 -22h59v-109h-377v160q-59 -102 -139.5 -148.5t-198.5 -46.5q-171 0 -252 84q-40 40 -54.5 94t-14.5 160v416 q0 85 -20 107t-97 22h-74zM330 1233q0 48 35 82.5t84 34.5q47 0 81.5 -35t34.5 -82q0 -49 -34.5 -84t-81.5 -35q-49 0 -84 35t-35 84zM743 1233q0 48 35 82.5t84 34.5q47 0 82 -35t35 -82q0 -49 -34.5 -84t-82.5 -35q-50 0 -84.5 35t-34.5 84z" />
<glyph unicode="&#xfd;" horiz-adv-x="1122" d="M-27 -197q0 75 42.5 122.5t109.5 47.5q56 0 92.5 -35.5t36.5 -89.5q0 -58 -34 -89t-99 -31q25 -25 49 -35t63 -10q89 0 150.5 59.5t120.5 202.5l-334 786q-28 66 -57.5 90.5t-81.5 24.5h-54v110h555v-110h-88q-42 0 -60.5 -8.5t-18.5 -28.5q0 -25 22 -78l227 -532 l222 532q16 41 16 66q0 26 -16.5 37.5t-53.5 11.5h-94v110h461v-110h-51q-48 0 -69 -22.5t-62 -118.5l-332 -771q-55 -129 -92.5 -187t-91.5 -99q-84 -66 -218 -66q-121 0 -190.5 59t-69.5 162zM492 1071l126 299h181q53 0 53 -33q0 -17 -27 -41l-239 -225h-94z" />
<glyph unicode="&#xfe;" horiz-adv-x="1286" d="M55 -307h74q77 0 97 22t20 107v1306q0 85 -20 107t-97 22h-74v109h391v-573q32 42 52.5 66t52.5 53t62 43.5t73 25t94 10.5q185 0 298.5 -134.5t113.5 -354.5q0 -152 -54.5 -275t-151.5 -192.5t-216 -69.5q-106 0 -180.5 42t-143.5 140v-325q0 -85 20 -107t97 -22h92 v-109h-600v109zM436 471q0 -162 76 -261t199 -99q124 0 195 102.5t71 282.5q0 166 -68.5 258t-191.5 92q-127 0 -204 -103t-77 -272z" />
<glyph unicode="&#xff;" horiz-adv-x="1122" d="M-27 -197q0 75 42.5 122.5t109.5 47.5q56 0 92.5 -35.5t36.5 -89.5q0 -58 -34 -89t-99 -31q25 -25 49 -35t63 -10q89 0 150.5 59.5t120.5 202.5l-334 786q-28 66 -57.5 90.5t-81.5 24.5h-54v110h555v-110h-88q-42 0 -60.5 -8.5t-18.5 -28.5q0 -25 22 -78l227 -532 l222 532q16 41 16 66q0 26 -16.5 37.5t-53.5 11.5h-94v110h461v-110h-51q-48 0 -69 -22.5t-62 -118.5l-332 -771q-55 -129 -92.5 -187t-91.5 -99q-84 -66 -218 -66q-121 0 -190.5 59t-69.5 162zM279 1233q0 48 34.5 82.5t83.5 34.5q47 0 82 -35t35 -82q0 -49 -34.5 -84 t-82.5 -35q-49 0 -83.5 34.5t-34.5 84.5zM692 1233q0 48 35 82.5t84 34.5q47 0 82 -35t35 -82q0 -49 -34.5 -84t-82.5 -35q-49 0 -84 35t-35 84z" />
<glyph unicode="&#x152;" horiz-adv-x="2340" d="M100 662q0 161 51 297t142 231.5t221 149t283 53.5q89 0 188 -13q83 -10 109 -12t100 -2h995v-504h-121v27q0 199 -98 291q-67 61 -219 61h-440v-477h198q94 0 130 50t36 179v35h125v-653h-125v45q0 84 -8 121.5t-33 66.5q-19 22 -45.5 29.5t-83.5 7.5h-194v-522l424 4 q124 2 180.5 29.5t112.5 119.5q53 84 59 297h123v-573h-1030h-30t-25.5 -1t-20.5 -1t-23.5 -2.5t-25 -3.5t-35.5 -5t-45 -7q-92 -15 -189 -15q-318 0 -502 187t-184 510zM348 670q0 -266 125 -422t338 -156q154 0 231 74q30 28 39 64t9 130v713q0 55 -8 80t-31 47 q-34 29 -99.5 47.5t-134.5 18.5q-94 0 -184.5 -39t-145.5 -103q-67 -76 -103 -194t-36 -260z" />
<glyph unicode="&#x153;" horiz-adv-x="1912" d="M96 471q0 233 138 375.5t364 142.5q260 0 391 -158q119 158 367 158q220 0 349 -124.5t122 -336.5l-2 -57h-748q0 -172 81.5 -270.5t223.5 -98.5q239 0 304 252h133q-22 -88 -49.5 -144t-73.5 -106q-136 -139 -348 -139q-113 0 -207 44t-154 126q-82 -90 -172.5 -130 t-212.5 -40q-79 0 -164.5 25t-148.5 67q-93 63 -143 170.5t-50 243.5zM311 463q0 -86 24 -164.5t64 -126.5q32 -38 90 -62t119 -24q138 0 214.5 107.5t76.5 300.5q0 114 -23 185t-77 122q-76 73 -187 73q-163 0 -233 -131q-68 -123 -68 -280zM1083 588h525q2 10 2 26 q0 110 -74.5 186.5t-181.5 76.5q-113 0 -186 -78t-85 -211z" />
<glyph unicode="&#x178;" horiz-adv-x="1425" d="M-20 1251v115h671v-115h-131q-41 0 -58.5 -10t-17.5 -35q0 -12 4.5 -21t24.5 -38l315 -445l254 388q58 88 58 120q0 41 -74 41h-127v115h547v-115h-62q-49 0 -73.5 -20.5t-81.5 -108.5l-375 -569v-315q0 -75 25 -98t108 -23h115v-117h-713v117h109q83 0 109 23t26 98v301 l-438 612q-44 62 -73.5 81t-78.5 19h-63zM414 1628q0 48 34.5 82.5t83.5 34.5q47 0 82 -35t35 -82q0 -49 -34.5 -84t-82.5 -35q-49 0 -83.5 34.5t-34.5 84.5zM891 1628q0 48 35 82.5t84 34.5q47 0 81.5 -35t34.5 -82q0 -49 -34.5 -84t-81.5 -35q-50 0 -84.5 34.5t-34.5 84.5 z" />
<glyph unicode="&#x2c6;" horiz-adv-x="1024" d="M199 1071l223 297h196l207 -297h-180l-147 174l-166 -174h-133z" />
<glyph unicode="&#x2dc;" horiz-adv-x="1024" d="M168 1102q2 106 54 169.5t138 63.5q53 0 156 -39q117 -43 160 -43q33 0 51 20.5t25 69.5h104q-3 -103 -57 -169t-137 -66q-60 0 -173 43q-108 43 -141 43q-35 0 -50.5 -18.5t-25.5 -73.5h-104z" />
<glyph unicode="&#x2000;" horiz-adv-x="925" />
<glyph unicode="&#x2001;" horiz-adv-x="1851" />
<glyph unicode="&#x2002;" horiz-adv-x="925" />
<glyph unicode="&#x2003;" horiz-adv-x="1851" />
<glyph unicode="&#x2004;" horiz-adv-x="617" />
<glyph unicode="&#x2005;" horiz-adv-x="462" />
<glyph unicode="&#x2006;" horiz-adv-x="308" />
<glyph unicode="&#x2007;" horiz-adv-x="308" />
<glyph unicode="&#x2008;" horiz-adv-x="231" />
<glyph unicode="&#x2009;" horiz-adv-x="370" />
<glyph unicode="&#x200a;" horiz-adv-x="102" />
<glyph unicode="&#x2010;" horiz-adv-x="493" d="M0 469v184h494v-184h-494z" />
<glyph unicode="&#x2011;" horiz-adv-x="493" d="M0 469v184h494v-184h-494z" />
<glyph unicode="&#x2012;" horiz-adv-x="493" d="M0 469v184h494v-184h-494z" />
<glyph unicode="&#x2013;" d="M143 469v184h873v-184h-873z" />
<glyph unicode="&#x2014;" horiz-adv-x="1476" d="M0 469v184h1477v-184h-1477z" />
<glyph unicode="&#x2018;" horiz-adv-x="544" d="M121 1112q0 133 104 223q30 27 65.5 43t106.5 35v-90q-69 -7 -119.5 -62.5t-50.5 -123.5q33 30 80 30q52 0 84.5 -34.5t32.5 -88.5q0 -60 -39.5 -98.5t-101.5 -38.5q-71 0 -116.5 58t-45.5 147z" />
<glyph unicode="&#x2019;" horiz-adv-x="546" d="M121 1266q0 59 40 97t101 38q71 0 116.5 -58t45.5 -147q0 -132 -102 -223q-31 -27 -67.5 -43t-107.5 -35v90q69 7 119.5 62.5t50.5 123.5q-33 -30 -79 -30q-52 0 -84.5 34.5t-32.5 90.5z" />
<glyph unicode="&#x201a;" horiz-adv-x="546" d="M121 94q0 59 40 97t101 38q71 0 116.5 -57.5t45.5 -146.5q0 -138 -102 -224q-29 -26 -65 -41.5t-110 -35.5v90q69 7 119.5 62.5t50.5 123.5q-34 -31 -79 -31q-51 0 -84 35t-33 90z" />
<glyph unicode="&#x201c;" horiz-adv-x="987" d="M121 1112q0 133 104 223q30 27 65.5 43t106.5 35v-90q-69 -7 -119.5 -62.5t-50.5 -123.5q33 30 80 30q52 0 84.5 -34.5t32.5 -88.5q0 -60 -39.5 -98.5t-101.5 -38.5q-71 0 -116.5 58t-45.5 147zM563 1112q0 132 105 223q30 27 65.5 43t106.5 35v-90q-69 -7 -119.5 -62.5 t-50.5 -123.5q33 30 80 30q52 0 84 -34.5t32 -88.5q0 -60 -39.5 -98.5t-101.5 -38.5q-71 0 -116.5 58t-45.5 147z" />
<glyph unicode="&#x201d;" horiz-adv-x="989" d="M121 1266q0 59 40 97t101 38q71 0 116.5 -58t45.5 -147q0 -132 -102 -223q-31 -27 -67.5 -43t-107.5 -35v90q69 7 119.5 62.5t50.5 123.5q-33 -30 -79 -30q-52 0 -84.5 34.5t-32.5 90.5zM563 1266q0 58 40 96.5t102 38.5q70 0 115.5 -58t45.5 -147q0 -132 -102 -223 q-32 -27 -67.5 -43t-106.5 -35v90q69 7 119.5 62.5t50.5 123.5q-33 -30 -80 -30q-52 0 -84.5 34.5t-32.5 90.5z" />
<glyph unicode="&#x201e;" horiz-adv-x="989" d="M121 94q0 59 40 97t101 38q71 0 116.5 -57.5t45.5 -146.5q0 -134 -102 -222q-32 -27 -68.5 -43.5t-106.5 -35.5v90q69 7 119.5 62.5t50.5 123.5q-34 -31 -79 -31q-51 0 -84 35t-33 90zM563 94q0 58 40 96.5t102 38.5q70 0 115.5 -57.5t45.5 -146.5q0 -134 -102 -222 q-32 -27 -68 -43.5t-106 -35.5v90q69 7 119.5 62.5t50.5 123.5q-34 -31 -80 -31q-51 0 -84 35t-33 90z" />
<glyph unicode="&#x2022;" horiz-adv-x="1366" d="M401 694q0 120 83.5 202.5t205.5 82.5q114 0 196.5 -83.5t82.5 -199.5q0 -118 -83 -201t-200 -83t-201 82.5t-84 199.5z" />
<glyph unicode="&#x2026;" horiz-adv-x="1638" d="M137 100q0 55 40 94t97 39q54 0 94 -40t40 -95t-40 -95t-96 -40q-57 0 -96 40t-39 97zM684 100q0 55 40 94t97 39q54 0 93.5 -40t39.5 -95q0 -56 -40 -95.5t-95 -39.5q-57 0 -96 40t-39 97zM1231 100q0 55 40 94t97 39q54 0 93.5 -40t39.5 -95q0 -56 -39.5 -95.5 t-95.5 -39.5q-57 0 -96 40t-39 97z" />
<glyph unicode="&#x202f;" horiz-adv-x="370" />
<glyph unicode="&#x2039;" horiz-adv-x="489" d="M96 565q0 57 176 334h121q-106 -253 -106 -336q0 -77 104 -336h-119q-75 112 -125.5 209.5t-50.5 128.5z" />
<glyph unicode="&#x203a;" horiz-adv-x="489" d="M96 227q107 249 107 336q0 41 -21.5 112t-81.5 224h117q78 -117 127 -211.5t49 -126.5q0 -59 -176 -334h-121z" />
<glyph unicode="&#x205f;" horiz-adv-x="462" />
<glyph unicode="&#x20ac;" horiz-adv-x="1652" d="M104 522l43 103h103v45q0 32 2 57h-148l43 102h115q30 173 135 316q188 254 514 254q133 0 222.5 -32.5t205.5 -123.5l62 137h112v-546h-112q-22 189 -142.5 305t-295.5 116q-172 0 -295 -115t-158 -311h682l-45 -102h-649v-102h606l-43 -103h-551q40 -192 154 -295.5 t284 -103.5q181 0 306.5 112t160.5 304h135q-12 -118 -45 -204.5t-96 -162.5q-89 -107 -204.5 -157t-276.5 -50q-267 0 -446 149t-220 408h-158z" />
<glyph unicode="&#x2122;" horiz-adv-x="2033" d="M6 1063v303h787v-303h-86q0 128 -34.5 173.5t-131.5 45.5h-64v-555q0 -38 14.5 -49.5t61.5 -11.5h70v-78h-445v78h68q49 0 63.5 11.5t14.5 49.5v555h-60q-102 0 -136.5 -43.5t-35.5 -175.5h-86zM834 588v78h55q47 0 61.5 11.5t14.5 49.5v500q0 38 -14.5 49.5t-61.5 11.5 h-55v78h344l241 -559l242 559h338v-78h-55q-47 0 -61.5 -11.5t-14.5 -49.5v-500q0 -38 14.5 -49.5t61.5 -11.5h55v-78h-412v78h55q47 0 61.5 11.5t14.5 49.5v514l-286 -653h-74l-293 653v-514q0 -38 14.5 -49.5t61.5 -11.5h55v-78h-362z" />
</font>
</defs>
</svg>
